<svg xmlns="http://www.w3.org/2000/svg" viewBox="0 0 610.59 249.91"><defs><style>.a{fill:#a5f5d2;}.b{fill:#178557;}.c{fill:#32eba0;}</style></defs><path class="a" d="M23.32,199c-2.32.36-2.4.45-2.4,2.8V225c0,3.3.7,3.79,3.8,2.66L585.87,23.47c3.1-1.13,3.8-.64,3.8,2.66v82.72c0,2.35-.08,2.45-2.4,2.81Z"/><polygon class="b" points="203.11 162.75 203.11 171.13 189.86 173.18 189.86 167.58 203.11 162.75"/><path class="b" d="M86.18,189.23a21.54,21.54,0,0,1-7.54,2.67,19.05,19.05,0,0,1-7.67-.32Z"/><path class="b" d="M151.73,179.08a39.49,39.49,0,0,1-10.58,3.14,34.49,34.49,0,0,1-10.61.14Z"/><path class="b" d="M282.75,133.77c-1.75,12-10.15,23-21.5,28.36l-19.45,3a25.43,25.43,0,0,1-16.87-10.33l14.47-5.26a15.34,15.34,0,0,0,12.11,2.93A21.78,21.78,0,0,0,268,139.16Z"/><polygon class="b" points="301.77 126.85 301.77 155.68 288.48 157.74 288.48 131.69 301.77 126.85"/><path class="b" d="M341.43,112.42a18.82,18.82,0,0,0-.56,4.63v32.58l-13.29,2.06V119.11c0-.56,0-1.1-.07-1.63Z"/><path class="b" d="M380,112.5v31.08l-13.29,2V113.06a14.2,14.2,0,0,0-2.68-8.85l13.42-4.89A32.44,32.44,0,0,1,380,112.5Z"/><polygon class="b" points="401.9 98.46 401.9 140.18 388.62 142.24 388.62 100.52 401.9 98.46"/><path class="b" d="M552.54,61,550.77,69c-.49,2.25-.54,2.3-2.77,2.64l-13.91,2.15c-3.05.48-3.44.05-2.77-3l1.77-8.07c.49-2.24.54-2.29,2.77-2.63l13.91-2.16C552.83,57.46,553.21,57.88,552.54,61Z"/><path class="b" d="M548,81.86l-7.62,34.84c-.49,2.25-.54,2.3-2.77,2.64L523.7,121.5l-.47.07c-2.63.35-2.93-.19-2.3-3.1l7.63-34.85c.49-2.24.54-2.29,2.76-2.64l13.92-2.15C548.29,78.36,548.68,78.78,548,81.86Z"/><path class="b" d="M503.32,64.31c-10.45,1.62-18.9,6.06-25.34,13.21a54.33,54.33,0,0,0-12.86,25c-1.93,8.77-1.05,15.72,2.55,20.61,2.32,3.15,5.9,4.94,10.75,5.42L502,124.86h0a55.09,55.09,0,0,0,6.34-2.53c1.6-.77,1.52-.67,1.89-2.37l1.8-8.23c.79-3.62,0-4.29-3.51-2.81a50.89,50.89,0,0,1-12,3.44c-8.7,1.35-14.9-.6-14.28-7.65,2.74,1.08,6.15,1.25,10.21.62a36.63,36.63,0,0,0,18.23-8.51A30.65,30.65,0,0,0,521.4,79.38C524,67.37,516.78,62.23,503.32,64.31ZM505.26,82c-1.49,6.73-8.82,11.34-16.6,12.55a14.5,14.5,0,0,1-5,.08c2.61-8.64,9-15.44,17-16.68C503.9,77.45,506,79,505.26,82Z"/><path class="b" d="M466.21,74.27l-.91,4.59c-.86,4.36-.52,3.64-3.43,7.28L432.5,122.73c10.43-1.5,19-.77,25.78,2.21,1.78.78,1.78.77,1.32,2.86l-.82,3.75L417.31,138l-.12,0-6,.92c-2.57.34-2.87-.17-2.31-3l.79-4.11c.84-4.35.5-3.63,3.39-7.27L442,88.08l-19.79,3.06c-3,.48-3.43.06-2.77-3l1-4.44,27.35-10h0l15.66-2.42C466.44,70.84,466.81,71.23,466.21,74.27Z"/><polygon class="b" points="401.9 90.42 401.9 92.58 391.55 94.18 401.9 90.42"/><path class="c" d="M377.42,99.32,364,104.21a10.47,10.47,0,0,0-10.22-3.78c-5.82.9-10.75,5.51-12.35,12l-13.92,5.06c-.67-7.81-6.16-12-12.84-11-7.12,1.1-12.9,7.77-12.9,16.63v3.74l-13.29,4.84v-5c0-17.29,10.66-31.06,26.19-33.46,8.73-1.36,15.55,1.63,19.56,7.47a26.83,26.83,0,0,1,19.55-13.53C364.81,85.44,373.38,90.21,377.42,99.32Z"/><path class="c" d="M388.62,82.88V94.64l2.91-.45h0l10.35-3.76v-9.6Z"/><path class="c" d="M417.31,138c17.47-2.62,28.7.33,35.61,3.45,2.78,1.26,3.52.84,4.24-2.45l1.62-7.42ZM424,77.41c-2.23.34-2.28.39-2.77,2.64l-.79,3.63,27.35-10Z"/><path class="c" d="M65.14,133v11.76l26.45-4.1v12.13a17.22,17.22,0,0,0-13-2.85c-11.16,1.73-20.87,12.35-20.87,24.19,0,9,5.6,15.59,13.19,17.49h0l15.21-2.35h0a23.75,23.75,0,0,0,5.4-4.28v3.44l13.25-2V126.81Zm13.5,47.39c-5,.77-9.09-2.83-9.09-8a11.2,11.2,0,0,1,9.09-10.84c5-.78,9.08,2.81,9.08,8A11.23,11.23,0,0,1,78.64,180.35Z"/><path class="c" d="M155.44,119v31.34c0,11.15-4.39,17.72-14.29,19.25s-14.29-3.68-14.29-14.83V123.4l-13.28,2v34.22c0,14.1,6.93,21.13,17,22.69l21.19-3.28h0c10-4.67,17-13.84,17-28V116.92Z"/><polygon class="c" points="217.77 109.33 217.77 121.09 203.11 123.36 203.11 162.75 189.86 167.58 189.86 125.41 175.2 127.68 175.2 115.92 217.77 109.33"/><path class="c" d="M251.51,103c-17.55,2.72-31.46,18.78-31.46,35.95a27.06,27.06,0,0,0,4.88,15.89l14.47-5.26a15.91,15.91,0,0,1-5.81-12.72c0-9.9,7.64-19.48,17.92-21.07s18.05,5.6,18.05,15.5a20.7,20.7,0,0,1-1.61,7.9l14.8-5.39a30.8,30.8,0,0,0,.34-4.61C283.09,112,269.18,100.24,251.51,103Zm0,62.17a35.45,35.45,0,0,0,9.74-3l-19.45,3A31,31,0,0,0,251.51,165.14Z"/><path class="c" d="M478.42,128.51a36.69,36.69,0,0,0,9.29-.4A88.51,88.51,0,0,0,502,124.86Z"/></svg>