<svg width="843" height="620" viewBox="0 0 843 620" fill="none" xmlns="http://www.w3.org/2000/svg">
<path d="M244.566 251.943C250.158 257.335 257.548 260.031 266.735 260.031C277.519 260.031 287.505 256.836 296.692 250.445C305.879 244.054 314.167 235.566 321.557 224.981C329.146 214.396 335.937 202.813 341.928 190.23C348.119 177.448 353.512 164.667 358.105 151.885C362.898 138.903 366.992 127.02 370.388 116.235C373.983 105.251 376.978 96.3634 379.375 89.573C383.769 77.1906 387.663 66.9052 391.058 58.7168C394.454 50.3287 397.649 43.4384 400.645 38.0461C403.018 33.6167 405.453 29.7512 407.951 26.4495C407.953 39.318 408.331 56.0522 409.328 71.5985C410.326 87.1764 410.826 102.255 410.826 116.834C410.826 131.214 410.226 143.996 409.028 155.18C408.03 166.364 406.132 173.654 403.336 177.049C409.727 180.045 415.419 181.543 420.412 181.543C423.807 181.543 426.603 181.043 428.8 180.045C431.197 178.847 433.793 176.65 436.589 173.454C439.585 170.059 443.579 165.066 448.572 158.475C457.759 146.692 466.647 135.208 475.234 124.024C484.022 112.64 493.109 101.157 502.496 89.573C512.082 77.7897 522.667 65.4073 534.251 52.4257C537.047 49.2302 539.743 46.3343 542.339 43.738C545.135 41.1417 547.831 38.6452 550.428 36.2486C546.034 44.6367 540.841 54.7224 534.85 66.5057C529.058 78.289 523.166 90.6715 517.175 103.653C511.383 116.435 506.091 128.718 501.297 140.501C496.704 152.284 493.508 162.47 491.711 171.058C490.113 178.048 489.314 184.339 489.314 189.931C489.314 196.122 490.712 201.315 493.508 205.509C496.305 209.503 501.597 211.5 509.386 211.5C516.376 211.5 523.766 210.102 531.555 207.306C539.343 204.51 545.135 201.115 548.93 197.121C549.329 196.721 549.429 196.222 549.229 195.623C549.03 194.824 548.73 194.424 548.331 194.424H548.031C543.438 197.021 539.543 198.319 536.348 198.319C532.353 198.319 529.557 196.721 527.96 193.526C526.562 190.131 525.863 186.236 525.863 181.842C525.863 178.247 526.162 174.852 526.761 171.657C528.759 161.072 531.854 149.588 536.048 137.206C540.242 124.823 545.035 112.341 550.428 99.7586C555.82 87.1764 561.113 75.493 566.305 64.7083C569.9 57.5185 573.994 49.5298 578.588 40.7422C583.381 31.9547 588.274 23.7663 593.267 16.1771C598.26 8.58782 602.853 3.19547 607.047 0H588.474C581.484 0 574.494 1.09844 567.504 3.29532C560.513 5.29249 554.722 8.8874 550.128 14.08C547.532 17.2755 543.538 22.0687 538.145 28.4596C532.953 34.6509 526.861 41.9405 519.871 50.3286C512.881 58.7167 505.591 67.5043 498.002 76.6913C490.413 85.8783 482.923 95.0652 475.534 104.252C468.144 113.239 461.254 121.628 454.863 129.417C448.672 137.006 443.479 143.397 439.285 148.589C439.685 145.594 439.884 142.498 439.884 139.303C440.084 135.907 440.184 132.912 440.184 130.315C440.184 127.519 440.084 125.222 439.884 123.425V119.83C439.685 112.441 439.385 103.653 438.986 93.4675C438.586 83.2819 438.087 72.9965 437.488 62.6112C437.325 58.3683 437.11 54.1649 436.897 49.9779C436.058 33.5338 435.232 17.3418 437.57 0H355.708C346.522 0 337.834 0.798863 329.645 2.39659C321.457 3.79461 314.068 7.88881 307.477 14.6792C304.681 17.4752 301.885 20.8704 299.089 24.8648C296.492 28.8591 294.296 33.4526 292.498 38.6452C292.099 39.8435 291.899 40.7423 291.899 41.3414C291.899 44.1374 292.798 45.5355 294.595 45.5355C295.194 45.5355 295.594 45.2359 295.793 44.6367C297.591 39.4441 301.885 34.7507 308.675 30.5567C315.665 26.1629 323.854 22.3683 333.24 19.1728C342.627 15.9774 351.814 13.6806 360.801 12.2826C362.798 11.8832 365.495 11.6834 368.89 11.6834C372.485 11.4837 376.379 11.3839 380.573 11.3839C385.566 11.3839 390.559 11.5836 395.552 11.983C400.745 12.1827 404.939 12.7819 408.134 13.7805C403.141 15.5779 397.949 19.772 392.556 26.3626C387.164 32.7536 381.871 40.3428 376.679 49.1304C371.686 57.7182 367.092 66.306 362.898 74.8938C358.904 83.4817 355.708 90.7713 353.312 96.7628C351.914 100.557 349.717 105.95 346.721 112.94C343.725 119.73 340.23 127.519 336.236 136.307C332.441 144.895 328.148 153.782 323.354 162.969C318.761 171.956 313.868 180.644 308.675 189.032C303.682 197.42 298.689 204.71 293.696 210.901C290.101 215.295 285.708 219.289 280.515 222.884C275.522 226.479 270.03 228.276 264.038 228.276C260.244 228.276 256.849 227.078 253.853 224.682C250.857 222.285 249.359 217.991 249.359 211.8V210.002C245.764 210.402 242.968 211.9 240.971 214.496C238.974 217.292 237.676 220.288 237.077 223.483C236.278 226.679 235.878 229.175 235.878 230.973C235.878 239.76 238.774 246.75 244.566 251.943Z" fill="#222222"/>
<path d="M0 492.487V483.817H4.04587C6.61468 483.817 8.9266 483.56 10.9816 483.046C13.1651 482.404 14.8991 481.184 16.1835 479.386C17.5963 477.588 18.3027 474.89 18.3027 471.294V376.312C18.3027 372.588 17.5963 369.826 16.1835 368.028C14.8991 366.23 13.1651 365.074 10.9816 364.56C8.9266 363.918 6.61468 363.597 4.04587 363.597H0V354.927H47.2018L84.7706 460.312L121.954 354.927H168V363.597H163.954C161.385 363.597 159.009 363.918 156.826 364.56C154.642 365.202 152.908 366.487 151.624 368.413C150.339 370.211 149.697 373.101 149.697 377.083V470.331C149.697 474.184 150.339 477.074 151.624 479C152.908 480.927 154.642 482.211 156.826 482.854C159.009 483.496 161.385 483.817 163.954 483.817H168V492.487H113.862V483.817H114.826C117.523 483.817 119.835 483.56 121.761 483.046C123.816 482.404 125.358 481.248 126.385 479.578C127.413 477.909 127.991 475.404 128.119 472.065V370.725L85.5413 492.487H74.3669L30.8257 370.918V470.331C30.8257 474.184 31.3394 477.074 32.367 479C33.5229 480.927 35.1284 482.211 37.1835 482.854C39.367 483.496 41.8715 483.817 44.6972 483.817H45.4679V492.487H0Z" fill="#222222"/>
<path d="M214.12 494.413C208.468 494.413 203.331 493.321 198.707 491.138C194.211 488.826 190.679 485.422 188.11 480.927C185.542 476.303 184.257 470.459 184.257 463.395C184.257 453.12 187.853 445.542 195.046 440.661C202.239 435.652 213.22 432.89 227.991 432.377L243.789 431.799V420.624C243.789 416 243.404 411.955 242.633 408.487C241.991 405.019 240.514 402.322 238.202 400.395C235.89 398.34 232.358 397.312 227.606 397.312C223.11 397.312 219.642 398.211 217.202 400.01C214.89 401.808 213.285 404.312 212.386 407.523C211.615 410.606 211.23 414.202 211.23 418.312C205.064 418.312 200.376 417.413 197.165 415.615C193.954 413.688 192.349 410.477 192.349 405.982C192.349 401.358 193.954 397.698 197.165 395C200.505 392.303 204.872 390.312 210.266 389.028C215.789 387.744 221.826 387.101 228.376 387.101C240.578 387.101 249.697 389.606 255.734 394.615C261.899 399.624 264.982 408.166 264.982 420.239V469.945C264.982 473.542 265.367 476.367 266.138 478.422C266.909 480.349 268.193 481.762 269.991 482.661C271.789 483.432 274.101 483.817 276.927 483.817H277.505V492.487H248.798L245.523 476.881H243.789C241.092 480.349 238.459 483.432 235.89 486.129C233.321 488.698 230.367 490.753 227.028 492.294C223.688 493.707 219.386 494.413 214.12 494.413ZM220.285 481.89C225.165 481.89 229.34 480.863 232.808 478.808C236.275 476.624 238.973 473.542 240.899 469.56C242.826 465.578 243.789 460.955 243.789 455.688V440.468L232.422 441.046C225.743 441.303 220.477 442.395 216.624 444.321C212.771 446.12 210.009 448.688 208.34 452.028C206.798 455.367 206.028 459.477 206.028 464.358C206.028 468.211 206.542 471.487 207.569 474.184C208.597 476.753 210.138 478.679 212.193 479.964C214.376 481.248 217.074 481.89 220.285 481.89Z" fill="#222222"/>
<path d="M290.845 492.487V483.817H291.423C294.377 483.817 297.01 483.496 299.322 482.854C301.762 482.211 303.625 480.927 304.909 479C306.322 476.945 307.029 473.927 307.029 469.945V410.991C307.029 407.138 306.322 404.312 304.909 402.514C303.496 400.588 301.634 399.367 299.322 398.854C297.139 398.211 294.634 397.89 291.808 397.89H291.23V389.221H323.405L327.065 407.138H328.029C329.698 403.285 331.496 399.881 333.423 396.927C335.478 393.844 338.111 391.468 341.322 389.799C344.662 388 349.093 387.101 354.616 387.101C361.808 387.101 367.139 388.386 370.606 390.955C374.074 393.523 375.808 397.12 375.808 401.744C375.808 406.239 374.203 409.899 370.992 412.725C367.909 415.422 362.964 416.771 356.157 416.771C356.157 413.175 355.836 410.285 355.194 408.101C354.551 405.789 353.524 404.12 352.111 403.092C350.698 401.936 348.707 401.358 346.139 401.358C342.671 401.358 339.717 402.707 337.276 405.404C334.964 408.101 333.166 411.505 331.882 415.615C330.597 419.725 329.634 423.964 328.992 428.331C328.478 432.698 328.221 436.551 328.221 439.89V470.909C328.221 474.633 328.928 477.459 330.34 479.386C331.753 481.184 333.551 482.404 335.735 483.046C338.047 483.56 340.616 483.817 343.441 483.817H349.029V492.487H290.845Z" fill="#222222"/>
<path d="M425.197 494.413C415.693 494.413 408.628 492.23 404.004 487.863C399.381 483.367 397.069 475.532 397.069 464.358V400.78H382.619V392.496C385.316 392.496 388.142 391.918 391.096 390.762C394.05 389.606 396.555 387.936 398.61 385.753C400.793 383.569 402.592 380.872 404.004 377.661C405.417 374.322 406.573 370.276 407.472 365.523H418.261V389.221H443.307V400.78H418.261V464.358C418.261 470.652 419.482 475.276 421.922 478.23C424.491 481.184 428.023 482.661 432.518 482.661C434.83 482.661 436.949 482.532 438.876 482.276C440.931 482.019 442.986 481.698 445.041 481.312V490.945C443.371 491.716 440.674 492.487 436.949 493.257C433.225 494.028 429.307 494.413 425.197 494.413Z" fill="#222222"/>
<path d="M453.554 492.487V483.817H456.059C458.628 483.817 461.068 483.56 463.38 483.046C465.692 482.404 467.554 481.184 468.967 479.386C470.508 477.459 471.279 474.698 471.279 471.101V410.606C471.279 406.881 470.508 404.12 468.967 402.322C467.554 400.523 465.692 399.367 463.38 398.854C461.068 398.211 458.628 397.89 456.059 397.89H455.096V389.221H492.472V470.331C492.472 474.184 493.178 477.074 494.591 479C496.004 480.927 497.866 482.211 500.178 482.854C502.619 483.496 505.123 483.817 507.692 483.817H510.197V492.487H453.554ZM481.105 370.533C477.508 370.533 474.49 369.569 472.05 367.643C469.738 365.716 468.582 362.505 468.582 358.01C468.582 353.386 469.802 350.175 472.242 348.377C474.683 346.45 477.637 345.487 481.105 345.487C484.444 345.487 487.334 346.45 489.775 348.377C492.343 350.175 493.628 353.386 493.628 358.01C493.628 362.505 492.343 365.716 489.775 367.643C487.334 369.569 484.444 370.533 481.105 370.533Z" fill="#222222"/>
<path d="M517.922 492.487V483.817H519.078C522.033 483.817 524.666 483.496 526.978 482.854C529.418 482.211 531.28 480.927 532.565 479C533.978 476.945 534.684 473.991 534.684 470.138V410.799C534.684 407.074 533.978 404.312 532.565 402.514C531.28 400.588 529.482 399.367 527.17 398.854C524.987 398.211 522.482 397.89 519.656 397.89H518.886V389.221H552.601L555.106 404.248H556.069C558.767 399.367 561.592 395.707 564.546 393.266C567.629 390.826 570.904 389.221 574.372 388.45C577.968 387.551 581.822 387.101 585.932 387.101C596.078 387.101 603.977 390.12 609.629 396.156C615.28 402.065 618.106 411.569 618.106 424.67V469.945C618.106 473.927 618.684 476.945 619.84 479C620.996 480.927 622.601 482.211 624.656 482.854C626.84 483.496 629.344 483.817 632.17 483.817H633.133V492.487H596.913V426.789C596.913 418.441 595.436 412.019 592.482 407.523C589.656 402.899 584.647 400.588 577.455 400.588C572.06 400.588 567.757 402 564.546 404.826C561.464 407.652 559.216 411.441 557.803 416.193C556.519 420.945 555.877 426.019 555.877 431.413V471.101C555.877 474.698 556.519 477.459 557.803 479.386C559.216 481.184 561.014 482.404 563.198 483.046C565.51 483.56 568.078 483.817 570.904 483.817H571.675V492.487H517.922Z" fill="#222222"/>
<path d="M690.232 494.413C680.085 494.413 672.25 491.395 666.727 485.358C661.333 479.321 658.635 469.688 658.635 456.459V411.184C658.635 407.331 657.929 404.505 656.516 402.707C655.232 400.78 653.434 399.496 651.122 398.854C648.938 398.211 646.434 397.89 643.608 397.89H643.03V389.221H679.828V454.34C679.828 459.863 680.342 464.615 681.369 468.597C682.525 472.578 684.452 475.661 687.149 477.844C689.975 479.899 693.764 480.927 698.516 480.927C703.654 480.927 707.892 479.643 711.232 477.074C714.571 474.505 717.012 470.909 718.553 466.285C720.094 461.661 720.865 456.331 720.865 450.294V411.377C720.865 407.395 720.158 404.441 718.745 402.514C717.461 400.588 715.663 399.367 713.351 398.854C711.039 398.211 708.47 397.89 705.645 397.89H705.067V389.221H742.057V471.101C742.057 474.826 742.7 477.652 743.984 479.578C745.397 481.377 747.259 482.533 749.571 483.046C751.883 483.56 754.388 483.817 757.085 483.817H757.856V492.487H725.103L722.213 477.459H721.25C719.323 480.927 717.14 483.817 714.7 486.129C712.388 488.312 709.947 490.046 707.378 491.331C704.81 492.487 702.048 493.257 699.094 493.643C696.268 494.156 693.314 494.413 690.232 494.413Z" fill="#222222"/>
<path d="M804.008 494.413C796.816 494.413 790.715 493.578 785.705 491.909C780.696 490.239 776.843 487.863 774.146 484.78C771.577 481.569 770.293 477.78 770.293 473.413C770.293 469.688 771.063 466.863 772.605 464.936C774.274 463.01 776.137 461.661 778.192 460.89C780.375 460.12 782.302 459.734 783.972 459.734C783.972 464.487 784.678 468.789 786.091 472.643C787.504 476.367 789.751 479.321 792.834 481.505C795.917 483.56 799.898 484.588 804.779 484.588C811.586 484.588 816.724 483.046 820.192 479.964C823.66 476.881 825.394 472.964 825.394 468.211C825.394 465.129 824.687 462.56 823.274 460.505C821.99 458.45 819.614 456.459 816.146 454.533C812.806 452.477 807.99 450.23 801.696 447.789C795.017 444.964 789.43 442.138 784.935 439.312C780.568 436.487 777.293 433.211 775.109 429.487C772.926 425.762 771.834 421.074 771.834 415.422C771.834 406.303 775.238 399.367 782.045 394.615C788.981 389.734 798.1 387.294 809.403 387.294C816.082 387.294 821.605 388.129 825.972 389.799C830.467 391.468 833.742 393.652 835.797 396.349C837.981 399.046 839.072 401.936 839.072 405.019C839.072 408.744 837.788 411.698 835.219 413.881C832.65 416.065 828.797 417.156 823.66 417.156C823.66 410.734 822.247 405.725 819.421 402.129C816.724 398.533 812.549 396.734 806.898 396.734C803.045 396.734 799.77 397.377 797.072 398.661C794.504 399.817 792.577 401.487 791.293 403.67C790.008 405.725 789.366 408.23 789.366 411.184C789.366 414.266 790.137 416.899 791.678 419.083C793.348 421.266 795.981 423.321 799.577 425.248C803.173 427.046 807.99 429.101 814.027 431.413C820.577 433.982 825.972 436.679 830.21 439.505C834.449 442.331 837.595 445.67 839.65 449.523C841.834 453.248 842.926 457.808 842.926 463.202C842.926 473.349 839.394 481.12 832.329 486.514C825.394 491.78 815.953 494.413 804.008 494.413Z" fill="#222222"/>
<path d="M225.896 620C218.445 620 212.161 618.269 207.044 614.807C201.926 611.345 198.05 606.529 195.416 600.358C192.858 594.111 191.578 586.811 191.578 578.458C191.578 570.33 192.933 563.18 195.642 557.009C198.427 550.763 202.491 545.908 207.834 542.447C213.252 538.909 219.913 537.141 227.815 537.141C232.932 537.141 237.185 537.705 240.571 538.834C243.958 539.888 246.479 541.393 248.135 543.35C249.79 545.231 250.618 547.376 250.618 549.784C250.618 552.192 249.677 554.112 247.796 555.541C245.914 556.971 243.581 557.686 240.797 557.686C240.797 555.353 240.383 553.096 239.555 550.913C238.727 548.655 237.335 546.812 235.378 545.382C233.497 543.876 230.9 543.124 227.589 543.124C221.945 543.124 217.392 544.516 213.93 547.301C210.468 550.01 207.947 553.999 206.366 559.267C204.861 564.535 204.109 570.932 204.109 578.458C204.109 585.155 204.899 591.101 206.479 596.294C208.135 601.411 210.694 605.4 214.156 608.26C217.617 611.119 222.095 612.549 227.589 612.549C231.277 612.549 234.4 612.098 236.959 611.195C239.518 610.292 241.662 609.125 243.393 607.695C245.199 606.19 246.742 604.61 248.022 602.954C248.624 603.33 249.113 603.895 249.489 604.647C249.941 605.325 250.167 606.228 250.167 607.357C250.167 608.786 249.677 610.254 248.699 611.759C247.721 613.189 246.253 614.544 244.296 615.823C242.34 617.027 239.819 618.043 236.733 618.871C233.723 619.624 230.11 620 225.896 620Z" fill="#555555"/>
<path d="M254.485 618.871V614.13H256.63C258.135 614.13 259.339 613.904 260.243 613.452C261.146 613.001 261.974 612.135 262.726 610.856C263.479 609.577 264.306 607.733 265.21 605.325L290.27 538.27H299.076L324.588 608.147C325.19 609.727 325.83 610.969 326.507 611.872C327.185 612.7 328.012 613.302 328.991 613.678C329.969 613.979 331.173 614.13 332.603 614.13H334.071V618.871H303.027V614.13H305.623C307.881 614.13 309.574 613.716 310.703 612.888C311.832 611.985 312.396 610.593 312.396 608.711C312.396 608.26 312.359 607.846 312.283 607.469C312.208 607.018 312.095 606.566 311.945 606.115C311.87 605.588 311.719 605.061 311.493 604.534L306.978 591.891H277.289L272.999 603.744C272.773 604.346 272.585 604.948 272.434 605.55C272.284 606.152 272.171 606.717 272.096 607.244C272.02 607.695 271.983 608.147 271.983 608.598C271.983 610.48 272.585 611.872 273.789 612.775C275.068 613.678 276.95 614.13 279.433 614.13H282.03V618.871H254.485ZM279.433 586.247H304.946L297.947 566.491C297.194 564.234 296.442 562.089 295.689 560.057C295.012 558.025 294.372 556.068 293.77 554.187C293.243 552.305 292.754 550.461 292.302 548.655C292.001 550.01 291.663 551.327 291.286 552.606C290.985 553.886 290.609 555.203 290.158 556.557C289.781 557.837 289.33 559.229 288.803 560.734C288.351 562.164 287.787 563.745 287.11 565.475L279.433 586.247Z" fill="#555555"/>
<path d="M338.369 618.871V614.13H339.837C341.568 614.13 343.11 613.942 344.465 613.565C345.895 613.189 347.024 612.436 347.852 611.308C348.68 610.103 349.093 608.335 349.093 606.002V550.687C349.093 548.43 348.642 546.774 347.739 545.72C346.911 544.591 345.782 543.876 344.352 543.575C342.998 543.199 341.492 543.011 339.837 543.011H338.369V538.27H370.09C379.573 538.27 386.572 540.377 391.087 544.591C395.603 548.731 397.861 554.488 397.861 561.863C397.861 565.25 397.334 568.486 396.28 571.571C395.227 574.582 393.496 577.291 391.087 579.699C388.754 582.108 385.631 584.027 381.718 585.456C377.88 586.811 373.176 587.488 367.607 587.488H360.495V606.566C360.495 608.749 360.909 610.404 361.737 611.533C362.64 612.587 363.769 613.302 365.123 613.678C366.553 613.979 368.096 614.13 369.752 614.13H373.477V618.871H338.369ZM366.478 582.183C369.865 582.183 372.762 581.844 375.17 581.167C377.654 580.414 379.648 579.248 381.153 577.667C382.734 576.087 383.863 574.055 384.54 571.571C385.293 569.013 385.669 565.927 385.669 562.315C385.669 558.1 385.104 554.638 383.976 551.929C382.847 549.144 381.003 547.075 378.444 545.72C375.885 544.366 372.461 543.688 368.171 543.688H360.495V582.183H366.478Z" fill="#555555"/>
<path d="M406.498 618.871V614.13H407.966C409.697 614.13 411.239 613.942 412.594 613.565C414.024 613.189 415.153 612.436 415.981 611.308C416.809 610.103 417.223 608.335 417.223 606.002V551.139C417.223 548.731 416.809 546.962 415.981 545.833C415.153 544.704 414.024 543.952 412.594 543.575C411.239 543.199 409.697 543.011 407.966 543.011H406.498V538.27H439.348V543.011H437.881C436.225 543.011 434.682 543.199 433.252 543.575C431.823 543.952 430.694 544.704 429.866 545.833C429.038 546.962 428.624 548.731 428.624 551.139V606.002C428.624 608.335 429.038 610.103 429.866 611.308C430.694 612.436 431.823 613.189 433.252 613.565C434.682 613.942 436.225 614.13 437.881 614.13H439.348V618.871H406.498Z" fill="#555555"/>
<path d="M460.592 618.871V614.13H463.189C464.844 614.13 466.35 613.979 467.704 613.678C469.134 613.302 470.263 612.587 471.091 611.533C471.994 610.404 472.445 608.749 472.445 606.566V543.914H461.608C459.426 543.914 457.695 544.366 456.415 545.269C455.136 546.097 454.195 547.225 453.593 548.655C452.991 550.01 452.577 551.515 452.352 553.171L451.787 558.025H445.917L446.481 538.27H510.037L510.601 558.025H504.731L504.167 553.171C504.016 551.515 503.602 550.01 502.925 548.655C502.323 547.225 501.382 546.097 500.103 545.269C498.823 544.366 497.055 543.914 494.797 543.914H483.847V606.002C483.847 608.335 484.261 610.103 485.089 611.308C485.917 612.436 487.045 613.189 488.475 613.565C489.905 613.942 491.448 614.13 493.104 614.13H495.7V618.871H460.592Z" fill="#555555"/>
<path d="M506.166 618.871V614.13H508.311C509.816 614.13 511.02 613.904 511.923 613.452C512.826 613.001 513.654 612.135 514.407 610.856C515.159 609.577 515.987 607.733 516.89 605.325L541.951 538.27H550.756L576.269 608.147C576.871 609.727 577.511 610.969 578.188 611.872C578.865 612.7 579.693 613.302 580.671 613.678C581.65 613.979 582.854 614.13 584.284 614.13H585.751V618.871H554.707V614.13H557.304C559.562 614.13 561.255 613.716 562.384 612.888C563.513 611.985 564.077 610.593 564.077 608.711C564.077 608.26 564.039 607.846 563.964 607.469C563.889 607.018 563.776 606.566 563.625 606.115C563.55 605.588 563.4 605.061 563.174 604.534L558.658 591.891H528.969L524.679 603.744C524.454 604.346 524.266 604.948 524.115 605.55C523.965 606.152 523.852 606.717 523.776 607.244C523.701 607.695 523.663 608.147 523.663 608.598C523.663 610.48 524.266 611.872 525.47 612.775C526.749 613.678 528.631 614.13 531.114 614.13H533.71V618.871H506.166ZM531.114 586.247H556.626L549.628 566.491C548.875 564.234 548.122 562.089 547.37 560.057C546.692 558.025 546.053 556.068 545.451 554.187C544.924 552.305 544.435 550.461 543.983 548.655C543.682 550.01 543.343 551.327 542.967 552.606C542.666 553.886 542.29 555.203 541.838 556.557C541.462 557.837 541.01 559.229 540.484 560.734C540.032 562.164 539.468 563.745 538.79 565.475L531.114 586.247Z" fill="#555555"/>
<path d="M590.05 618.871V614.13H591.517C593.248 614.13 594.791 613.942 596.146 613.565C597.576 613.189 598.705 612.436 599.532 611.308C600.36 610.103 600.774 608.335 600.774 606.002V551.139C600.774 548.731 600.36 546.962 599.532 545.833C598.705 544.704 597.576 543.952 596.146 543.575C594.791 543.199 593.248 543.011 591.517 543.011H590.05V538.27H622.9V543.011H621.432C619.777 543.011 618.234 543.199 616.804 543.575C615.449 543.876 614.321 544.591 613.417 545.72C612.59 546.774 612.176 548.43 612.176 550.687V613.227H634.414C636.672 613.227 638.478 612.738 639.833 611.759C641.263 610.706 642.317 609.389 642.994 607.808C643.671 606.228 644.123 604.647 644.348 603.067L645.477 594.6H651.347L650.557 618.871H590.05Z" fill="#555555"/>
</svg>
