<svg width="1284" height="284" viewBox="0 0 1284 284" fill="none" xmlns="http://www.w3.org/2000/svg">
<path d="M9.46226 275.66C15.0049 281.004 22.3292 283.677 31.435 283.677C42.1245 283.677 52.0221 280.509 61.1279 274.175C70.2338 267.841 78.4488 259.427 85.7731 248.936C93.2953 238.444 100.026 226.963 105.964 214.492C112.101 201.823 117.446 189.154 121.998 176.485C126.749 163.618 130.807 151.84 134.173 141.151C137.736 130.263 140.705 121.454 143.08 114.724C147.435 102.451 151.295 92.2564 154.661 84.1403C158.026 75.8263 161.193 68.9969 164.162 63.6522C166.514 59.2619 168.928 55.4306 171.404 52.1581C171.406 64.9129 171.781 81.4992 172.769 96.9082C173.758 112.349 174.253 127.294 174.253 141.745C174.253 155.997 173.659 168.666 172.472 179.752C171.482 190.837 169.601 198.062 166.83 201.427C173.164 204.397 178.806 205.881 183.755 205.881C187.12 205.881 189.892 205.386 192.069 204.397C194.444 203.209 197.018 201.031 199.789 197.864C202.758 194.499 206.718 189.55 211.666 183.018C220.772 171.339 229.581 159.956 238.093 148.871C246.803 137.588 255.81 126.205 265.114 114.724C274.615 103.045 285.107 90.7717 296.588 77.9048C299.36 74.7375 302.032 71.8672 304.605 69.2938C307.377 66.7204 310.049 64.246 312.622 61.8706C308.267 70.1846 303.121 80.1812 297.182 91.8604C291.441 103.54 285.602 115.813 279.663 128.68C273.923 141.349 268.677 153.523 263.926 165.202C259.373 176.881 256.206 186.977 254.424 195.489C252.841 202.417 252.049 208.653 252.049 214.195C252.049 220.332 253.434 225.479 256.206 229.636C258.977 233.595 264.223 235.574 271.943 235.574C278.871 235.574 286.196 234.189 293.916 231.417C301.636 228.646 307.377 225.281 311.138 221.322C311.534 220.926 311.633 220.431 311.435 219.837C311.237 219.045 310.94 218.649 310.544 218.649H310.247C305.694 221.223 301.834 222.509 298.667 222.509C294.708 222.509 291.936 220.926 290.353 217.758C288.967 214.393 288.274 210.533 288.274 206.178C288.274 202.615 288.571 199.25 289.165 196.083C291.144 185.591 294.213 174.209 298.37 161.936C302.527 149.663 307.278 137.291 312.622 124.82C317.967 112.349 323.213 100.768 328.36 90.0789C331.923 82.9526 335.981 75.0345 340.534 66.3245C345.285 57.6146 350.134 49.4986 355.083 41.9763C360.032 34.4541 364.585 29.1094 368.742 25.9422H350.332C343.404 25.9422 336.476 27.0309 329.547 29.2084C322.619 31.1879 316.878 34.7511 312.325 39.8978C309.752 43.0651 305.793 47.8159 300.448 54.1504C295.301 60.287 289.264 67.5122 282.336 75.8263C275.407 84.1403 268.182 92.8502 260.66 101.956C253.138 111.062 245.714 120.168 238.39 129.274C231.066 138.181 224.236 146.495 217.902 154.216C211.765 161.738 206.619 168.072 202.462 173.219C202.857 170.25 203.055 167.181 203.055 164.014C203.253 160.649 203.352 157.68 203.352 155.106C203.352 152.335 203.253 150.059 203.055 148.277V144.714C202.857 137.39 202.561 128.68 202.165 118.584C201.769 108.488 201.274 98.2939 200.68 88.0004C200.518 83.795 200.306 79.6287 200.094 75.4787C199.263 59.1798 198.444 43.1309 200.761 25.9422H119.623C110.517 25.9422 101.906 26.734 93.7902 28.3176C85.6741 29.7033 78.3498 33.7613 71.8174 40.4917C69.0461 43.263 66.2747 46.6282 63.5034 50.5873C60.93 54.5463 58.7525 59.0993 56.9709 64.246C56.575 65.4338 56.3771 66.3245 56.3771 66.9184C56.3771 69.6897 57.2679 71.0754 59.0494 71.0754C59.6433 71.0754 60.0392 70.7785 60.2372 70.1846C62.0187 65.0378 66.2747 60.386 73.0051 56.229C79.9335 51.874 88.0495 48.1129 97.3533 44.9456C106.657 41.7784 115.763 39.5019 124.671 38.1163C126.65 37.7204 129.323 37.5224 132.688 37.5224C136.251 37.3245 140.111 37.2255 144.268 37.2255C149.217 37.2255 154.166 37.4234 159.115 37.8193C164.261 38.0173 168.418 38.6112 171.586 39.6009C166.637 41.3825 161.49 45.5395 156.145 52.0719C150.801 58.4064 145.555 65.9286 140.408 74.6386C135.459 83.1505 130.906 91.6625 126.749 100.174C122.79 108.686 119.623 115.912 117.248 121.85C115.862 125.611 113.684 130.956 110.715 137.884C107.746 144.615 104.282 152.335 100.323 161.045C96.5615 169.557 92.3055 178.366 87.5547 187.472C83.0017 196.38 78.1519 204.99 73.0051 213.304C68.0563 221.619 63.1075 228.844 58.1587 234.98C54.5955 239.335 50.2405 243.294 45.0938 246.857C40.145 250.421 34.7012 252.202 28.7627 252.202C25.0016 252.202 21.6364 251.015 18.6671 248.639C15.6978 246.264 14.2131 242.008 14.2131 235.871V234.09C10.65 234.485 7.87864 235.97 5.89911 238.543C3.91959 241.315 2.63289 244.284 2.03904 247.451C1.24722 250.619 0.851318 253.093 0.851318 254.875C0.851318 263.585 3.72163 270.513 9.46226 275.66Z" fill="#222222"/>
<path d="M447.707 146.025V137.431H451.717C454.263 137.431 456.554 137.177 458.591 136.668C460.755 136.031 462.474 134.822 463.747 133.039C465.147 131.257 465.848 128.584 465.848 125.019V30.8765C465.848 27.1846 465.147 24.4476 463.747 22.6653C462.474 20.883 460.755 19.7372 458.591 19.228C456.554 18.5915 454.263 18.2732 451.717 18.2732H447.707V9.68009H494.491L531.728 114.134L568.583 9.68009H614.223V18.2732H610.212C607.666 18.2732 605.311 18.5915 603.147 19.228C600.983 19.8646 599.264 21.1376 597.991 23.0472C596.718 24.8295 596.082 27.6939 596.082 31.6403V124.064C596.082 127.884 596.718 130.748 597.991 132.657C599.264 134.567 600.983 135.84 603.147 136.477C605.311 137.113 607.666 137.431 610.212 137.431H614.223V146.025H560.563V137.431H561.518C564.191 137.431 566.483 137.177 568.392 136.668C570.429 136.031 571.957 134.885 572.975 133.23C573.994 131.575 574.567 129.093 574.694 125.783V25.3387L532.492 146.025H521.417L478.26 25.5297V124.064C478.26 127.884 478.769 130.748 479.788 132.657C480.933 134.567 482.525 135.84 484.562 136.477C486.726 137.113 489.208 137.431 492.009 137.431H492.773V146.025H447.707Z" fill="#222222"/>
<path d="M659.935 147.934C654.333 147.934 649.241 146.852 644.658 144.688C640.202 142.396 636.701 139.023 634.155 134.567C631.609 129.984 630.336 124.192 630.336 117.19C630.336 107.005 633.901 99.4943 641.03 94.6567C648.159 89.6918 659.044 86.9547 673.684 86.4455L689.342 85.8726V74.797C689.342 70.214 688.961 66.2039 688.197 62.7666C687.56 59.3294 686.096 56.6559 683.805 54.7463C681.513 52.7094 678.012 51.691 673.302 51.691C668.846 51.691 665.409 52.5821 662.99 54.3644C660.699 56.1467 659.107 58.6292 658.216 61.8118C657.452 64.8671 657.07 68.4317 657.07 72.5055C650.96 72.5055 646.313 71.6144 643.13 69.8321C639.948 67.9225 638.356 64.7398 638.356 60.2841C638.356 55.7011 639.948 52.0729 643.13 49.3995C646.44 46.7261 650.769 44.7528 656.116 43.4798C661.59 42.2067 667.573 41.5702 674.066 41.5702C686.16 41.5702 695.198 44.0527 701.182 49.0176C707.293 53.9825 710.348 62.4483 710.348 74.4151V123.682C710.348 127.247 710.73 130.048 711.494 132.085C712.257 133.994 713.53 135.395 715.313 136.286C717.095 137.05 719.387 137.431 722.187 137.431H722.76V146.025H694.307L691.061 130.557H689.342C686.669 133.994 684.059 137.05 681.513 139.723C678.967 142.269 676.039 144.306 672.729 145.834C669.419 147.234 665.154 147.934 659.935 147.934ZM666.045 135.522C670.883 135.522 675.021 134.503 678.458 132.467C681.895 130.302 684.568 127.247 686.478 123.301C688.388 119.354 689.342 114.771 689.342 109.551V94.4657L678.076 95.0386C671.456 95.2932 666.236 96.3753 662.417 98.2849C658.598 100.067 655.861 102.613 654.206 105.923C652.678 109.233 651.914 113.307 651.914 118.145C651.914 121.964 652.424 125.21 653.442 127.884C654.461 130.43 655.988 132.339 658.025 133.612C660.189 134.885 662.863 135.522 666.045 135.522Z" fill="#222222"/>
<path d="M735.983 146.025V137.431H736.555C739.483 137.431 742.093 137.113 744.385 136.477C746.804 135.84 748.649 134.567 749.923 132.657C751.323 130.621 752.023 127.629 752.023 123.682V65.2491C752.023 61.4299 751.323 58.6292 749.923 56.8469C748.522 54.9373 746.676 53.7279 744.385 53.2187C742.221 52.5821 739.738 52.2639 736.937 52.2639H736.364V43.6707H768.255L771.883 61.4299H772.838C774.493 57.6107 776.275 54.2371 778.184 51.3091C780.221 48.2537 782.831 45.8986 786.014 44.2436C789.324 42.4613 793.716 41.5702 799.19 41.5702C806.319 41.5702 811.602 42.8432 815.039 45.3894C818.477 47.9355 820.195 51.5 820.195 56.0831C820.195 60.5388 818.604 64.167 815.421 66.9677C812.366 69.6411 807.465 70.9778 800.718 70.9778C800.718 67.4133 800.399 64.5489 799.763 62.3847C799.126 60.0932 798.108 58.4382 796.707 57.4198C795.307 56.274 793.334 55.7011 790.788 55.7011C787.35 55.7011 784.422 57.0378 782.004 59.7113C779.712 62.3847 777.93 65.7583 776.657 69.8321C775.384 73.9059 774.429 78.107 773.792 82.4354C773.283 86.7637 773.029 90.5829 773.029 93.8929V124.637C773.029 128.329 773.729 131.13 775.129 133.039C776.529 134.822 778.312 136.031 780.476 136.668C782.767 137.177 785.314 137.431 788.114 137.431H793.652V146.025H735.983Z" fill="#222222"/>
<path d="M869.148 147.934C859.727 147.934 852.725 145.77 848.142 141.442C843.559 136.986 841.268 129.22 841.268 118.145V55.1283H826.946V46.917C829.619 46.917 832.42 46.3442 835.348 45.1984C838.276 44.0527 840.759 42.3977 842.796 40.2335C844.96 38.0693 846.742 35.3959 848.142 32.2132C849.543 28.9033 850.689 24.8931 851.58 20.1828H862.273V43.6707H887.098V55.1283H862.273V118.145C862.273 124.383 863.483 128.966 865.902 131.894C868.448 134.822 871.949 136.286 876.404 136.286C878.696 136.286 880.796 136.158 882.706 135.904C884.743 135.649 886.78 135.331 888.817 134.949V144.497C887.162 145.261 884.488 146.025 880.796 146.788C877.104 147.552 873.222 147.934 869.148 147.934Z" fill="#222222"/>
<path d="M897.255 146.025V137.431H899.737C902.283 137.431 904.702 137.177 906.994 136.668C909.285 136.031 911.131 134.822 912.531 133.039C914.059 131.13 914.823 128.393 914.823 124.828V64.8672C914.823 61.1753 914.059 58.4382 912.531 56.6559C911.131 54.8736 909.285 53.7279 906.994 53.2187C904.702 52.5821 902.283 52.2639 899.737 52.2639H898.782V43.6707H935.828V124.064C935.828 127.884 936.528 130.748 937.929 132.657C939.329 134.567 941.175 135.84 943.467 136.477C945.885 137.113 948.368 137.431 950.914 137.431H953.396V146.025H897.255ZM924.562 25.1477C920.997 25.1477 918.005 24.193 915.587 22.2834C913.295 20.3738 912.149 17.1911 912.149 12.7354C912.149 8.15242 913.359 4.96978 915.778 3.1875C918.196 1.27791 921.124 0.32312 924.562 0.32312C927.872 0.32312 930.736 1.27791 933.155 3.1875C935.701 4.96978 936.974 8.15242 936.974 12.7354C936.974 17.1911 935.701 20.3738 933.155 22.2834C930.736 24.193 927.872 25.1477 924.562 25.1477Z" fill="#222222"/>
<path d="M961.054 146.025V137.431H962.2C965.128 137.431 967.738 137.113 970.029 136.477C972.448 135.84 974.294 134.567 975.567 132.657C976.967 130.621 977.668 127.693 977.668 123.873V65.0581C977.668 61.3662 976.967 58.6292 975.567 56.8469C974.294 54.9373 972.512 53.7279 970.22 53.2187C968.056 52.5821 965.574 52.2639 962.773 52.2639H962.009V43.6707H995.427L997.909 58.5655H998.864C1001.54 53.7279 1004.34 50.0997 1007.27 47.6809C1010.32 45.2621 1013.57 43.6707 1017.01 42.9069C1020.57 42.0158 1024.39 41.5702 1028.46 41.5702C1038.52 41.5702 1046.35 44.5619 1051.95 50.5453C1057.55 56.4013 1060.35 65.8219 1060.35 78.8071V123.682C1060.35 127.629 1060.93 130.621 1062.07 132.657C1063.22 134.567 1064.81 135.84 1066.85 136.477C1069.01 137.113 1071.49 137.431 1074.29 137.431H1075.25V146.025H1039.35V80.9077C1039.35 72.6328 1037.88 66.2675 1034.96 61.8118C1032.15 57.2288 1027.19 54.9373 1020.06 54.9373C1014.71 54.9373 1010.45 56.3377 1007.27 59.1384C1004.21 61.9391 1001.98 65.6946 1000.58 70.405C999.31 75.1153 998.673 80.1438 998.673 85.4907V124.828C998.673 128.393 999.31 131.13 1000.58 133.039C1001.98 134.822 1003.77 136.031 1005.93 136.668C1008.22 137.177 1010.77 137.431 1013.57 137.431H1014.33V146.025H961.054Z" fill="#222222"/>
<path d="M1131.84 147.934C1121.78 147.934 1114.02 144.942 1108.54 138.959C1103.2 132.976 1100.52 123.428 1100.52 110.315V65.44C1100.52 61.6209 1099.82 58.8201 1098.42 57.0378C1097.15 55.1283 1095.37 53.8552 1093.08 53.2187C1090.91 52.5821 1088.43 52.2639 1085.63 52.2639H1085.06V43.6707H1121.53V108.215C1121.53 113.689 1122.04 118.399 1123.06 122.346C1124.2 126.292 1126.11 129.348 1128.79 131.512C1131.59 133.549 1135.34 134.567 1140.05 134.567C1145.14 134.567 1149.35 133.294 1152.66 130.748C1155.97 128.202 1158.38 124.637 1159.91 120.054C1161.44 115.471 1162.2 110.188 1162.2 104.205V65.631C1162.2 61.6845 1161.5 58.7565 1160.1 56.8469C1158.83 54.9373 1157.05 53.7279 1154.76 53.2187C1152.46 52.5821 1149.92 52.2639 1147.12 52.2639H1146.55V43.6707H1183.21V124.828C1183.21 128.52 1183.85 131.321 1185.12 133.23C1186.52 135.013 1188.37 136.158 1190.66 136.668C1192.95 137.177 1195.43 137.431 1198.1 137.431H1198.87V146.025H1166.4L1163.54 131.13H1162.59C1160.68 134.567 1158.51 137.431 1156.09 139.723C1153.8 141.887 1151.38 143.606 1148.84 144.879C1146.29 146.025 1143.55 146.788 1140.63 147.17C1137.82 147.68 1134.9 147.934 1131.84 147.934Z" fill="#222222"/>
<path d="M1244.61 147.934C1237.48 147.934 1231.44 147.107 1226.47 145.452C1221.51 143.797 1217.69 141.442 1215.01 138.386C1212.47 135.204 1211.2 131.448 1211.2 127.12C1211.2 123.428 1211.96 120.627 1213.49 118.717C1215.14 116.808 1216.99 115.471 1219.02 114.707C1221.19 113.944 1223.1 113.562 1224.75 113.562C1224.75 118.272 1225.45 122.537 1226.85 126.356C1228.25 130.048 1230.48 132.976 1233.54 135.14C1236.59 137.177 1240.54 138.195 1245.38 138.195C1252.12 138.195 1257.22 136.668 1260.65 133.612C1264.09 130.557 1265.81 126.674 1265.81 121.964C1265.81 118.908 1265.11 116.362 1263.71 114.325C1262.44 112.289 1260.08 110.315 1256.64 108.406C1253.33 106.369 1248.56 104.141 1242.32 101.722C1235.7 98.9215 1230.16 96.1207 1225.71 93.32C1221.38 90.5193 1218.13 87.273 1215.97 83.5811C1213.8 79.8892 1212.72 75.2426 1212.72 69.6411C1212.72 60.6024 1216.1 53.7279 1222.84 49.0176C1229.72 44.18 1238.76 41.7612 1249.96 41.7612C1256.58 41.7612 1262.05 42.5886 1266.38 44.2436C1270.84 45.8986 1274.08 48.0628 1276.12 50.7362C1278.29 53.4096 1279.37 56.274 1279.37 59.3293C1279.37 63.0212 1278.09 65.9493 1275.55 68.1134C1273 70.2776 1269.18 71.3597 1264.09 71.3597C1264.09 64.9945 1262.69 60.0295 1259.89 56.465C1257.22 52.9004 1253.08 51.1181 1247.48 51.1181C1243.66 51.1181 1240.41 51.7547 1237.74 53.0277C1235.19 54.1735 1233.28 55.8284 1232.01 57.9926C1230.74 60.0295 1230.1 62.512 1230.1 65.44C1230.1 68.4954 1230.86 71.1051 1232.39 73.2693C1234.05 75.4335 1236.66 77.4704 1240.22 79.38C1243.79 81.1623 1248.56 83.1992 1254.54 85.4907C1261.04 88.0368 1266.38 90.7102 1270.58 93.511C1274.78 96.3117 1277.9 99.6216 1279.94 103.441C1282.1 107.133 1283.19 111.652 1283.19 116.999C1283.19 127.056 1279.69 134.758 1272.68 140.105C1265.81 145.324 1256.45 147.934 1244.61 147.934Z" fill="#222222"/>
<path d="M481.782 270.966C474.397 270.966 468.168 269.25 463.096 265.819C458.024 262.388 454.182 257.614 451.571 251.497C449.035 245.306 447.767 238.07 447.767 229.791C447.767 221.735 449.11 214.648 451.795 208.532C454.555 202.34 458.583 197.529 463.879 194.098C469.25 190.592 475.852 188.839 483.684 188.839C488.756 188.839 492.971 189.398 496.327 190.517C499.684 191.562 502.183 193.053 503.824 194.993C505.465 196.858 506.286 198.984 506.286 201.371C506.286 203.758 505.353 205.66 503.488 207.077C501.623 208.494 499.311 209.203 496.551 209.203C496.551 206.89 496.141 204.653 495.32 202.489C494.5 200.252 493.12 198.424 491.18 197.007C489.316 195.515 486.742 194.769 483.46 194.769C477.866 194.769 473.353 196.149 469.921 198.909C466.49 201.594 463.991 205.548 462.425 210.769C460.933 215.991 460.187 222.331 460.187 229.791C460.187 236.429 460.97 242.322 462.537 247.469C464.178 252.542 466.714 256.495 470.145 259.33C473.576 262.164 478.015 263.581 483.46 263.581C487.115 263.581 490.211 263.134 492.747 262.239C495.283 261.343 497.409 260.187 499.125 258.77C500.915 257.278 502.444 255.712 503.712 254.071C504.309 254.444 504.794 255.003 505.167 255.749C505.614 256.42 505.838 257.315 505.838 258.434C505.838 259.852 505.353 261.306 504.383 262.798C503.414 264.215 501.959 265.558 500.02 266.826C498.08 268.02 495.581 269.027 492.523 269.847C489.539 270.593 485.959 270.966 481.782 270.966Z" fill="#555555"/>
<path d="M510.119 269.847V265.148H512.245C513.736 265.148 514.93 264.924 515.825 264.476C516.72 264.029 517.541 263.171 518.287 261.903C519.033 260.635 519.853 258.807 520.748 256.42L545.588 189.958H554.315L579.602 259.218C580.199 260.784 580.833 262.015 581.504 262.91C582.176 263.73 582.996 264.327 583.966 264.7C584.936 264.999 586.129 265.148 587.546 265.148H589.001V269.847H558.231V265.148H560.805C563.043 265.148 564.721 264.738 565.84 263.917C566.959 263.022 567.518 261.642 567.518 259.777C567.518 259.33 567.481 258.919 567.406 258.546C567.332 258.099 567.22 257.651 567.071 257.204C566.996 256.681 566.847 256.159 566.623 255.637L562.147 243.105H532.72L528.469 254.854C528.245 255.451 528.058 256.047 527.909 256.644C527.76 257.241 527.648 257.8 527.573 258.322C527.499 258.77 527.462 259.218 527.462 259.665C527.462 261.53 528.058 262.91 529.252 263.805C530.52 264.7 532.385 265.148 534.846 265.148H537.42V269.847H510.119ZM534.846 237.511H560.133L553.196 217.93C552.45 215.692 551.704 213.567 550.958 211.553C550.287 209.539 549.653 207.599 549.056 205.734C548.534 203.869 548.049 202.042 547.602 200.252C547.303 201.594 546.968 202.9 546.595 204.168C546.296 205.436 545.923 206.741 545.476 208.084C545.103 209.352 544.655 210.732 544.133 212.224C543.686 213.641 543.126 215.208 542.455 216.923L534.846 237.511Z" fill="#555555"/>
<path d="M593.262 269.847V265.148H594.716C596.432 265.148 597.961 264.961 599.304 264.588C600.721 264.215 601.84 263.469 602.66 262.351C603.481 261.157 603.891 259.404 603.891 257.092V202.266C603.891 200.028 603.444 198.387 602.548 197.343C601.728 196.224 600.609 195.515 599.192 195.217C597.849 194.844 596.357 194.657 594.716 194.657H593.262V189.958H624.703C634.101 189.958 641.039 192.046 645.514 196.224C649.99 200.326 652.227 206.033 652.227 213.343C652.227 216.699 651.705 219.907 650.661 222.965C649.617 225.949 647.901 228.634 645.514 231.021C643.202 233.408 640.106 235.31 636.227 236.728C632.423 238.07 627.761 238.742 622.241 238.742H615.192V257.651C615.192 259.814 615.602 261.455 616.423 262.574C617.318 263.619 618.437 264.327 619.779 264.7C621.197 264.999 622.726 265.148 624.367 265.148H628.059V269.847H593.262ZM621.122 233.483C624.479 233.483 627.351 233.147 629.738 232.476C632.199 231.73 634.176 230.574 635.668 229.007C637.234 227.441 638.353 225.427 639.024 222.965C639.77 220.429 640.143 217.371 640.143 213.79C640.143 209.613 639.584 206.182 638.465 203.496C637.346 200.737 635.519 198.685 632.982 197.343C630.446 196 627.052 195.329 622.8 195.329H615.192V233.483H621.122Z" fill="#555555"/>
<path d="M660.789 269.847V265.148H662.243C663.959 265.148 665.488 264.961 666.831 264.588C668.248 264.215 669.367 263.469 670.188 262.351C671.008 261.157 671.418 259.404 671.418 257.092V202.713C671.418 200.326 671.008 198.573 670.188 197.454C669.367 196.336 668.248 195.59 666.831 195.217C665.488 194.844 663.959 194.657 662.243 194.657H660.789V189.958H693.349V194.657H691.894C690.253 194.657 688.724 194.844 687.307 195.217C685.889 195.59 684.771 196.336 683.95 197.454C683.129 198.573 682.719 200.326 682.719 202.713V257.092C682.719 259.404 683.129 261.157 683.95 262.351C684.771 263.469 685.889 264.215 687.307 264.588C688.724 264.961 690.253 265.148 691.894 265.148H693.349V269.847H660.789Z" fill="#555555"/>
<path d="M714.405 269.847V265.148H716.978C718.62 265.148 720.111 264.999 721.454 264.7C722.871 264.327 723.99 263.619 724.811 262.574C725.706 261.455 726.153 259.814 726.153 257.651V195.552H715.412C713.249 195.552 711.533 196 710.265 196.895C708.997 197.715 708.065 198.834 707.468 200.252C706.871 201.594 706.461 203.086 706.237 204.727L705.678 209.539H699.859L700.419 189.958H763.413L763.972 209.539H758.154L757.595 204.727C757.445 203.086 757.035 201.594 756.364 200.252C755.767 198.834 754.835 197.715 753.567 196.895C752.298 196 750.545 195.552 748.308 195.552H737.454V257.092C737.454 259.404 737.865 261.157 738.685 262.351C739.506 263.469 740.625 264.215 742.042 264.588C743.459 264.961 744.988 265.148 746.629 265.148H749.203V269.847H714.405Z" fill="#555555"/>
<path d="M759.576 269.847V265.148H761.702C763.194 265.148 764.387 264.924 765.283 264.476C766.178 264.029 766.998 263.171 767.744 261.903C768.49 260.635 769.311 258.807 770.206 256.42L795.045 189.958H803.773L829.06 259.218C829.657 260.784 830.291 262.015 830.962 262.91C831.633 263.73 832.454 264.327 833.423 264.7C834.393 264.999 835.587 265.148 837.004 265.148H838.459V269.847H807.689V265.148H810.262C812.5 265.148 814.178 264.738 815.297 263.917C816.416 263.022 816.976 261.642 816.976 259.777C816.976 259.33 816.938 258.919 816.864 258.546C816.789 258.099 816.677 257.651 816.528 257.204C816.454 256.681 816.304 256.159 816.081 255.637L811.605 243.105H782.178L777.926 254.854C777.702 255.451 777.516 256.047 777.367 256.644C777.218 257.241 777.106 257.8 777.031 258.322C776.956 258.77 776.919 259.218 776.919 259.665C776.919 261.53 777.516 262.91 778.709 263.805C779.977 264.7 781.842 265.148 784.304 265.148H786.877V269.847H759.576ZM784.304 237.511H809.591L802.654 217.93C801.908 215.692 801.162 213.567 800.416 211.553C799.745 209.539 799.111 207.599 798.514 205.734C797.992 203.869 797.507 202.042 797.059 200.252C796.761 201.594 796.425 202.9 796.052 204.168C795.754 205.436 795.381 206.741 794.933 208.084C794.56 209.352 794.113 210.732 793.591 212.224C793.143 213.641 792.584 215.208 791.912 216.923L784.304 237.511Z" fill="#555555"/>
<path d="M842.719 269.847V265.148H844.174C845.889 265.148 847.418 264.961 848.761 264.588C850.178 264.215 851.297 263.469 852.118 262.351C852.938 261.157 853.349 259.404 853.349 257.092V202.713C853.349 200.326 852.938 198.573 852.118 197.454C851.297 196.336 850.178 195.59 848.761 195.217C847.418 194.844 845.889 194.657 844.174 194.657H842.719V189.958H875.279V194.657H873.824C872.183 194.657 870.654 194.844 869.237 195.217C867.894 195.515 866.775 196.224 865.88 197.343C865.06 198.387 864.649 200.028 864.649 202.266V264.253H886.692C888.93 264.253 890.72 263.768 892.062 262.798C893.48 261.754 894.524 260.448 895.195 258.882C895.867 257.315 896.314 255.749 896.538 254.183L897.657 245.791H903.475L902.692 269.847H842.719Z" fill="#555555"/>
</svg>
