<svg width="751" height="167" viewBox="0 0 751 167" fill="none" xmlns="http://www.w3.org/2000/svg">
<g clip-path="url(#clip0_222_4633)">
<path fill-rule="evenodd" clip-rule="evenodd" d="M5.17109 161.85C8.41412 164.977 12.6996 166.54 18.0274 166.54C24.2818 166.54 30.0729 164.687 35.4008 160.981C40.7286 157.275 45.5352 152.352 49.8207 146.214C54.2219 140.075 58.1599 133.357 61.6346 126.06C65.2251 118.648 68.3523 111.235 71.0162 103.823C73.7959 96.2941 76.1703 89.4027 78.1393 83.1483C80.2241 76.778 81.9614 71.6239 83.3513 67.686C85.8994 60.505 88.1579 54.5401 90.1269 49.7914C92.0959 44.9269 93.949 40.931 95.6864 37.8038C97.0625 35.235 98.4749 32.9933 99.9237 31.0785C99.9246 38.5414 100.144 48.2461 100.722 57.2619C101.301 66.2961 101.591 75.0407 101.591 83.4957C101.591 91.835 101.243 99.2476 100.548 105.734C99.969 112.22 98.8687 116.447 97.2472 118.416C100.954 120.154 104.254 121.022 107.15 121.022C109.119 121.022 110.741 120.733 112.015 120.154C113.404 119.459 114.91 118.185 116.532 116.331C118.269 114.362 120.585 111.467 123.481 107.645C128.809 100.811 133.963 94.1514 138.943 87.6653C144.04 81.0635 149.309 74.4037 154.753 67.686C160.313 60.8524 166.451 53.6714 173.169 46.143C174.79 44.2898 176.354 42.6104 177.86 41.1047C179.481 39.599 181.045 38.1512 182.551 36.7614C180.002 41.6259 176.991 47.4749 173.516 54.3085C170.158 61.142 166.741 68.323 163.266 75.8515C159.907 83.2641 156.838 90.3872 154.058 97.2207C151.394 104.054 149.541 109.961 148.499 114.942C147.572 118.995 147.109 122.644 147.109 125.887C147.109 129.477 147.92 132.489 149.541 134.921C151.163 137.237 154.232 138.396 158.749 138.396C162.803 138.396 167.088 137.585 171.605 135.963C176.122 134.342 179.481 132.373 181.682 130.056C181.913 129.825 181.971 129.535 181.856 129.188C181.74 128.724 181.566 128.493 181.334 128.493H181.161C178.497 129.998 176.238 130.751 174.385 130.751C172.069 130.751 170.447 129.825 169.52 127.972C168.71 126.003 168.304 123.744 168.304 121.196C168.304 119.111 168.478 117.142 168.826 115.289C169.984 109.15 171.779 102.491 174.211 95.3096C176.644 88.1286 179.423 80.8897 182.551 73.5929C185.678 66.2961 188.747 59.5205 191.758 53.2661C193.843 49.0965 196.218 44.4636 198.881 39.3674C201.661 34.2712 204.499 29.5225 207.394 25.1212C210.29 20.72 212.954 17.5927 215.386 15.7396H204.615C200.561 15.7396 196.507 16.3766 192.453 17.6507C188.4 18.8089 185.041 20.8937 182.377 23.9051C180.871 25.7582 178.555 28.538 175.427 32.2443C172.416 35.8348 168.883 40.0623 164.83 44.9268C160.776 49.7914 156.548 54.8876 152.147 60.2154C147.746 65.5433 143.403 70.8711 139.117 76.1989C134.832 81.4109 130.836 86.2755 127.129 90.7925C123.539 95.1938 120.528 98.9001 118.095 101.912C118.327 100.174 118.443 98.3789 118.443 96.5258C118.559 94.5568 118.616 92.8195 118.616 91.3138C118.616 89.6922 118.559 88.3603 118.443 87.3179V85.2331C118.327 80.9476 118.153 75.8514 117.922 69.9445C117.69 64.0376 117.4 58.0727 117.053 52.0499C116.958 49.5893 116.834 47.1517 116.71 44.7235C116.224 35.187 115.745 25.7967 117.1 15.7396H77.7918H69.6263C64.2985 15.7396 59.2602 16.2029 54.5115 17.1295C49.7627 17.9402 45.4773 20.3146 41.6552 24.2525C40.0337 25.8741 38.4121 27.843 36.7906 30.1595C35.2849 32.4759 34.0109 35.1399 32.9685 38.1512C32.7368 38.8462 32.621 39.3674 32.621 39.7148C32.621 41.3364 33.1422 42.1471 34.1846 42.1471C34.5321 42.1471 34.7637 41.9734 34.8796 41.6259C35.922 38.6145 38.4121 35.8927 42.3501 33.4604C46.4039 30.9123 51.1526 28.7117 56.5963 26.8586C62.0399 25.0054 67.3678 23.6734 72.5798 22.8627C73.738 22.631 75.3016 22.5152 77.2706 22.5152C79.3554 22.3994 81.6139 22.3415 84.0462 22.3415C86.9418 22.3415 89.8373 22.4573 92.7329 22.6889C95.7443 22.8048 98.1765 23.1522 100.03 23.7313C97.1341 24.7737 94.1228 27.206 90.9955 31.0282C87.8683 34.7345 84.7991 39.1357 81.7877 44.2319C78.8921 49.2123 76.2282 54.1927 73.7959 59.173C71.4795 64.1534 69.6263 68.3809 68.2364 71.8556C67.4257 74.0562 66.1516 77.1834 64.4143 81.2372C62.677 85.1752 60.6501 89.6922 58.3336 94.7884C56.133 99.7688 53.6428 104.923 50.8631 110.251C48.1992 115.463 45.3615 120.501 42.3501 125.366C39.4545 130.23 36.559 134.458 33.6634 138.048C31.5786 140.596 29.0305 142.913 26.0191 144.997C23.1236 147.082 19.9385 148.125 16.4638 148.125C14.2632 148.125 12.2942 147.43 10.5568 146.04C8.8195 144.65 7.95083 142.16 7.95083 138.569V137.527C5.86603 137.759 4.24451 138.627 3.08629 140.133C1.92806 141.754 1.17521 143.492 0.827747 145.345C0.364457 147.198 0.132812 148.646 0.132812 149.688C0.132812 154.784 1.81224 158.838 5.17109 161.85Z" fill="white"/>
<path d="M261.588 86V80.9721H263.935C265.424 80.9721 266.765 80.8232 267.957 80.5252C269.223 80.1528 270.229 79.4452 270.974 78.4023C271.793 77.3595 272.203 75.7953 272.203 73.7097V18.6267C272.203 16.4666 271.793 14.8651 270.974 13.8223C270.229 12.7795 269.223 12.1091 267.957 11.8111C266.765 11.4387 265.424 11.2525 263.935 11.2525H261.588V6.22462H288.962L310.75 67.341L332.314 6.22462H359.017V11.2525H356.671C355.181 11.2525 353.803 11.4387 352.537 11.8111C351.27 12.1836 350.265 12.9284 349.52 14.0457C348.775 15.0886 348.403 16.7645 348.403 19.0736V73.151C348.403 75.3856 348.775 77.0616 349.52 78.1789C350.265 79.2962 351.27 80.0411 352.537 80.4135C353.803 80.7859 355.181 80.9721 356.671 80.9721H359.017V86H327.621V80.9721H328.18C329.744 80.9721 331.085 80.8232 332.202 80.5252C333.394 80.1528 334.288 79.4824 334.883 78.5141C335.479 77.5457 335.814 76.0933 335.889 74.1566V15.3865L311.197 86H304.716L279.465 15.4982V73.151C279.465 75.3856 279.763 77.0616 280.359 78.1789C281.029 79.2962 281.961 80.0411 283.152 80.4135C284.419 80.7859 285.871 80.9721 287.51 80.9721H287.957V86H261.588Z" fill="white"/>
<path d="M385.763 87.1173C382.486 87.1173 379.507 86.4842 376.825 85.2179C374.218 83.8771 372.17 81.9032 370.68 79.2962C369.19 76.6147 368.445 73.2255 368.445 69.1287C368.445 63.1698 370.531 58.7751 374.702 55.9446C378.873 53.0396 385.242 51.4381 393.808 51.1402L402.97 50.805V44.3246C402.97 41.6431 402.746 39.2968 402.299 37.2856C401.927 35.2745 401.07 33.7103 399.73 32.593C398.389 31.4012 396.341 30.8053 393.585 30.8053C390.977 30.8053 388.966 31.3267 387.551 32.3695C386.21 33.4123 385.279 34.8648 384.758 36.727C384.311 38.5147 384.087 40.6003 384.087 42.9839C380.512 42.9839 377.793 42.4625 375.931 41.4196C374.069 40.3023 373.138 38.4402 373.138 35.8331C373.138 33.1516 374.069 31.0287 375.931 29.4645C377.868 27.9003 380.4 26.7457 383.529 26.0009C386.732 25.256 390.233 24.8836 394.031 24.8836C401.108 24.8836 406.396 26.3361 409.897 29.2411C413.473 32.146 415.26 37.0994 415.26 44.1012V72.9276C415.26 75.0132 415.484 76.6519 415.931 77.8437C416.377 78.961 417.122 79.7804 418.165 80.3018C419.208 80.7487 420.549 80.9721 422.187 80.9721H422.523V86H405.875L403.975 76.9499H402.97C401.406 78.961 399.879 80.7487 398.389 82.3129C396.899 83.8026 395.186 84.9944 393.249 85.8883C391.313 86.7076 388.817 87.1173 385.763 87.1173ZM389.339 79.8548C392.169 79.8548 394.59 79.2589 396.601 78.0672C398.612 76.8009 400.177 75.0132 401.294 72.7041C402.411 70.395 402.97 67.7135 402.97 64.6595V55.8328L396.378 56.168C392.504 56.317 389.451 56.9501 387.216 58.0674C384.981 59.1103 383.38 60.6 382.412 62.5367C381.518 64.4733 381.071 66.8569 381.071 69.6874C381.071 71.922 381.369 73.8214 381.965 75.3856C382.56 76.8754 383.454 77.9927 384.646 78.7375C385.912 79.4824 387.477 79.8548 389.339 79.8548Z" fill="white"/>
<path d="M430.259 86V80.9721H430.594C432.307 80.9721 433.834 80.7859 435.175 80.4135C436.59 80.0411 437.671 79.2962 438.415 78.1789C439.235 76.9871 439.644 75.2367 439.644 72.9276V38.7381C439.644 36.5035 439.235 34.8648 438.415 33.822C437.596 32.7047 436.516 31.9971 435.175 31.6991C433.909 31.3267 432.456 31.1405 430.818 31.1405H430.483V26.1126H449.141L451.264 36.5035H451.823C452.791 34.2689 453.834 32.295 454.951 30.5818C456.143 28.7941 457.67 27.4161 459.532 26.4478C461.469 25.405 464.039 24.8836 467.242 24.8836C471.413 24.8836 474.504 25.6284 476.515 27.1182C478.527 28.6079 479.532 30.6935 479.532 33.3751C479.532 35.9821 478.601 38.105 476.739 39.7437C474.951 41.3079 472.083 42.09 468.136 42.09C468.136 40.0044 467.949 38.3284 467.577 37.0622C467.205 35.7214 466.609 34.7531 465.789 34.1572C464.97 33.4868 463.815 33.1516 462.326 33.1516C460.315 33.1516 458.601 33.9337 457.186 35.4979C455.845 37.0622 454.802 39.0361 454.058 41.4196C453.313 43.8032 452.754 46.2613 452.382 48.7938C452.084 51.3264 451.935 53.561 451.935 55.4977V73.4862C451.935 75.6463 452.344 77.285 453.164 78.4023C453.983 79.4452 455.026 80.1528 456.292 80.5252C457.633 80.8232 459.123 80.9721 460.761 80.9721H464.002V86H430.259Z" fill="white"/>
<path d="M508.174 87.1173C502.662 87.1173 498.566 85.851 495.884 83.3185C493.202 80.7114 491.862 76.1677 491.862 69.6874V32.8164H483.482V28.012C485.046 28.012 486.685 27.6768 488.398 27.0064C490.111 26.3361 491.564 25.3677 492.756 24.1015C494.022 22.8352 495.065 21.271 495.884 19.4088C496.703 17.4721 497.374 15.1258 497.895 12.3698H504.152V26.1126H518.677V32.8164H504.152V69.6874C504.152 73.3372 504.86 76.0188 506.275 77.732C507.765 79.4452 509.813 80.3018 512.42 80.3018C513.761 80.3018 514.99 80.2273 516.107 80.0783C517.299 79.9293 518.491 79.7431 519.683 79.5196V85.1062C518.714 85.5531 517.15 86 514.99 86.4469C512.83 86.8938 510.558 87.1173 508.174 87.1173Z" fill="white"/>
<path d="M524.62 86V80.9721H526.072C527.562 80.9721 528.977 80.8232 530.318 80.5252C531.659 80.1528 532.739 79.4452 533.558 78.4023C534.452 77.285 534.899 75.6836 534.899 73.5979V38.5147C534.899 36.3545 534.452 34.7531 533.558 33.7103C532.739 32.6674 531.659 31.9971 530.318 31.6991C528.977 31.3267 527.562 31.1405 526.072 31.1405H525.513V26.1126H547.189V73.151C547.189 75.3856 547.599 77.0616 548.418 78.1789C549.238 79.2962 550.318 80.0411 551.658 80.4135C553.074 80.7859 554.526 80.9721 556.016 80.9721H557.468V86H524.62ZM540.597 15.2748C538.511 15.2748 536.761 14.7161 535.346 13.5988C534.005 12.4815 533.335 10.6193 533.335 8.01231C533.335 5.33079 534.042 3.46861 535.457 2.4258C536.873 1.3085 538.586 0.749847 540.597 0.749847C542.534 0.749847 544.21 1.3085 545.625 2.4258C547.115 3.46861 547.859 5.33079 547.859 8.01231C547.859 10.6193 547.115 12.4815 545.625 13.5988C544.21 14.7161 542.534 15.2748 540.597 15.2748Z" fill="white"/>
<path d="M561.949 86V80.9721H562.619C564.332 80.9721 565.859 80.7859 567.2 80.4135C568.615 80.0411 569.696 79.2962 570.44 78.1789C571.26 76.9871 571.669 75.2739 571.669 73.0393V38.6264C571.669 36.4663 571.26 34.8648 570.44 33.822C569.696 32.7047 568.653 31.9971 567.312 31.6991C566.046 31.3267 564.593 31.1405 562.954 31.1405H562.508V26.1126H582.06L583.513 34.8276H584.071C585.636 31.9971 587.274 29.8742 588.988 28.4589C590.775 27.0437 592.675 26.1126 594.686 25.6657C596.771 25.1443 599.006 24.8836 601.39 24.8836C607.274 24.8836 611.855 26.634 615.132 30.1349C618.41 33.5613 620.049 39.0733 620.049 46.671V72.9276C620.049 75.2367 620.384 76.9871 621.054 78.1789C621.725 79.2962 622.656 80.0411 623.847 80.4135C625.114 80.7859 626.566 80.9721 628.205 80.9721H628.764V86H607.758V47.9C607.758 43.0584 606.902 39.334 605.188 36.727C603.55 34.0454 600.645 32.7047 596.474 32.7047C593.345 32.7047 590.85 33.524 588.988 35.1628C587.2 36.8015 585.896 38.9988 585.077 41.7548C584.332 44.5108 583.96 47.4531 583.96 50.5815V73.5979C583.96 75.6836 584.332 77.285 585.077 78.4023C585.896 79.4452 586.939 80.1528 588.205 80.5252C589.546 80.8232 591.036 80.9721 592.675 80.9721H593.122V86H561.949Z" fill="white"/>
<path d="M661.877 87.1173C655.992 87.1173 651.449 85.3669 648.246 81.866C645.117 78.3651 643.553 72.7786 643.553 65.1064V38.8498C643.553 36.6152 643.143 34.9765 642.324 33.9337C641.579 32.8164 640.536 32.0715 639.195 31.6991C637.929 31.3267 636.477 31.1405 634.838 31.1405H634.503V26.1126H655.843V63.8774C655.843 67.0803 656.141 69.8364 656.737 72.1455C657.407 74.4545 658.525 76.2422 660.089 77.5085C661.728 78.7003 663.925 79.2962 666.681 79.2962C669.661 79.2962 672.119 78.5513 674.055 77.0616C675.992 75.5718 677.407 73.4862 678.301 70.8047C679.195 68.1232 679.642 65.032 679.642 61.5311V38.9616C679.642 36.6525 679.232 34.9393 678.413 33.822C677.668 32.7047 676.625 31.9971 675.284 31.6991C673.944 31.3267 672.454 31.1405 670.815 31.1405H670.48V26.1126H691.932V73.5979C691.932 75.7581 692.305 77.3968 693.049 78.5141C693.869 79.5569 694.949 80.2273 696.29 80.5252C697.63 80.8232 699.083 80.9721 700.647 80.9721H701.094V86H682.1L680.424 77.285H679.865C678.748 79.2962 677.482 80.9721 676.066 82.3129C674.726 83.5792 673.31 84.5848 671.821 85.3296C670.331 86 668.729 86.4469 667.016 86.6704C665.378 86.9683 663.664 87.1173 661.877 87.1173Z" fill="white"/>
<path d="M727.859 87.1173C723.688 87.1173 720.15 86.6331 717.245 85.6648C714.34 84.6965 712.106 83.3185 710.541 81.5308C709.052 79.6686 708.307 77.4713 708.307 74.9387C708.307 72.7786 708.754 71.1399 709.647 70.0226C710.616 68.9053 711.696 68.1232 712.888 67.6762C714.154 67.2293 715.271 67.0059 716.24 67.0059C716.24 69.7619 716.649 72.2572 717.469 74.4918C718.288 76.6519 719.591 78.3651 721.379 79.6314C723.167 80.8232 725.476 81.4191 728.306 81.4191C732.254 81.4191 735.234 80.5252 737.245 78.7375C739.256 76.9499 740.262 74.678 740.262 71.922C740.262 70.1343 739.852 68.6446 739.033 67.4528C738.288 66.261 736.91 65.1064 734.898 63.9891C732.962 62.7974 730.169 61.4938 726.519 60.0786C722.645 58.4399 719.405 56.8012 716.798 55.1625C714.266 53.5237 712.366 51.6243 711.1 49.4642C709.834 47.3041 709.201 44.5853 709.201 41.3079C709.201 36.0194 711.174 31.9971 715.122 29.2411C719.145 26.4106 724.433 24.9953 730.988 24.9953C734.861 24.9953 738.064 25.4795 740.597 26.4478C743.204 27.4161 745.103 28.6824 746.295 30.2466C747.561 31.8108 748.194 33.4868 748.194 35.2745C748.194 37.4346 747.45 39.1478 745.96 40.4141C744.47 41.6803 742.235 42.3135 739.256 42.3135C739.256 38.5891 738.437 35.6842 736.798 33.5985C735.234 31.5129 732.813 30.4701 729.535 30.4701C727.301 30.4701 725.401 30.8425 723.837 31.5874C722.347 32.2578 721.23 33.2261 720.485 34.4924C719.74 35.6842 719.368 37.1366 719.368 38.8498C719.368 40.6375 719.815 42.1645 720.709 43.4308C721.677 44.6971 723.204 45.8888 725.29 47.0062C727.375 48.049 730.169 49.2408 733.669 50.5815C737.468 52.0713 740.597 53.6355 743.055 55.2742C745.513 56.9129 747.338 58.8496 748.53 61.0842C749.796 63.2443 750.429 65.8886 750.429 69.017C750.429 74.9015 748.381 79.4079 744.284 82.5364C740.262 85.5903 734.787 87.1173 727.859 87.1173Z" fill="white"/>
<path d="M281.526 159.103C277.205 159.103 273.561 158.1 270.593 156.092C267.625 154.084 265.377 151.291 263.85 147.712C262.366 144.09 261.624 139.856 261.624 135.012C261.624 130.298 262.409 126.152 263.981 122.573C265.595 118.95 267.952 116.135 271.051 114.128C274.193 112.076 278.056 111.051 282.639 111.051C285.607 111.051 288.072 111.378 290.036 112.033C292 112.644 293.463 113.517 294.423 114.651C295.383 115.743 295.863 116.986 295.863 118.383C295.863 119.78 295.317 120.893 294.226 121.722C293.135 122.551 291.782 122.966 290.167 122.966C290.167 121.613 289.927 120.303 289.447 119.038C288.967 117.728 288.16 116.659 287.025 115.83C285.934 114.957 284.428 114.52 282.508 114.52C279.234 114.52 276.594 115.328 274.586 116.943C272.579 118.514 271.117 120.827 270.2 123.882C269.327 126.937 268.891 130.647 268.891 135.012C268.891 138.896 269.349 142.344 270.265 145.355C271.226 148.323 272.71 150.636 274.717 152.295C276.725 153.953 279.322 154.783 282.508 154.783C284.646 154.783 286.458 154.521 287.942 153.997C289.425 153.473 290.669 152.797 291.673 151.968C292.721 151.095 293.615 150.178 294.357 149.218C294.706 149.436 294.99 149.763 295.208 150.2C295.47 150.593 295.601 151.116 295.601 151.771C295.601 152.6 295.317 153.451 294.75 154.324C294.183 155.154 293.332 155.939 292.197 156.681C291.062 157.379 289.6 157.969 287.811 158.449C286.065 158.885 283.97 159.103 281.526 159.103Z" fill="#DDDDDD"/>
<path d="M298.106 158.449V155.699H299.35C300.223 155.699 300.921 155.568 301.445 155.306C301.968 155.044 302.448 154.543 302.885 153.801C303.321 153.059 303.801 151.989 304.325 150.593L318.859 111.705H323.965L338.761 152.229C339.11 153.146 339.481 153.866 339.874 154.39C340.266 154.87 340.747 155.219 341.314 155.437C341.881 155.612 342.58 155.699 343.409 155.699H344.26V158.449H326.257V155.699H327.762C329.072 155.699 330.054 155.459 330.708 154.979C331.363 154.455 331.69 153.648 331.69 152.557C331.69 152.295 331.668 152.055 331.625 151.837C331.581 151.575 331.516 151.313 331.428 151.051C331.385 150.745 331.297 150.44 331.167 150.134L328.548 142.802H311.33L308.842 149.676C308.711 150.025 308.602 150.375 308.515 150.724C308.428 151.073 308.362 151.4 308.319 151.706C308.275 151.968 308.253 152.229 308.253 152.491C308.253 153.582 308.602 154.39 309.301 154.914C310.043 155.437 311.134 155.699 312.574 155.699H314.08V158.449H298.106ZM312.574 139.529H327.369L323.311 128.072C322.874 126.763 322.438 125.519 322.001 124.34C321.608 123.162 321.237 122.027 320.888 120.936C320.583 119.845 320.299 118.776 320.037 117.728C319.863 118.514 319.666 119.278 319.448 120.02C319.273 120.762 319.055 121.525 318.793 122.311C318.575 123.053 318.313 123.86 318.008 124.733C317.746 125.563 317.419 126.479 317.026 127.483L312.574 139.529Z" fill="#DDDDDD"/>
<path d="M346.753 158.449V155.699H347.604C348.608 155.699 349.502 155.59 350.288 155.372C351.117 155.154 351.772 154.717 352.252 154.062C352.732 153.364 352.972 152.339 352.972 150.986V118.907C352.972 117.597 352.71 116.637 352.187 116.026C351.706 115.372 351.052 114.957 350.223 114.782C349.437 114.564 348.564 114.455 347.604 114.455H346.753V111.705H365.149C370.648 111.705 374.707 112.927 377.326 115.372C379.945 117.772 381.254 121.111 381.254 125.388C381.254 127.352 380.948 129.229 380.337 131.018C379.726 132.764 378.722 134.335 377.326 135.732C375.973 137.128 374.162 138.241 371.892 139.071C369.666 139.856 366.938 140.249 363.709 140.249H359.584V151.313C359.584 152.579 359.824 153.539 360.304 154.193C360.828 154.804 361.483 155.219 362.268 155.437C363.098 155.612 363.992 155.699 364.953 155.699H367.113V158.449H346.753ZM363.054 137.172C365.018 137.172 366.698 136.976 368.095 136.583C369.535 136.146 370.692 135.47 371.565 134.553C372.481 133.637 373.136 132.458 373.529 131.018C373.965 129.534 374.183 127.745 374.183 125.65C374.183 123.206 373.856 121.198 373.201 119.627C372.547 118.012 371.477 116.812 369.994 116.026C368.51 115.241 366.524 114.848 364.036 114.848H359.584V137.172H363.054Z" fill="#DDDDDD"/>
<path d="M386.263 158.449V155.699H387.114C388.118 155.699 389.013 155.59 389.798 155.372C390.628 155.154 391.282 154.717 391.762 154.062C392.242 153.364 392.482 152.339 392.482 150.986V119.169C392.482 117.772 392.242 116.746 391.762 116.092C391.282 115.437 390.628 115.001 389.798 114.782C389.013 114.564 388.118 114.455 387.114 114.455H386.263V111.705H405.314V114.455H404.463C403.503 114.455 402.608 114.564 401.779 114.782C400.95 115.001 400.295 115.437 399.815 116.092C399.335 116.746 399.095 117.772 399.095 119.169V150.986C399.095 152.339 399.335 153.364 399.815 154.062C400.295 154.717 400.95 155.154 401.779 155.372C402.608 155.59 403.503 155.699 404.463 155.699H405.314V158.449H386.263Z" fill="#DDDDDD"/>
<path d="M417.634 158.449V155.699H419.14C420.1 155.699 420.973 155.612 421.758 155.437C422.588 155.219 423.242 154.804 423.722 154.193C424.246 153.539 424.508 152.579 424.508 151.313V114.979H418.223C416.958 114.979 415.954 115.241 415.212 115.764C414.47 116.244 413.924 116.899 413.575 117.728C413.226 118.514 412.986 119.387 412.855 120.347L412.528 123.162H409.123L409.451 111.705H446.309L446.636 123.162H443.232L442.904 120.347C442.817 119.387 442.577 118.514 442.184 117.728C441.835 116.899 441.289 116.244 440.547 115.764C439.806 115.241 438.78 114.979 437.471 114.979H431.12V150.986C431.12 152.339 431.36 153.364 431.84 154.062C432.32 154.717 432.975 155.154 433.804 155.372C434.634 155.59 435.528 155.699 436.489 155.699H437.994V158.449H417.634Z" fill="#DDDDDD"/>
<path d="M444.064 158.449V155.699H445.308C446.181 155.699 446.879 155.568 447.403 155.306C447.926 155.044 448.406 154.543 448.843 153.801C449.279 153.059 449.759 151.989 450.283 150.593L464.817 111.705H469.923L484.719 152.229C485.068 153.146 485.439 153.866 485.832 154.39C486.224 154.87 486.705 155.219 487.272 155.437C487.839 155.612 488.538 155.699 489.367 155.699H490.218V158.449H472.215V155.699H473.72C475.03 155.699 476.012 155.459 476.666 154.979C477.321 154.455 477.648 153.648 477.648 152.557C477.648 152.295 477.626 152.055 477.583 151.837C477.539 151.575 477.474 151.313 477.386 151.051C477.343 150.745 477.255 150.44 477.125 150.134L474.506 142.802H457.288L454.8 149.676C454.669 150.025 454.56 150.375 454.473 150.724C454.386 151.073 454.32 151.4 454.277 151.706C454.233 151.968 454.211 152.229 454.211 152.491C454.211 153.582 454.56 154.39 455.259 154.914C456.001 155.437 457.092 155.699 458.532 155.699H460.038V158.449H444.064ZM458.532 139.529H473.327L469.269 128.072C468.832 126.763 468.396 125.519 467.959 124.34C467.566 123.162 467.195 122.027 466.846 120.936C466.541 119.845 466.257 118.776 465.995 117.728C465.821 118.514 465.624 119.278 465.406 120.02C465.231 120.762 465.013 121.525 464.751 122.311C464.533 123.053 464.271 123.86 463.966 124.733C463.704 125.563 463.377 126.479 462.984 127.483L458.532 139.529Z" fill="#DDDDDD"/>
<path d="M492.711 158.449V155.699H493.562C494.566 155.699 495.46 155.59 496.246 155.372C497.075 155.154 497.73 154.717 498.21 154.062C498.69 153.364 498.93 152.339 498.93 150.986V119.169C498.93 117.772 498.69 116.746 498.21 116.092C497.73 115.437 497.075 115.001 496.246 114.782C495.46 114.564 494.566 114.455 493.562 114.455H492.711V111.705H511.762V114.455H510.911C509.95 114.455 509.056 114.564 508.226 114.782C507.441 114.957 506.786 115.372 506.262 116.026C505.782 116.637 505.542 117.597 505.542 118.907V155.175H518.439C519.749 155.175 520.796 154.892 521.582 154.324C522.411 153.713 523.022 152.95 523.415 152.033C523.808 151.116 524.069 150.2 524.2 149.283L524.855 144.373H528.259L527.801 158.449H492.711Z" fill="#DDDDDD"/>
</g>
<defs>
<clipPath id="clip0_222_4633">
<rect width="750.296" height="165.791" fill="white" transform="translate(0.132812 0.749847)"/>
</clipPath>
</defs>
</svg>
