<svg xmlns="http://www.w3.org/2000/svg" width="582.57" height="159.021" viewBox="0 0 582.57 159.021">
  <g id="Grupo_3300" data-name="Grupo 3300" transform="translate(-920.938 -248.535)">
    <g id="Group_1_4_" transform="translate(922 249.535)">
      <g id="Group_2559_4_">
        <path id="Path_3329_8_" d="M519.482,428.021H18.963c-13.558,0-21.692-11.093-17.995-24.65L29.686,295.65C33.383,282.093,47.311,271,60.991,271H561.634c13.558,0,21.692,11.092,17.995,24.65L550.788,403.371C547.09,417.052,533.163,428.021,519.482,428.021Z" transform="translate(-0.076 -271)" fill="#203675" stroke="#fff" stroke-width="2"/>
        <path id="Path_3330_4_" d="M170.269,321.919v-.246l2.958-11.709a9.094,9.094,0,0,1,9-6.9h13.557c2.712,0,4.191.616,5.423,1.849a5.681,5.681,0,0,1,.616,5.053L192.454,344.6c-.863,2.958-1.849,4.807-2.958,5.67a11.166,11.166,0,0,1-6.286,1.479H168.42l-2.711,9.613h13.8c12.078,0,19.6-6.039,22.555-17.748l9-33.154c1.479-5.053,1.232-9.367-.863-12.695-2.1-2.958-6.039-4.56-12.079-4.56H184.566a21.413,21.413,0,0,0-13.8,4.56c-3.574,2.958-6.286,7.518-8.135,14.174L159.3,324.26Z" transform="translate(36.944 -265.84)" fill="#009fe3"/>
        <path id="Path_3331_4_" d="M189.573,360.34v.247L186.615,372.3a9.093,9.093,0,0,1-9,6.9H164.061c-2.711,0-4.19-.616-5.423-1.849a5.681,5.681,0,0,1-.616-5.053l9.367-34.264c.863-2.958,1.849-4.807,2.958-5.67a11.166,11.166,0,0,1,6.286-1.479h14.79l2.711-9.983h-13.8c-11.709,0-19.6,6.039-22.555,17.748l-9,33.154c-1.479,5.423-1.233,9.614.863,12.695,2.1,2.958,6.039,4.56,12.079,4.56h13.558a21.413,21.413,0,0,0,13.8-4.56c3.574-2.958,6.286-7.518,8.135-14.174L200.543,358Z" transform="translate(34.279 -259.398)" fill="#fff"/>
        <path id="Path_3332_4_" d="M109.434,316.883H81.086a7.865,7.865,0,0,0-4.56,1.849,10,10,0,0,0-3.574,5.67l-2.958,11.462h34.264l-2.711,9.614H67.282l-3.7,13.311c-.616,2.1,0,3.944,1.849,4.807,1.479.863,3.944,1.232,7.518,1.232H96.123l-2.711,9.614H67.529c-5.67,0-9.614-1.479-12.079-4.56-2.1-2.958-2.465-7.518-.863-13.558l8.751-32.538c1.479-5.423,4.191-9.983,8.135-12.695s9.367-4.191,15.9-4.191h24.4Z" transform="translate(12.367 -262.653)" fill="#fff"/>
        <path id="Path_3333_4_" d="M146.523,366.993a11.986,11.986,0,0,1-4.19,6.655,9.809,9.809,0,0,1-6.039,2.465,7.129,7.129,0,0,1-4.807-1.849,7.909,7.909,0,0,1-2.465-5.053L121.5,320.4l-14.79,54.847H97.1l15.653-58.421a17.459,17.459,0,0,1,4.191-7.518,9.465,9.465,0,0,1,6.286-2.712,7.13,7.13,0,0,1,4.807,1.849A7.909,7.909,0,0,1,130.5,313.5l6.9,49.67,15.037-55.956h9.614Z" transform="translate(22.483 -262.723)" fill="#fff"/>
        <path id="Path_3334_4_" d="M258.111,316.93H229.763a7.864,7.864,0,0,0-4.56,1.849,10,10,0,0,0-3.574,5.67l-2.958,11.462h34.264l-2.711,9.613H215.959l-3.574,13.311c-.616,2.1,0,3.944,1.479,4.807s3.944,1.233,7.518,1.233h23.541l-2.711,9.613H216.329c-5.67,0-9.614-1.479-12.079-4.56-2.1-2.958-2.465-7.518-.863-13.558l8.751-32.538c1.479-5.67,4.191-10.23,8.135-12.941s9.367-4.191,15.9-4.191h24.4Z" transform="translate(46.964 -262.7)" fill="#fff"/>
        <path id="Path_3335_4_" d="M289.48,374.688H264.214c-5.67,0-9.614-1.479-11.709-4.56-2.465-2.958-2.712-7.272-1.232-12.695L264.83,306.9h9.614l-13.558,50.9c-.616,2.711-.616,4.56.246,5.67.863,1.232,2.712,1.849,5.423,1.849h25.266Z" transform="translate(58.115 -262.653)" fill="#fff"/>
        <path id="Path_3336_4_" d="M304.614,374.688H295L313.118,306.9h9.613Z" transform="translate(68.495 -262.653)" fill="#fff"/>
        <path id="Path_3337_4_" d="M364.423,366.923a11.986,11.986,0,0,1-4.19,6.655,9.81,9.81,0,0,1-6.039,2.465,7.13,7.13,0,0,1-4.807-1.849,7.909,7.909,0,0,1-2.465-5.053L339.4,320.334l-14.79,54.847H315l15.653-58.051a17.458,17.458,0,0,1,4.191-7.518,9.465,9.465,0,0,1,6.286-2.712,7.13,7.13,0,0,1,4.807,1.849A7.909,7.909,0,0,1,348.4,313.8l6.9,49.67,15.036-55.956h9.613Z" transform="translate(73.145 -262.653)" fill="#fff"/>
        <path id="Path_3338_4_" d="M413.084,374.688H400.389L385.6,347.326a25.455,25.455,0,0,1-1.849-4.19,6.009,6.009,0,0,1,0-2.958c.616-1.849,2.711-4.56,6.655-8.135l26.745-25.02h12.325l-35.5,32.785Zm-39.07,0H364.4L382.518,306.9h9.613Z" transform="translate(84.63 -262.653)" fill="#fff"/>
      </g>
    </g>
  </g>
</svg>
