<svg width="96" height="71" viewBox="0 0 96 71" fill="none" xmlns="http://www.w3.org/2000/svg">
<path d="M27.6711 29.0058C28.3038 29.6159 29.1399 29.9209 30.1793 29.9209C31.3996 29.9209 32.5294 29.5594 33.5688 28.8363C34.6083 28.1132 35.5461 27.1528 36.3821 25.9552C37.2408 24.7576 38.0091 23.447 38.687 22.0234C39.3875 20.5772 39.9976 19.131 40.5173 17.6848C41.0597 16.216 41.5229 14.8715 41.907 13.6513C42.3138 12.4085 42.6527 11.4029 42.9239 10.6346C43.421 9.23363 43.8617 8.0699 44.2458 7.14344C44.6299 6.19437 44.9915 5.41479 45.3304 4.80468C45.5989 4.30352 45.8745 3.86616 46.1571 3.4926C46.1573 4.94859 46.2001 6.84195 46.3129 8.60092C46.4258 10.3635 46.4823 12.0695 46.4823 13.7191C46.4823 15.346 46.4145 16.7922 46.279 18.0577C46.166 19.3231 45.9513 20.1479 45.635 20.532C46.358 20.871 47.0021 21.0404 47.567 21.0404C47.9511 21.0404 48.2675 20.9839 48.516 20.871C48.7872 20.7354 49.081 20.4868 49.3973 20.1253C49.7363 19.7411 50.1882 19.1762 50.7531 18.4305C51.7926 17.0973 52.7981 15.798 53.7698 14.5326C54.764 13.2446 55.7922 11.9452 56.8542 10.6346C57.9389 9.30142 59.1365 7.90043 60.4471 6.43164C60.7635 6.07009 61.0685 5.74244 61.3623 5.44868C61.6786 5.15492 61.9837 4.87247 62.2774 4.6013C61.7803 5.55037 61.1928 6.6915 60.5149 8.02471C59.8596 9.35791 59.193 10.7589 58.5151 12.2277C57.8598 13.6739 57.261 15.0636 56.7187 16.3968C56.1989 17.73 55.8374 18.8824 55.634 19.8541C55.4532 20.645 55.3629 21.3568 55.3629 21.9895C55.3629 22.69 55.521 23.2775 55.8374 23.752C56.1537 24.204 56.7525 24.4299 57.6338 24.4299C58.4247 24.4299 59.2608 24.2718 60.1421 23.9554C61.0233 23.6391 61.6786 23.2549 62.108 22.803C62.1532 22.7578 62.1645 22.7013 62.1419 22.6335C62.1193 22.5431 62.0854 22.4979 62.0402 22.4979H62.0063C61.4866 22.7917 61.0459 22.9386 60.6844 22.9386C60.2324 22.9386 59.9161 22.7578 59.7353 22.3962C59.5771 22.0121 59.4981 21.5714 59.4981 21.0743C59.4981 20.6676 59.5319 20.2834 59.5997 19.9219C59.8257 18.7243 60.1759 17.4249 60.6505 16.024C61.125 14.623 61.6673 13.2107 62.2774 11.7871C62.8876 10.3635 63.4864 9.04156 64.0739 7.82134C64.4806 7.00786 64.9439 6.10399 65.4636 5.10973C66.0059 4.11547 66.5595 3.18901 67.1244 2.33033C67.6894 1.47166 68.2091 0.861547 68.6836 0.5H66.5821C65.7912 0.5 65.0004 0.624282 64.2095 0.872845C63.4186 1.09881 62.7633 1.50555 62.2435 2.09307C61.9498 2.45462 61.4979 2.99694 60.8877 3.72003C60.3002 4.42053 59.611 5.24531 58.8201 6.19437C58.0293 7.14344 57.2045 8.13769 56.3458 9.17714C55.4871 10.2166 54.6398 11.256 53.8037 12.2955C52.9676 13.3123 52.188 14.2614 51.4649 15.1427C50.7644 16.0014 50.1769 16.7244 49.7024 17.312C49.7476 16.973 49.7702 16.6228 49.7702 16.2612C49.7928 15.8771 49.804 15.5381 49.804 15.2444C49.804 14.928 49.7928 14.6681 49.7702 14.4648V14.058C49.7476 13.222 49.7137 12.2277 49.6685 11.0753C49.6233 9.92283 49.5668 8.7591 49.499 7.58407C49.4805 7.10401 49.4563 6.62843 49.4321 6.15469C49.3372 4.29414 49.2438 2.46212 49.5083 0.5H40.2462C39.2067 0.5 38.2238 0.590386 37.2973 0.771159C36.3708 0.929337 35.5348 1.39257 34.7891 2.16086C34.4727 2.47721 34.1564 2.86136 33.84 3.31329C33.5463 3.76523 33.2977 4.28495 33.0943 4.87247C33.0491 5.00805 33.0265 5.10973 33.0265 5.17752C33.0265 5.49388 33.1282 5.65205 33.3316 5.65205C33.3994 5.65205 33.4446 5.61816 33.4672 5.55037C33.6705 4.96285 34.1564 4.43183 34.9247 3.9573C35.7155 3.46017 36.642 3.03083 37.704 2.66929C38.7661 2.30774 39.8055 2.04788 40.8224 1.8897C41.0484 1.8445 41.3534 1.82191 41.7376 1.82191C42.1443 1.79931 42.5849 1.78801 43.0595 1.78801C43.6244 1.78801 44.1893 1.81061 44.7542 1.8558C45.3417 1.8784 45.8163 1.94619 46.1778 2.05917C45.6129 2.26255 45.0254 2.73708 44.4153 3.48277C43.8052 4.20586 43.2064 5.06454 42.6188 6.05879C42.0539 7.03045 41.5342 8.00211 41.0597 8.97377C40.6077 9.94543 40.2462 10.7702 39.975 11.4481C39.8168 11.8775 39.5683 12.4876 39.2293 13.2785C38.8904 14.0467 38.4949 14.928 38.043 15.9223C37.6137 16.8939 37.1278 17.8995 36.5855 18.9389C36.0658 19.9558 35.5122 20.9387 34.9247 21.8878C34.3597 22.8369 33.7948 23.6616 33.2299 24.3621C32.8232 24.8593 32.326 25.3112 31.7385 25.7179C31.1736 26.1247 30.5522 26.3281 29.8743 26.3281C29.4449 26.3281 29.0608 26.1925 28.7219 25.9213C28.3829 25.6502 28.2134 25.1643 28.2134 24.4638V24.2605C27.8067 24.3057 27.4903 24.4751 27.2644 24.7689C27.0384 25.0852 26.8915 25.4242 26.8237 25.7857C26.7333 26.1473 26.6882 26.4297 26.6882 26.6331C26.6882 27.6274 27.0158 28.4183 27.6711 29.0058Z" fill="#222222"/>
<path d="M0 56.2218V55.2409H0.457765C0.748409 55.2409 1.00999 55.2118 1.2425 55.1537C1.48955 55.081 1.68574 54.943 1.83106 54.7395C1.99091 54.5361 2.07084 54.2309 2.07084 53.824V43.0774C2.07084 42.656 1.99091 42.3435 1.83106 42.1401C1.68574 41.9366 1.48955 41.8058 1.2425 41.7477C1.00999 41.675 0.748409 41.6387 0.457765 41.6387H0V40.6578H5.34059L9.59126 52.5815L13.7983 40.6578H19.0081V41.6387H18.5504C18.2597 41.6387 17.9909 41.675 17.7438 41.7477C17.4968 41.8204 17.3006 41.9657 17.1553 42.1837C17.01 42.3871 16.9373 42.7141 16.9373 43.1646V53.715C16.9373 54.151 17.01 54.4779 17.1553 54.6959C17.3006 54.9139 17.4968 55.0592 17.7438 55.1319C17.9909 55.2045 18.2597 55.2409 18.5504 55.2409H19.0081V56.2218H12.8828V55.2409H12.9918C13.297 55.2409 13.5586 55.2118 13.7765 55.1537C14.0091 55.081 14.1834 54.9502 14.2997 54.7613C14.416 54.5724 14.4814 54.289 14.4959 53.9112V42.4452L9.67845 56.2218H8.41415L3.48773 42.467V53.715C3.48773 54.151 3.54586 54.4779 3.66212 54.6959C3.79291 54.9139 3.97456 55.0592 4.20708 55.1319C4.45412 55.2045 4.7375 55.2409 5.05721 55.2409H5.1444V56.2218H0Z" fill="#222222"/>
<path d="M24.2263 56.4398C23.5869 56.4398 23.0056 56.3163 22.4824 56.0692C21.9738 55.8076 21.5742 55.4225 21.2835 54.9139C20.9929 54.3907 20.8475 53.7295 20.8475 52.9303C20.8475 51.7677 21.2544 50.9103 22.0682 50.358C22.882 49.7913 24.1246 49.4788 25.7958 49.4207L27.5832 49.3553V48.091C27.5832 47.5679 27.5396 47.1101 27.4524 46.7177C27.3798 46.3254 27.2126 46.0202 26.9511 45.8022C26.6895 45.5697 26.2899 45.4534 25.7522 45.4534C25.2435 45.4534 24.8512 45.5551 24.5751 45.7586C24.3135 45.962 24.1318 46.2454 24.0301 46.6087C23.9429 46.9575 23.8993 47.3644 23.8993 47.8294C23.2018 47.8294 22.6713 47.7277 22.308 47.5243C21.9447 47.3063 21.7631 46.943 21.7631 46.4343C21.7631 45.9112 21.9447 45.497 22.308 45.1918C22.6859 44.8867 23.18 44.6614 23.7903 44.5161C24.4152 44.3708 25.0982 44.2981 25.8394 44.2981C27.2199 44.2981 28.2517 44.5815 28.9347 45.1482C29.6323 45.715 29.981 46.6814 29.981 48.0474V53.6714C29.981 54.0783 30.0246 54.398 30.1118 54.6305C30.199 54.8485 30.3443 55.0084 30.5478 55.1101C30.7512 55.1973 31.0128 55.2409 31.3325 55.2409H31.3979V56.2218H28.15L27.7794 54.4561H27.5832C27.278 54.8485 26.9801 55.1973 26.6895 55.5024C26.3988 55.7931 26.0646 56.0256 25.6868 56.2C25.3089 56.3599 24.8221 56.4398 24.2263 56.4398ZM24.9238 55.0229C25.4761 55.0229 25.9483 54.9066 26.3407 54.6741C26.7331 54.4271 27.0383 54.0783 27.2562 53.6278C27.4742 53.1773 27.5832 52.6541 27.5832 52.0583V50.3362L26.2971 50.4016C25.5414 50.4307 24.9456 50.5542 24.5097 50.7722C24.0737 50.9757 23.7612 51.2663 23.5723 51.6441C23.3979 52.022 23.3107 52.487 23.3107 53.0392C23.3107 53.4752 23.3689 53.8458 23.4851 54.151C23.6014 54.4416 23.7758 54.6596 24.0083 54.8049C24.2553 54.9502 24.5605 55.0229 24.9238 55.0229Z" fill="#222222"/>
<path d="M32.9073 56.2218V55.2409H32.9727C33.3069 55.2409 33.6048 55.2045 33.8664 55.1319C34.1425 55.0592 34.3532 54.9139 34.4986 54.6959C34.6584 54.4634 34.7383 54.1219 34.7383 53.6714V47.0011C34.7383 46.5651 34.6584 46.2454 34.4986 46.042C34.3387 45.824 34.128 45.6859 33.8664 45.6278C33.6194 45.5551 33.336 45.5188 33.0163 45.5188H32.9509V44.5379H36.5912L37.0054 46.5651H37.1144C37.3033 46.1292 37.5067 45.7441 37.7247 45.4098C37.9572 45.0611 38.2551 44.7922 38.6184 44.6033C38.9963 44.3998 39.4976 44.2981 40.1225 44.2981C40.9363 44.2981 41.5394 44.4434 41.9318 44.7341C42.3242 45.0247 42.5203 45.4316 42.5203 45.9548C42.5203 46.4634 42.3387 46.8776 41.9754 47.1973C41.6266 47.5025 41.0671 47.6551 40.2969 47.6551C40.2969 47.2481 40.2606 46.9212 40.1879 46.6741C40.1153 46.4125 39.999 46.2236 39.8392 46.1074C39.6793 45.9766 39.4541 45.9112 39.1634 45.9112C38.771 45.9112 38.4368 46.0638 38.1607 46.3689C37.8991 46.6741 37.6957 47.0592 37.5503 47.5243C37.405 47.9893 37.296 48.4689 37.2234 48.963C37.1652 49.457 37.1362 49.893 37.1362 50.2709V53.7804C37.1362 54.2018 37.2161 54.5215 37.3759 54.7395C37.5358 54.943 37.7393 55.081 37.9863 55.1537C38.2479 55.2118 38.5385 55.2409 38.8582 55.2409H39.4904V56.2218H32.9073Z" fill="#222222"/>
<path d="M48.1084 56.4398C47.033 56.4398 46.2337 56.1927 45.7106 55.6986C45.1874 55.19 44.9258 54.3035 44.9258 53.0392V45.8458H43.291V44.9085C43.5961 44.9085 43.9158 44.8431 44.2501 44.7123C44.5843 44.5815 44.8677 44.3926 45.1002 44.1455C45.3473 43.8985 45.5507 43.5933 45.7106 43.23C45.8704 42.8521 46.0012 42.3944 46.1029 41.8567H47.3236V44.5379H50.1574V45.8458H47.3236V53.0392C47.3236 53.7513 47.4617 54.2745 47.7378 54.6087C48.0285 54.943 48.4281 55.1101 48.9367 55.1101C49.1983 55.1101 49.4381 55.0955 49.6561 55.0665C49.8886 55.0374 50.1211 55.0011 50.3536 54.9575V56.0474C50.1647 56.1346 49.8595 56.2218 49.4381 56.309C49.0166 56.3962 48.5734 56.4398 48.1084 56.4398Z" fill="#222222"/>
<path d="M51.3168 56.2218V55.2409H51.6002C51.8908 55.2409 52.167 55.2118 52.4285 55.1537C52.6901 55.081 52.9008 54.943 53.0607 54.7395C53.2351 54.5215 53.3223 54.2091 53.3223 53.8022V46.9575C53.3223 46.5361 53.2351 46.2236 53.0607 46.0202C52.9008 45.8167 52.6901 45.6859 52.4285 45.6278C52.167 45.5551 51.8908 45.5188 51.6002 45.5188H51.4912V44.5379H55.7201V53.715C55.7201 54.151 55.8 54.4779 55.9599 54.6959C56.1197 54.9139 56.3304 55.0592 56.592 55.1319C56.8681 55.2045 57.1515 55.2409 57.4422 55.2409H57.7255V56.2218H51.3168ZM54.434 42.4235C54.0271 42.4235 53.6856 42.3145 53.4095 42.0965C53.1479 41.8785 53.0171 41.5152 53.0171 41.0066C53.0171 40.4834 53.1551 40.1201 53.4313 39.9166C53.7074 39.6987 54.0416 39.5897 54.434 39.5897C54.8118 39.5897 55.1388 39.6987 55.4149 39.9166C55.7056 40.1201 55.8509 40.4834 55.8509 41.0066C55.8509 41.5152 55.7056 41.8785 55.4149 42.0965C55.1388 42.3145 54.8118 42.4235 54.434 42.4235Z" fill="#222222"/>
<path d="M58.5997 56.2218V55.2409H58.7305C59.0647 55.2409 59.3626 55.2045 59.6242 55.1319C59.9003 55.0592 60.111 54.9139 60.2563 54.6959C60.4162 54.4634 60.4961 54.1292 60.4961 53.6932V46.9793C60.4961 46.5579 60.4162 46.2454 60.2563 46.042C60.111 45.824 59.9076 45.6859 59.646 45.6278C59.3989 45.5551 59.1156 45.5188 58.7959 45.5188H58.7087V44.5379H62.5234L62.8067 46.2382H62.9157C63.2209 45.6859 63.5406 45.2718 63.8749 44.9957C64.2236 44.7195 64.5942 44.5379 64.9866 44.4507C65.3935 44.349 65.8294 44.2981 66.2945 44.2981C67.4425 44.2981 68.3363 44.6396 68.9757 45.3226C69.6151 45.9911 69.9348 47.0665 69.9348 48.5488V53.6714C69.9348 54.1219 70.0002 54.4634 70.131 54.6959C70.2618 54.9139 70.4434 55.0592 70.6759 55.1319C70.923 55.2045 71.2064 55.2409 71.5261 55.2409H71.6351V56.2218H67.537V48.7886C67.537 47.844 67.3699 47.1174 67.0356 46.6087C66.7159 46.0856 66.1492 45.824 65.3354 45.824C64.725 45.824 64.2382 45.9838 63.8749 46.3036C63.5261 46.6233 63.2718 47.052 63.1119 47.5897C62.9666 48.1273 62.8939 48.7014 62.8939 49.3117V53.8022C62.8939 54.2091 62.9666 54.5215 63.1119 54.7395C63.2718 54.943 63.4752 55.081 63.7223 55.1537C63.9839 55.2118 64.2745 55.2409 64.5942 55.2409H64.6814V56.2218H58.5997Z" fill="#222222"/>
<path d="M78.0954 56.4398C76.9473 56.4398 76.0609 56.0983 75.436 55.4153C74.8256 54.7322 74.5205 53.6423 74.5205 52.1455V47.0229C74.5205 46.5869 74.4405 46.2672 74.2807 46.0638C74.1353 45.8458 73.9319 45.7005 73.6703 45.6278C73.4233 45.5551 73.1399 45.5188 72.8202 45.5188H72.7548V44.5379H76.9183V51.9057C76.9183 52.5306 76.9764 53.0683 77.0927 53.5188C77.2234 53.9693 77.4414 54.3181 77.7466 54.5651C78.0663 54.7976 78.495 54.9139 79.0327 54.9139C79.614 54.9139 80.0936 54.7686 80.4714 54.4779C80.8492 54.1873 81.1253 53.7804 81.2997 53.2572C81.4741 52.7341 81.5613 52.131 81.5613 51.448V47.0447C81.5613 46.5942 81.4814 46.26 81.3215 46.042C81.1762 45.824 80.9728 45.6859 80.7112 45.6278C80.4496 45.5551 80.159 45.5188 79.8392 45.5188H79.7738V44.5379H83.9591V53.8022C83.9591 54.2236 84.0318 54.5433 84.1771 54.7613C84.337 54.9648 84.5477 55.0956 84.8093 55.1537C85.0708 55.2118 85.3542 55.2409 85.6594 55.2409H85.7466V56.2218H82.0409L81.7139 54.5215H81.6049C81.3869 54.9139 81.1399 55.2409 80.8638 55.5024C80.6022 55.7495 80.3261 55.9457 80.0354 56.091C79.7448 56.2218 79.4323 56.309 79.0981 56.3526C78.7784 56.4107 78.4442 56.4398 78.0954 56.4398Z" fill="#222222"/>
<path d="M90.9685 56.4398C90.1547 56.4398 89.4644 56.3453 88.8976 56.1564C88.3309 55.9675 87.8949 55.6986 87.5897 55.3499C87.2991 54.9866 87.1538 54.5579 87.1538 54.0638C87.1538 53.6423 87.241 53.3226 87.4153 53.1046C87.6043 52.8867 87.815 52.7341 88.0475 52.6469C88.2945 52.5597 88.5125 52.5161 88.7015 52.5161C88.7015 53.0538 88.7814 53.5406 88.9412 53.9766C89.1011 54.398 89.3554 54.7322 89.7042 54.9793C90.0529 55.2118 90.5034 55.3281 91.0557 55.3281C91.8259 55.3281 92.4072 55.1537 92.7995 54.8049C93.1919 54.4561 93.3881 54.0129 93.3881 53.4752C93.3881 53.1264 93.3082 52.8358 93.1483 52.6033C93.003 52.3708 92.7341 52.1455 92.3418 51.9275C91.9639 51.695 91.419 51.4407 90.7069 51.1646C89.9512 50.8449 89.3191 50.5252 88.8104 50.2055C88.3163 49.8857 87.9458 49.5152 87.6987 49.0937C87.4517 48.6723 87.3282 48.1419 87.3282 47.5025C87.3282 46.4707 87.7133 45.6859 88.4835 45.1482C89.2682 44.596 90.3 44.3199 91.5788 44.3199C92.3345 44.3199 92.9594 44.4144 93.4535 44.6033C93.9621 44.7922 94.3327 45.0393 94.5652 45.3444C94.8122 45.6496 94.9358 45.9766 94.9358 46.3254C94.9358 46.7468 94.7905 47.081 94.4998 47.3281C94.2092 47.5751 93.7732 47.6987 93.1919 47.6987C93.1919 46.972 93.0321 46.4053 92.7123 45.9984C92.4072 45.5915 91.9349 45.388 91.2954 45.388C90.8595 45.388 90.4889 45.4607 90.1837 45.606C89.8931 45.7368 89.6751 45.9257 89.5298 46.1728C89.3845 46.4053 89.3118 46.6887 89.3118 47.0229C89.3118 47.3717 89.399 47.6696 89.5734 47.9166C89.7623 48.1637 90.0602 48.3962 90.4671 48.6142C90.874 48.8176 91.419 49.0501 92.102 49.3117C92.8431 49.6024 93.4535 49.9075 93.9331 50.2273C94.4126 50.547 94.7687 50.9248 95.0012 51.3608C95.2482 51.7822 95.3717 52.2981 95.3717 52.9085C95.3717 54.0565 94.9721 54.9357 94.1728 55.5461C93.3881 56.1419 92.32 56.4398 90.9685 56.4398Z" fill="#222222"/>
<path d="M25.7407 70.5C24.8977 70.5 24.1867 70.3042 23.6077 69.9125C23.0287 69.5208 22.5902 68.9758 22.2921 68.2776C22.0026 67.5708 21.8579 66.7449 21.8579 65.7997C21.8579 64.8801 22.0111 64.0712 22.3177 63.373C22.6327 62.6662 23.0925 62.117 23.6971 61.7253C24.3102 61.3251 25.0638 61.125 25.9578 61.125C26.5368 61.125 27.0179 61.1889 27.4011 61.3166C27.7843 61.4358 28.0695 61.6061 28.2569 61.8275C28.4442 62.0404 28.5379 62.2831 28.5379 62.5555C28.5379 62.828 28.4314 63.0451 28.2186 63.2069C28.0057 63.3687 27.7417 63.4496 27.4267 63.4496C27.4267 63.1856 27.3798 62.9302 27.2862 62.6833C27.1925 62.4278 27.035 62.2192 26.8136 62.0574C26.6007 61.8871 26.3069 61.802 25.9323 61.802C25.2937 61.802 24.7785 61.9595 24.3868 62.2745C23.9951 62.5811 23.7099 63.0324 23.5311 63.6284C23.3608 64.2245 23.2756 64.9482 23.2756 65.7997C23.2756 66.5576 23.365 67.2302 23.5438 67.8178C23.7312 68.3968 24.0207 68.8481 24.4124 69.1717C24.8041 69.4952 25.3107 69.657 25.9323 69.657C26.3495 69.657 26.7029 69.6059 26.9924 69.5037C27.2819 69.4016 27.5246 69.2696 27.7204 69.1078C27.9248 68.9375 28.0993 68.7587 28.2441 68.5714C28.3122 68.6139 28.3676 68.6778 28.4101 68.7629C28.4612 68.8396 28.4868 68.9418 28.4868 69.0695C28.4868 69.2313 28.4314 69.3973 28.3207 69.5676C28.21 69.7294 28.044 69.8827 27.8226 70.0274C27.6012 70.1637 27.316 70.2786 26.9669 70.3723C26.6263 70.4574 26.2175 70.5 25.7407 70.5Z" fill="#555555"/>
<path d="M28.9754 70.3723V69.8358H29.2181C29.3884 69.8358 29.5246 69.8103 29.6268 69.7592C29.729 69.7081 29.8227 69.6102 29.9078 69.4654C29.993 69.3207 30.0866 69.1121 30.1888 68.8396L33.0243 61.2527H34.0205L36.9071 69.1589C36.9752 69.3377 37.0476 69.4782 37.1242 69.5804C37.2009 69.674 37.2945 69.7422 37.4052 69.7847C37.5159 69.8188 37.6522 69.8358 37.814 69.8358H37.98V70.3723H34.4676V69.8358H34.7613C35.0168 69.8358 35.2084 69.789 35.3361 69.6953C35.4638 69.5932 35.5277 69.4356 35.5277 69.2228C35.5277 69.1717 35.5234 69.1248 35.5149 69.0823C35.5064 69.0312 35.4936 68.9801 35.4766 68.929C35.4681 68.8694 35.4511 68.8098 35.4255 68.7502L34.9146 67.3197H31.5555L31.0701 68.6608C31.0446 68.7289 31.0233 68.797 31.0062 68.8651C30.9892 68.9333 30.9764 68.9971 30.9679 69.0567C30.9594 69.1078 30.9552 69.1589 30.9552 69.21C30.9552 69.4229 31.0233 69.5804 31.1595 69.6826C31.3043 69.7847 31.5171 69.8358 31.7981 69.8358H32.0919V70.3723H28.9754ZM31.7981 66.681H34.6847L33.8928 64.4459C33.8077 64.1904 33.7225 63.9477 33.6374 63.7178C33.5607 63.4879 33.4884 63.2665 33.4202 63.0537C33.3606 62.8408 33.3053 62.6322 33.2542 62.4278C33.2201 62.5811 33.1818 62.7301 33.1392 62.8748C33.1052 63.0196 33.0626 63.1686 33.0115 63.3219C32.9689 63.4666 32.9179 63.6242 32.8582 63.7945C32.8072 63.9562 32.7433 64.1351 32.6667 64.3309L31.7981 66.681Z" fill="#555555"/>
<path d="M38.4664 70.3723V69.8358H38.6324C38.8282 69.8358 39.0028 69.8145 39.1561 69.772C39.3178 69.7294 39.4456 69.6442 39.5392 69.5165C39.6329 69.3803 39.6797 69.1802 39.6797 68.9162V62.6577C39.6797 62.4023 39.6286 62.2149 39.5265 62.0957C39.4328 61.968 39.3051 61.8871 39.1433 61.853C38.99 61.8105 38.8197 61.7892 38.6324 61.7892H38.4664V61.2527H42.0554C43.1283 61.2527 43.9202 61.4912 44.4311 61.968C44.942 62.4363 45.1974 63.0877 45.1974 63.9222C45.1974 64.3054 45.1378 64.6715 45.0186 65.0206C44.8994 65.3612 44.7036 65.6677 44.4311 65.9402C44.1671 66.2127 43.8138 66.4298 43.371 66.5916C42.9367 66.7449 42.4045 66.8215 41.7744 66.8215H40.9698V68.9801C40.9698 69.227 41.0166 69.4143 41.1102 69.5421C41.2124 69.6613 41.3402 69.7422 41.4934 69.7847C41.6552 69.8188 41.8298 69.8358 42.0171 69.8358H42.4386V70.3723H38.4664ZM41.6467 66.2212C42.0299 66.2212 42.3577 66.1829 42.6302 66.1063C42.9112 66.0211 43.1368 65.8891 43.3071 65.7103C43.4859 65.5315 43.6137 65.3016 43.6903 65.0206C43.7754 64.7311 43.818 64.382 43.818 63.9733C43.818 63.4964 43.7541 63.1047 43.6264 62.7982C43.4987 62.4832 43.2901 62.249 43.0006 62.0957C42.7111 61.9425 42.3236 61.8658 41.8383 61.8658H40.9698V66.2212H41.6467Z" fill="#555555"/>
<path d="M46.1747 70.3723V69.8358H46.3408C46.5366 69.8358 46.7112 69.8145 46.8644 69.772C47.0262 69.7294 47.1539 69.6442 47.2476 69.5165C47.3413 69.3803 47.3881 69.1802 47.3881 68.9162V62.7088C47.3881 62.4363 47.3413 62.2362 47.2476 62.1085C47.1539 61.9808 47.0262 61.8956 46.8644 61.853C46.7112 61.8105 46.5366 61.7892 46.3408 61.7892H46.1747V61.2527H49.8915V61.7892H49.7255C49.5381 61.7892 49.3636 61.8105 49.2018 61.853C49.04 61.8956 48.9123 61.9808 48.8186 62.1085C48.725 62.2362 48.6781 62.4363 48.6781 62.7088V68.9162C48.6781 69.1802 48.725 69.3803 48.8186 69.5165C48.9123 69.6442 49.04 69.7294 49.2018 69.772C49.3636 69.8145 49.5381 69.8358 49.7255 69.8358H49.8915V70.3723H46.1747Z" fill="#555555"/>
<path d="M52.2951 70.3723V69.8358H52.5889C52.7762 69.8358 52.9465 69.8188 53.0998 69.7847C53.2616 69.7422 53.3893 69.6613 53.483 69.5421C53.5851 69.4143 53.6362 69.227 53.6362 68.9801V61.8914H52.4101C52.1631 61.8914 51.9673 61.9425 51.8225 62.0446C51.6778 62.1383 51.5714 62.266 51.5032 62.4278C51.4351 62.5811 51.3883 62.7514 51.3627 62.9387L51.2989 63.4879H50.6347L50.6986 61.2527H57.8895L57.9533 63.4879H57.2892L57.2253 62.9387C57.2083 62.7514 57.1614 62.5811 57.0848 62.4278C57.0167 62.266 56.9102 62.1383 56.7655 62.0446C56.6207 61.9425 56.4206 61.8914 56.1652 61.8914H54.9263V68.9162C54.9263 69.1802 54.9731 69.3803 55.0667 69.5165C55.1604 69.6442 55.2881 69.7294 55.4499 69.772C55.6117 69.8145 55.7863 69.8358 55.9736 69.8358H56.2674V70.3723H52.2951Z" fill="#555555"/>
<path d="M57.4515 70.3723V69.8358H57.6942C57.8645 69.8358 58.0007 69.8103 58.1029 69.7592C58.2051 69.7081 58.2987 69.6102 58.3839 69.4654C58.469 69.3207 58.5627 69.1121 58.6649 68.8396L61.5004 61.2527H62.4966L65.3832 69.1589C65.4513 69.3377 65.5237 69.4782 65.6003 69.5804C65.677 69.674 65.7706 69.7422 65.8813 69.7847C65.992 69.8188 66.1283 69.8358 66.29 69.8358H66.4561V70.3723H62.9437V69.8358H63.2374C63.4929 69.8358 63.6845 69.789 63.8122 69.6953C63.9399 69.5932 64.0038 69.4356 64.0038 69.2228C64.0038 69.1717 63.9995 69.1248 63.991 69.0823C63.9825 69.0312 63.9697 68.9801 63.9527 68.929C63.9442 68.8694 63.9271 68.8098 63.9016 68.7502L63.3907 67.3197H60.0315L59.5462 68.6608C59.5206 68.7289 59.4994 68.797 59.4823 68.8651C59.4653 68.9333 59.4525 68.9971 59.444 69.0567C59.4355 69.1078 59.4312 69.1589 59.4312 69.21C59.4312 69.4229 59.4994 69.5804 59.6356 69.6826C59.7803 69.7847 59.9932 69.8358 60.2742 69.8358H60.568V70.3723H57.4515ZM60.2742 66.681H63.1608L62.3689 64.4459C62.2837 64.1904 62.1986 63.9477 62.1134 63.7178C62.0368 63.4879 61.9644 63.2665 61.8963 63.0537C61.8367 62.8408 61.7814 62.6322 61.7303 62.4278C61.6962 62.5811 61.6579 62.7301 61.6153 62.8748C61.5813 63.0196 61.5387 63.1686 61.4876 63.3219C61.445 63.4666 61.3939 63.6242 61.3343 63.7945C61.2832 63.9562 61.2194 64.1351 61.1427 64.3309L60.2742 66.681Z" fill="#555555"/>
<path d="M66.9424 70.3723V69.8358H67.1085C67.3043 69.8358 67.4789 69.8145 67.6321 69.772C67.7939 69.7294 67.9217 69.6442 68.0153 69.5165C68.109 69.3803 68.1558 69.1802 68.1558 68.9162V62.7088C68.1558 62.4363 68.109 62.2362 68.0153 62.1085C67.9217 61.9808 67.7939 61.8956 67.6321 61.853C67.4789 61.8105 67.3043 61.7892 67.1085 61.7892H66.9424V61.2527H70.6592V61.7892H70.4932C70.3058 61.7892 70.1313 61.8105 69.9695 61.853C69.8162 61.8871 69.6885 61.968 69.5863 62.0957C69.4927 62.2149 69.4458 62.4023 69.4458 62.6577V69.7337H71.962C72.2175 69.7337 72.4218 69.6783 72.5751 69.5676C72.7369 69.4484 72.8561 69.2994 72.9327 69.1206C73.0094 68.9418 73.0604 68.7629 73.086 68.5841L73.2137 67.6262H73.8779L73.7885 70.3723H66.9424Z" fill="#555555"/>
</svg>
