<svg xmlns="http://www.w3.org/2000/svg" viewBox="0 0 204.78 92.39"><defs><style>.cls-1,.cls-2{fill:#808285;}.cls-2{fill-rule:evenodd;}.cls-3{fill:#fdb913;}.cls-4{fill:#ec9123;}</style></defs><title>Asset 1</title><g id="Layer_2" data-name="Layer 2"><g id="Camada_1" data-name="Camada 1"><path class="cls-1" d="M84.55,17.9h19.82v7.93c3.65-4.69,8.87-9.18,16.9-9.18,12,0,19.19,7.93,19.19,20.76V74.33H120.75V43.77c0-6.26-3.24-9.6-8-9.6s-8.35,3.34-8.35,9.6V74.33H84.55Z"/><path class="cls-1" d="M148.92,46.46v-.2c0-16.2,11.58-29,28-29,19.07,0,27.88,14,27.88,30.34,0,1.23,0,2.66-.1,4h-37.1c1.53,6,5.94,9.12,12,9.12,4.71,0,8.3-1.75,12.3-5.64L202.63,64c-5.33,6.76-13,11.27-24,11.27C161.22,75.26,148.92,63.58,148.92,46.46Zm37.72-4.39c-.72-6.15-4.41-10-9.74-10-5.12,0-8.61,3.9-9.63,10Z"/><path class="cls-2" d="M22.24,36.67c-.29.84-.39,1.16-.54,1.7C21.84,37.86,22,37.46,22.24,36.67Z"/><path class="cls-2" d="M76.18,41.61l.09.61Z"/><path class="cls-2" d="M76.46,43.82c0,.48.08,1,.1,1.44C76.54,44.78,76.51,44.3,76.46,43.82Z"/><path class="cls-2" d="M28.06,26.92A29.53,29.53,0,0,0,25.9,29.6,32.72,32.72,0,0,1,28.06,26.92Z"/><path class="cls-2" d="M67.83,51.15c.09-.67.09-.65,0,0Z"/><path class="cls-2" d="M48.12,52.07h0Z"/><path class="cls-2" d="M67.21,53.26Z"/><path class="cls-2" d="M25,31c.3-.47.59-.91.88-1.31C25.53,30.13,25.24,30.57,25,31Z"/><path class="cls-2" d="M76.53,48c0-.72.06-1.43,0-2.14C76.59,46.52,76.58,47.23,76.53,48Z"/><path class="cls-2" d="M28.38,41.36c.05-.27.09-.54.13-.78C28.47,40.82,28.43,41.09,28.38,41.36Z"/><path class="cls-2" d="M76.51,48.45l0,.35Z"/><path class="cls-2" d="M69.22,27.27h0v0l0,.05,0,0,0,0-.18-.21,0,0,0,0,0,0h0c0-.05-.11-.1-.16-.16v0L69,27l0,0,0,.05,0,0v0h0l0,0,0,0,0,0v0l.13.17,0,0h0v0l.08.11,0,0h0l.14.17,0,.06,0,0h0v0l0-.06,0,0,0,0,0,0h0v0h0l0,0h0v0h0v0h0l0-.05,0,0h0l-.05-.08,0,0,0,0h0l0,0h0v0l0,0,0,0,0,0,0,0h0l0,0h0l0-.06h0Z"/><path class="cls-2" d="M74.19,57.74v0h0v0l0,0h0l0,0v0l0-.08v0h0l0,0h0v0h0v0h0v0l0-.07,0-.14,0-.07v-.08l0,0v0l0,0V57h0v0h0v0h0v-.1l0,0h0v0h0v-.06l0-.06,0-.08,0,0,0-.07v0h0l0-.07h0l0,0v0l0,0v0l0,0v0h0v0h0v.05h0v0h0v0h0v-.08l0,0V56h0l0,0v0h0v0l0,0v-.06h0l0,0,0-.05v0h0v0l0-.07,0,0,0-.09v0a27.91,27.91,0,0,0,1.35-6.35h0v0h0v0h0v0h0v0h0v0h0v0h0v0h0v0h0v-.22h0V49h0v.05h0v.11h0v.05h0v0h0v.05h0v0h0v0h0v0h0v.06h0v0h0v.05h0v.06h0v0h0v.06h0v0h0v.06h0v.1h0v0h0v.08h0v0h0v0h0v0h0v-.12h0V49.5h0v0h0v-.05h0v.07h0v-.06h0v-.08h0v.1h0v0h0v0h0v0h0v.14h0v0h0v0h0v.08l0,.08V50l0,.08h0v0l0,.12v.29h0v.17h0v.16h0v.39h0v.09h0v.08h0v0h0v.66h0v.07l0,.09v.05l0,0v.11l0,.09v0l0,.09h0l0,.11v0h0v0h0v.12h0V53h0v0h0l0,0v0h0l0,.06h0l0,.05v0h0v0h0v0h0v.08h0v0h0v0h0v0h0v.06h0v0h0v-.09l0,.11v.06h0v0h0v-.14h0l0,.11v.09l-.06.1v0l0,.06,0,0v0h0l0-.05v0l0-.09v0l0-.14,0-.07v0h0v0h0v0h0v-.12h0v0h0v.05h0v-.06h0v-.12h0v.06h0v-.1l0-.06v-.13h0v-.15h0v-.09h0V52.6h0v0l0,0,0,0h0v-.13l0-.05v-.08h0v0h0l0,0v.11l0,.09v0l0,.11,0,.06v.08l0,.06v0l0,.07,0,.08v0l0,.07,0,.11,0,.06v.07l0,.08,0,.06v.16h0l0,0h0v0h0l0,.14V54h0v0h0V54l-.06.28v.05l0-.06v0h0v-.05h0v.18h0v.11h0v0l0,.09v.09h0l0,.1v.1h0V55l0,.14,0,.06,0,.09,0,.13,0,.07v.08l0,0v0l0,.11v.13l0,.08,0,.17,0,.08v0h0v0h0v0h0v0h0l0,0h0v-.06h0v-.41h0v0l0,0v-.31h0v-.12l0-.09,0-.12,0-.18,0-.06,0-.07v-.29l0-.08h0v0l0,0h0v0l0-.06v-.05h0v-.1h0l0-.07v0h0v0h0l0-.07v0l0-.07,0-.07v0l0-.06,0-.07v0l0-.09,0-.12h0l0,.05v-.1l0-.11v0h0v0l0,0v-.24h0l0,0h0v-.06h0v-.09h0v0h0v-.56l0,.11v-.11l0-.06v-.17h0v0h0v0l0-.11v-.09l0-.15v-.13l0-.07v0h0v-.28h0v.2l0,0,0,0h0v-.09h0v.13l0,0h0v0h0l0,0v.06l0,0,0,0h0v-.1l0,.05v0h0v-.11h0v.07l0,0v-.15h0l0,0v.06h0v0l0-.13v0l0-.08V51h0l0,0v-.51h0v0h0v-.14h0v0h0v0h0V50.2h0v0h0v-.06h0v0h0v0h0V50h0v0h0v0h0V49.9h0v-.07h0v.08h0v0h0v-.08h0v-.09h0v-.55h0V49l0,0v0h0v-.37h0v0h0l0,0h0v.1h0v0h0V49h0v.12h0l0,0,0,.05v0h0v-.1h0l0,0v0l0,0v0l0,0h0v-.08h0v.1h0v0h0v-.13h0v0l0,.11v.06h0v0h0v0h0V49.3l0-.09v-.07h0v0h0v.08l0,.06,0,0,0,0-.06,0h0l0,0,0,.05v.25l0,0v0l0,0v.05h0v0h0l0,0,0,0h0v0h0v0h0l0,0v0h0l0,0h0l0,0-.08.13v0l0,0v0l0,.06,0,.1,0,0-.07.07v0l0,.07,0,.06,0,0-.06.06-.05.06V51h0v0h0l0,0,0,0-.06.05h-.07v0l0,.11,0,0v0h0v0h0l0,0,0,0,0,.13,0,.08v.55h0v-.07l0,0v0l0,0v0l-.06.23,0,.08,0,0v0l0,.08,0,.1v.13h0v0l0,.14,0,.15h-.07l0,0v.07l-.07.11,0,0v.08h0v0l0,0h0l-.1.05h0l0,0,0,0,0,.07v.06l0,0-.06.06,0,0h0l0,0,0-.06v0l0-.15v-.08h0v0h0V53.3h0v.13h0l0-.13v0h0v-.05h0v-1l0-.14v-.42l0-.06v-.18h0v-.05h0l0,0h0v-.28l0-.26v-.51h0v0l0-.06V50.1l0,0v-.07h0v0h0l0,0v0h0v-.13h0l0-.09,0-.17v-.2h0v-.09l0,0h0l0,0,0,0,0,0v0h-.1l0-.06v0h0V49l0,0h-.07v.1l0,0v0h0v.09l0,.11v0l-.08.06,0,0-.07,0h0l0,0-.06-.1v0l0-.12,0-.06,0-.06,0-.06,0-.08V48.9h0v0h0l.06,0h0l0,0h0l0,0h0l0-.08,0-.06h0v0h0v0h0l-.05,0,0,0h0l-.08,0-.07-.08,0,0v-.07l0-.07v0l0-.05,0,0h0l0,0v0l0,0h0v-.09h0v0h0v0l0,0v-.06h0V48l-.08,0v-.13l0-.06v0l0,0h0v0h0v0h-.11l0,0h-.06l-.06,0h-.06l0,0h0l-.07,0v0h0l0,0h-.08l0,0v0h-.1l-.07,0h0l0,0,0,0h0v0h0l0,0h-.07l0,0h0l0,0,0,0h0l-.09,0v0h0l0,0-.07,0h0l0,0h0l0,0h-.09l0-.05-.06,0H69.7l0,0,0,0h0v0l-.09,0v-.14l0-.08v-.2l0,0,0,0h0l-.08,0h0l0,0-.07,0v0l0,0,0,0h0l0,0L69,47.2h-.06l0,0-.06,0h-.13l0,0v0l0,0L68.55,47l-.06-.07v-.07l0,0-.06-.05,0,0h-.1l0,0,0-.08v0l0-.08v-.13l0,0V46.2l0,0h0v-.11L68,46l0,0,0-.07,0,0v-.11h0l-.1.06,0,0-.09-.07h0v0h.06v0l0,0h0v0l0,0v.13h-.13l0,0h0v.1l0,0v0h0l0,0,0,0h.08v.05l0,.09,0,0,0,.05v.16l0,.09,0,.06v.08h0l0,0,0,0h0l0,0,0,0,0,.05,0,0,0,.07.06.05,0,.07h0v.06l0,0,0,0v0l0,.07h0v.1l0,0v.08l0,0v.13l0,0v0l0,0v-.23h0v0l0,0v0l0-.1,0,0,0,0,0,.06,0,0v0l0,0v.29l0,.08h0v0h0v0l0,.05h.06v0h0v0h0v.09h.09l.07,0h.12l.07,0,.1,0h0l.06,0,0,0h0v-.09h0v-.06l0,0,.08-.08.06-.07v0l0,0,0,0,.1-.11,0,0,0-.05h0l0,0h0v0h0v.08l0,.11v.31l0,.1,0,.09,0,0,0,.07,0,.07,0,0,.08,0,0,0,.06,0,.05,0h0l0,0v.07l0,0v0l0,.06,0,.07,0,0,0,0h0l0,0v.1l0,.06v0l0,.06,0,.1v0l-.06,0,0,.06-.06.11,0,.1v0h-.06v-.07h0l0,.08,0,0v0l0,.06,0,0V50h-.15l0,0,0,0,0,.05,0,.15,0,.06h-.21l-.07.09v.09l0,.06,0,0-.07,0,0,0h-.13l0,0,0,0,0,0h-.07l-.06,0-.12.06,0,0,0,0,0,0L68,51v.1l0,0h0l0,0h0l0,0h0l0,0-.07,0-.08,0-.12,0-.05,0,0,0h-.07l-.09,0-.05,0-.07.05h0l0,0,0,0,0,0,0,0h0l0,0h0l-.07,0,0,0h0l-.06,0-.06.07h0l-.07,0,0,0h-.28l0,0,0,.06-.06,0v0l0,0H66l0,0-.08,0h-.11l0,0,0,0h0v0l0-.15,0-.13v-.08l0,0v-.16h0v-.11h0v0h0V51.1l-.05,0,0,0v0h0v-.14l0-.13v-.27l0,0v0l0,0,0,0v-.12l0-.08-.07-.08,0-.05,0-.09v-.07l0-.08V49.7l0-.15v-.1l0,0,0-.07-.1-.1h0l0,0,0-.05,0-.08L65,49l0-.12,0,0v0l0-.06v-.08l0,0v-.2l0,0v0h0v0h0l0,0v-.12l0-.09V48l0-.08,0,0,0,0,0,0h0l0,0h0l0-.06,0-.06,0-.08v-.12l0,0,0-.14,0,0,0,0V47.1l0,0-.07-.18,0-.07v0l0-.08,0-.07,0-.07,0-.11L64,46.33l0,0h-.09l0,0v0l0,0,0-.09v-.08l0-.23v-.05h0l0,.06,0,.19-.06.15v.13l0,0,0,.05-.05,0-.07-.09,0-.08,0,0,0-.07V46l0-.07v0l-.06-.09v0l0,0v0l0-.1,0-.07,0,0v0l0,0,0,0v0l0,.06V46l0,0v.09l0,0,.05.09,0,.07,0,0v.14l0,.06v0l0,0,0,0v0l0,.15,0,0,.07.2.06.12,0,.1,0,.11.08.25.05.08,0,.05,0,0,0,0H64v.24l0,.12,0,0,0,0v0l.09.05,0,.08.11.12v0h0v.14l0,.1,0,.05v0h0v.47l0,.07,0,.18,0,.1v0l0,0h0l0,0,0,.05,0,0v0h0v0l.06.06v0l.06.21,0,.12v.41l0,0v.09h0V51l0,0v-.12l0,0v.08l0,.05,0,0H65l0,0,0,.05.09,0,.06.14,0,.09.13.14,0,.07v.06h0l.05.07v.06l0,0v0l0,0v0h0l0,.07v.15l0,0-.07,0-.07,0,0,.06h0v0h.17v0l0,0,0,.11,0,.09.06.08,0,0h.17l.11-.07.1,0h0l0,0h.05l0,0h0l.11,0,.07-.06,0,0h0l0,0h.08l.11,0h.06l0,0h0l.08,0,.07,0,.11,0,.1-.06,0,0,0,0h0l.09.05h0v0l0,.05,0,.06v.09l0,.14v0h0v0h0l0,0h0v0h-.12v0l0,.11,0,.07,0,.1,0,.05,0,0h0l-.07.08,0,.08v0l-.07.1-.07.08,0,.1,0,.06,0,.05-.07.1,0,.07-.07.11,0,.08-.15.22-.14.17-.1.14-.15.17-.2.21-.27.24-.07,0-.26.15-.18.12-.09.09-.1.08-.08.07-.26.24,0,0,0,0,0,0,0,0-.07.07,0,0,0,0,0,0,0,0v0l0,.07,0,0,0,0,0,0,0,0H64v0h0v.08l0,0v0l-.06,0H63.8l0,0,0,0,0,0V57l0,0v0l0,0,0,0,0,0h0l0,.07,0,0h0v0l0,0h0l-.07.1,0,0h0l0,0h0v0l0,.06v0l0,0,0,.08,0,0,0,.07,0,.06V58l0,0,0,0h0l0,.05v0l0,0v.08l0,0,0,0,0,.05,0,.09,0,0,0,0,0,.06,0,.07,0,0v.11l0,0h0l0,.08L63,59v.15l0,0h0v0h0v0h0l0,0h0v.06l0,0h0l0,0,0,0v0h0l0,0,0,0v.06l0,.06v.11l0,0,0,.06v0l0,0h0v0l0,0v0l0,0h0v.19l0,.07,0,.08v0h0v0l0,0v.05l0,0h0v0h0v.07h0l0,0v0h0v0l0,.06-.09.09,0,0,0,0h0l0,.05h-.05v0h0l-.05,0-.11.06h0l0,0h-.12l-.07,0h-.08l0,0h0l-.1.05-.09,0-.06,0h0l0,0v0l-.06.05-.08.06h0l0,0v0h0v0l0,0H61l0,0-.07,0-.1.1-.14.08h0l0,0h0v0h0v0l0,0,0,.09v0l0,0v0l0,.11,0,.06v.11l0,.08,0,.06,0,0v0h0v0l0,0v0h0v.06l0,.08v.09l0,.06-.09.15v0h0v0h0l0,.07,0,0-.08.07,0,0-.06,0-.11,0-.21.06-.08,0,0,0-.12.06-.06.05,0,0,0,0,0,0v.06h0l0,0v0h0l0,.05-.09.17h0l0,.07-.08.1,0,0-.11.16-.07.09,0,0-.09.06h-.07l-.16.12-.07.06-.07.09-.06,0-.1.1-.08.08-.08.07-.12.09,0,0h0l-.08.06-.13.08-.1.08-.14.09-.07,0-.12.07h0l-.12.07-.09,0-.13.05h0l-.1,0h0l-.05,0,0,0h0l-.06,0h0l0,0,0,0h-.05l-.08,0-.1,0h0l-.06,0h-.1l0,0h-.12l-.14.08h-.12l0,0h-.16l-.13.08h-.09l0,0h0v0h0v0h-.06v0h0v0H55l0,0,0,.05h0v-.07l0,0h0v-.2h0v-.1l0,0h0v0h0l0,0,0,0,0-.07v0l0-.11v0l0-.08,0-.11,0-.17v-.1l0-.2,0-.12,0-.11h0l0,0,0-.09,0,0,0-.06,0-.17v-.21l0,0v-.05l0,0,0-.11v-.07l0,0v-.09l0-.06v-.29l0-.12v0l0,0v-.12h0v-.14l0-.08-.06-.13v-.09L55,62v-.22l0,0-.08-.33,0-.06,0-.06v-.09l0-.08V61l0-.09,0-.06,0-.12,0,0v-.05l0-.16v-.05h0l0,0,0,0,0,0,0-.08.1-.18.07-.18.06-.08,0-.09.12-.12.05-.08.06,0,.08,0,.07-.06,0,0,.05-.09,0-.1,0-.13v0l0-.06v0l0,0,0,0v-.05l0-.09v-.31l0,0h0l.11-.09v-.1l0-.18,0-.18v-.08l-.07-.12,0-.08v-.05l0,0h.16l.08,0,0,0H55.9l0,0h-.08l0,0,0,0v-.06l0,0v-.1l0-.06h0l0,0,0,0h0v0l0,0-.07-.08v0l-.06-.07,0,0,0-.06,0,0,0-.06v0l-.06-.09-.09-.09-.07-.08v0h0l.07,0h0l0,0,0,0h-.06v-.09l0,0v0l0,0h0l0,0h0l0,0h0v0L55,56l0-.05v0l.07.11h.07v0h0l0,0h-.05l0,0,0-.07v-.06l0-.1h0v0h0l0,0h0l0,0,.06-.07,0-.09v-.11l0,0v0h.05l0,0,0,0v0l.07,0h-.07l-.07,0,0,0,0,0,0,0v0l.05,0h0v0h0v-.12h0l0,0h0l0,0,0,0,0,0h0v0l0-.05,0,0v0l0-.08V54.7l0-.07v-.05l0,0v-.08l-.06-.08,0,0h0v-.07h0v0h0l0,0h0v0H55.4v0l0,0h-.1l0,0V54h-.05v0h0v0h0v0h0l0,0h0v0h0l0,0h0l0,.08v0h-.23v0h0l0,0h-.06l0,0v0h0l0,0v0l-.05,0h0v-.11h0V54l0,0h-.08v0h0l0,0h-.09v0l0,0v0h0l0,0,0,0,0,0-.06-.06v-.16h0v0h0l0,0h0l0,0,0,0v0h.05v0h0v0h0l0,0v0h0l0-.08-.07-.07-.06,0-.1,0h-.18l.07,0h0l-.08,0h0l0,0h-.58l-.1,0,0,0h0l0,0,0,0h-.24l-.13,0-.08,0,0,0-.06,0,0,0H52l-.15,0-.05,0,0,0-.08,0h0l-.06,0,0,0-.11,0-.08,0h0l0,0v0h0l0,.06h0l-.18,0,0,0h-.34l0,0h-.1v0h-.07l-.12,0,0,0-.18,0-.1,0h0l0,0H49.9l-.07,0h-.08l-.11-.05-.08,0-.29-.17-.08-.07-.09-.1-.2-.19,0,0h-.06l0,0,0,0,0,0-.05,0-.1-.05-.07-.07v0l-.06-.05-.07,0-.14-.06h-.05v0l0,0,0,0v0h0l0,0h0l0,0h0v-.1l0,0h0l0,0,0,0v0h0l0,0h0l0,0,0,0v0h0v0h-.09v-.09h0l0,0v0h0l0,0h0l0,0h0v0l0-.05h0v-.13h0l0,0h0l0,0,0,0v0h0l-.09,0-.06-.1v0l0,0h0l0,0v0l0,0v0l0,0h0l0,.05h0V51.4l0,0,0,0h0l0,0h0v0h0l0,0v0l0,0h-.05l0,0,.07,0h.06l0,0h-.06l0,0h0l0,0v0h0l0,0H47v0H47l0,0,0,0v0l0,0h-.06l-.1-.06v-.06h.08l0,0h0l0,0h0v0h0v-.15l0-.07,0,0h0v0l0,0H47v0h0l-.08,0h0l0,0v-.08l0,0,0,0v0h0v0l0,0,0-.07,0,0,0,0,0,0h-.06v0l0,0h0l.1,0,.12-.12.1-.15,0,0v-.16l0-.06v0l0-.11,0-.09.05-.12,0-.12v-.23l0-.06v-.11l0,0L47,48.48v0h0l0,0H47l.07-.11,0-.07v-.08l0-.07L47,48h0v0h0l0-.06,0-.11h0l0,0h0l0,.08,0,0,0-.18,0-.19.06-.09,0,0,.06,0,.06-.09,0-.08,0,0v-.06l0,0,0-.07,0,0,.06-.07h0v0h0l0,0,0,0v0l0,0,.05,0,.07,0,.15-.14.06,0,0-.06,0-.06,0-.13,0-.06,0,0,0-.1,0,0,0-.09,0,0h0l.06,0,.08,0,.09-.06.05,0,0,0,0-.1.06-.1,0-.08.05,0,0-.05.06,0h.11l.18,0,.16-.06,0,0,.05-.05.08-.07.16-.08.06,0,.11-.11.08-.09.06-.06,0-.06,0-.05,0-.09v0l0-.06,0,0v0l0,0v-.09l0-.13.05-.11.12-.13,0-.06,0-.09v0l.15-.13.09-.09,0,0,.08,0,.27-.08.15-.07.08,0,.06-.06.15-.24.16-.34v0h.14l0,0h.05l0,0v0l0,0,0,.06.09.08.07,0,.1,0,.12,0h.07l0,0,0,0H52l.05,0,0,0v0h0v.06h.22l.06,0h0l.08,0,.07,0,0,0,0-.05,0,0,.06,0,.17-.06h0l0,0h.05l0,0,0-.06.06,0,.07,0,.09,0,.06,0,.1,0H54l.09-.05h.22l.09,0,.33,0,0,0,0,0,.07,0,0,0h0l.11,0,.11,0,.06,0,0,0h0l0,0,.11,0h.11v0l.07,0,.06,0,.06.05h0l.08,0H56l.08,0,.08-.05,0,0,.18,0h0v.07h0v0h.07l0,0v.07l0,.07v0l0,0,0,0,0,0,.06,0,.06-.05h0v0l0,0h0l0,0-.06.09,0,0,0,0v.11l0,.06,0,0h0l.07.06v.11l0,0,0,.08,0,.05-.06.08,0,0-.11.07,0,0,0,0v.06l0,.08,0,.05.05,0h.09v.06h0l0,0,0,0v.08l0,0h0l0,0,0,0L57,44l.14.09,0,0,.11,0,.12,0h0l.08,0h.09l.1,0h0l.06.05,0,0,.2.06,0,0,0,.06v.13l0,.06,0,0,0,.05,0,0,.09.05.1,0h.11l.17.06.15.07,0,0L59,45l.15.15.08,0h.11l.09,0,0,0,.1-.11,0-.06,0-.05v-.08l0,0,0-.06v-.17l0,0,0,0,.08-.07.08-.06.13-.06h.12l.06,0h.22l.05,0,.07,0,0,0,0,0v.11l.06,0,.15,0h0l0,0h.28l0,0,0,.07v0l0,.05h0l.15,0,.17,0,.09,0,.14,0,.09.07H62l0,0,.16,0,.08.05.05,0,0,0h.06l0,0,.05,0,.1-.08h.09v0h0v0l0,0h0l.1,0v0l-.09,0h.13v0h0L63,45h0l.06,0h0l.05.07h0l0-.05v0l0,0,0,0h0v.05h0l0,0v0h0l.06.07h0l0,0h0l.07,0v0h.21l.08,0h0l0-.06,0,0h0l0-.11,0-.11,0-.16,0-.08,0-.05v-.11l0,0,0,0,.05-.14,0-.06V44l0-.07,0,0,0,0v0l0-.09v-.08l0-.06v-.08l0-.06,0-.1v0l0,0,0-.06,0-.06,0,0,0,0,0,0V43l0,0,0,0,0,0h0l0,0v0l0,0h0l-.06,0L64,43l0,0h-.06l-.08.07-.08.1h0l-.07,0h-.21l0,0-.07,0,0,0,0,0,0-.07,0,0-.07,0L63,42.93h0l-.09,0h-.08l0,0v.19h0l0,0h0l0,0-.08,0h0l-.1,0,0,0,0,0v-.12h0l0,0h-.05l-.07,0H62.1l0,.05h0v0l0,0H62l0,0h-.06v0H62l0,0,0,0h-.25v0h0v-.06h.07v0l0,0h-.05v-.09l0,0h0v-.1h0l-.07,0h0l0,0,0,0h-.05l0,0h0v0l0,0h0v0l0-.05v0h0l0,0v.08h0v0h0l.06,0h0l0,0,0,0,0,0v0h0l0,0,0,0h0V42l0-.06v0h0l0,0,0,0h-.23v0l0,0v-.13h0l0-.07.07-.07h.08l0,0h.06v0l0,0h.11l0,0h0l0,0h0v0h.11l.1,0h.12l0,0h0l0,0h.23l-.12,0h0l-.05,0h0l0,0v-.07h.06l.17,0h.12l.13.05h.13l0,0,0-.06.17-.1.06-.05.06,0,.11,0,.09,0h0l.22,0h.15l.07,0,0,0h0v0l0,0,0,0,.07,0,.1,0h0l0,.11,0,0,0,0h0l0,0h0l.06,0,0,0,.1,0,.09,0,0,0,.12,0h0l.08,0,.14,0,.11,0h.12l.1-.05,0,0h0l0,0,.08-.06,0,0,0-.08v-.1l0-.07,0-.1,0-.11,0,0-.08,0,0,0-.06-.05-.08,0h0l-.07-.07-.06,0,0,0-.1-.11L65,40.26l-.17-.17,0,0-.09,0,0,0-.09-.12h-.07l0,0h0l0,0,0,0,0,0-.08,0-.08,0h0l.07,0,0,0,0,0h0l0,0h0l0,0,0,0h0l.1,0v-.05h0v-.06l0-.06,0-.08v0h0v0h.08l-.06-.06-.06-.07h0l0-.05,0,0h.06l0,0h.09v0l0,0,0,0h0l.08,0h0l0,0,0,0h0l0,0h-.1l0,0h0l0,0-.07,0h-.17l0,.06h0l0,0h0l0,0,0,0h-.07l0,0h0l0,0-.05,0-.11.09,0,.07h0l0,0h0l0,0,0,0h0v-.05l0,.06h0l0,0v.08l0,.05,0,.07.07.11,0,0,0,0h0l.05,0h.07v0h.06l0,0h0v.14H64v0h-.08l0,0-.06,0v0h-.1l-.06,0,0,.07,0,.05h-.11l-.06-.06h0v0l0-.09v-.08l0,0h-.06l-.08-.07h-.1v0l.08-.07.08-.06h0l0,0,.05,0v-.06h0l0,0,0,0-.07,0H63.1l-.05,0L63,39.17h-.06v0H63l-.05,0h0l0,0H63l.06,0h0l0,0H63l0,0,0,0,0,0v-.08l0-.05v0l0,0,0,0v0l0,0V39h-.09v0h0l0,0h-.07l-.09,0v.08l0,0v0l0,.06h0l-.07.08h0l0,0,0,0h-.08v0l0,0,0,.08v.2l-.14,0h0v-.07h-.05v.13h0v0h0v0l0,.05v.35l0,.05,0,0H62l0,0h0l0,0v.17h0l-.07.09.05,0,0,0,0,.06.05.07v.07l0,0L62,41l0,0,.17.1h0v.09h0l-.14,0H62l0,0-.05,0h-.07l0,.06,0,0-.08.05-.06,0-.09.09,0,0h0v-.1l0,0,0,0,.08,0,0,0h-.2v0h0v0l0,0-.11,0,0,0h0l0,0h0l-.07,0h0l0,0h0l0,.05,0,0h-.1v0l0,0,0,0,0,0h0l.05,0,0,0,0,0,0,0,0,0h0l0,0h0v0l0,0,0,0,0,0v0h0l0,0-.05-.08-.07,0v.08l.06.05h0l-.07,0,0,0v0l-.06,0-.06,0,0,0h0v0h-.08v.19l.08.09,0,.07,0,0,0,0,0,.05,0,0v0l0,0h0v0l0,0h0l0,0,0,0v.06h0l0,0,0,0h0l0,0,.08,0,0,0h0l0,0,.06,0,0,.06h0l0,0,0,0v.21h0l0-.05,0,0,0,0h-.12l0,0h0l0,0v0l0,0h.06v0h0l-.07,0h0v0l0,0h0l0,0h0v.06l0,.05,0,.11,0,.06v.08l0,0,0,0h0v0l0,0,0-.06,0,0h0l0,.08v0l0,0h0V42.8l0-.07h0v0l0,0h0v.1l-.05-.05,0-.09v0l0,0v0l0-.07,0,0h0v0l0,0h0l.05,0,0-.06h0l0,0h0l0,0,0,0h0l.09,0,.09,0,.05,0,0,0h0v0h.08v0h-.12v0l-.05,0,0,0v0H60.3l-.08,0,0,0h-.1l0,0v0h0v0H60v-.05l0-.06,0-.05,0,0v0h0l.05,0h0v-.05h-.12l0,0,0,0-.06,0,0-.09,0,0,0,0v-.06l0-.07-.11-.07,0,0V41.3h0v0l0-.06h0l0-.05,0-.06v-.25h0v-.07l0,0h0l0,0,0,0-.08-.08-.08-.06h0l-.06,0-.05,0-.11-.07-.07,0-.1-.06-.07,0h.05l.16.08,0,0h0l-.06-.07-.07,0-.07-.08-.09,0-.06,0h-.13v0h0v0l0,0-.06,0,0,0-.1-.11,0,0h.1l0,0,0,0L58,39.54l0,0v-.1l0,0-.07-.06,0,0,0,0h0v.07l0,.06,0,0,0,0h0l0-.06,0,0v-.05l0-.11h0l0,0h0l0-.06h0l0,0-.08,0h0v0l0,0h0l0,0-.05,0h0l0,0h0l0,0h0v.09h0l0,.07,0,0v0l0,0,0,0,0,0h0v0l0,.12,0,.08,0,0,.06.06.07,0,.12.1.07,0,0,0,0,.07,0,.09,0,.13,0,.07.05.07.11.12.11.08.09,0h.28l0,0v.05l0,0,0,0v0l0,0,.16.09.17.08.06,0,.06.06.15.08,0,0,.09.08,0,.06v0l0,.05v0l0,0,0,0,0,0L59,41.32l-.12,0h0l0,0v0h-.06l0,0,0,.05,0,.07-.05.11v0l0,0,.07,0,.05,0,0,0v.09l0,.06,0,0h-.1l-.05,0,0,0V42l-.08.06,0,.06,0,0v0H58.3l0,0V42.1l0,0h0l0-.07v-.05l0,0h.08v-.07l0,0v-.13l-.06-.11,0-.1,0,0,0,0h-.09l-.11-.07h0v0l0,0v-.08l0,0h-.11l0,0h0l0,0v0l0,0h-.09v0l-.06-.1,0,0h-.06l-.06,0H57.5l0,0h0v0l-.05,0-.07,0-.14-.15,0-.05-.08-.06L57,40.4l0,0-.07,0h0v0l-.07-.08,0,0v-.06h-.06V40l0-.06,0-.06,0-.14v0l0,0-.1,0-.14-.1h0l-.09,0h0l-.07,0-.08.07-.07.09h0l-.09,0h-.07l-.08,0h0l-.1.09,0,0h0v0l0,0H55.3l-.06,0,0,0h-.07l0,0-.09,0,0,0H54.9v0h-.14l-.07,0h-.06l0,0,0,0h-.08l0,0-.17.1,0,0,0,.07v.13l0,0h0v0h0v0h0v0h0v.06l0,0,0,0-.23.11-.06.05h0l-.17,0-.12,0h-.06l-.08.07,0,0h0l0,0,0,0,0,0h0l-.09.11-.07.08,0,0,0,0-.09.13v0l0,.14,0,0,0,0,.06,0v0l0,0-.06,0-.12.05,0,0v0l0,0,0,.06,0,0h0l0,0v0l0,0h-.21l-.11.07-.06,0,0,.11-.06.06h0l0,0h-.09l0,0H52l-.05,0h-.3l0,0-.06,0h-.09l-.09,0,0,0,0,.05v0h0v0h-.06l-.06,0-.06,0h0l0-.05v0l0,0v0h0l0,0v0l0-.05,0,0h0l0,0,0-.05L50.8,42v0l0,0h-.2l-.12.06h0l-.07,0h-.24l0,0h0l0-.05,0-.1v-.17l0,0,0-.09v0l0-.06h.08l0,0,0,0h0l-.06,0h0V41.4h.08l0,0v0l0,0,.06,0h0l0,0,0,.07,0,0h-.12v0l0,0v-.05l0-.06h0v0l0,0h0l0-.05.06-.1.06-.12h0v0l0-.14h0l0,0v-.16l0,0,0-.11v0l0,0h0v-.05l0,0h0v-.06l0,0,0,0h0v0h0v0h0v-.07h-.08v0l0,0h0l0,0v0l0,0v0l0-.05,0,0h0l0,0h.12l0,0h0l0,0v-.06h0l0,0h.05l0,0,0,0h0l0,0,0,0,.07,0h.41l.06,0,.12,0,.07,0,.2,0h.33l0,0,.12,0,0,0h0l.09,0,.09,0h.12l0,0h.07l.05-.05,0-.18,0-.21,0,0h0l0,0h0v0h0l0-.2,0-.07,0-.08,0,0,0,0,0,0L53,39l0,0,0,0v0l0,0,0-.12,0,0,0,0-.1-.06v0h0l0,0v0h0v-.21h-.09l-.13-.07,0-.08,0-.05v0l0,0,0,0h0l0,0,0,0h.07l0,0h0l-.07,0h-.18v0h0l0,0h-.12l0,0h-.11l0,0h-.11l-.13,0h-.14l0,0,0,0-.08,0h.12l0,0h0v0h0v-.07l.07,0,.15,0h.12l.05,0,0,0h.08l.07,0,.07.08,0,0,.08,0h.12l0,0v0l0,0h0v0h.14l0,0,0,0v-.16l0,0,0-.07v-.05h0v0h.09l.07,0,0,0v.08l0,0v0H53l.06,0h.08l.12,0h0l.05,0h0l-.05,0v0l0,0,.14-.06h.1l.08,0h0l.06,0,0,0h0v-.24l0,0,0,0,0,0,.17,0,.17-.07.08,0h.29l0,0h-.06l0,0h0l0,0,0,0v0h.13l.08.06h0l0,0,0,0h0v0l-.06-.06h0l0,0v0h0l0,0,0,0,0-.05,0,0,0-.15v0l0,0h0l.05,0,.09,0,0-.05,0,0,.1,0h.29l0,0,0,0h.07v0l0,0v-.08l0,0h.24l0,.06v0l0,0h0v-.05h0l0,0v0l0-.05v-.07h0l.09,0h.09l0,0,.08.09,0,0h0l0,0-.11-.11,0,0h0l0,0h0v-.13l0,0h-.06v0H56l0,0v0l0,0,0-.05,0,0v-.11l0,0h0V35l0,0-.08,0-.07,0v-.16l0-.07v-.21h0l.06,0h0l0,0h0v0l0,0h0l0,0,0,0v-.13l-.05,0h0l0,.06,0,.06H55.8l0,0,0,0v0l0-.05.06-.06h0l0,0h.14l0,0,.07-.1,0,0h.08l.08,0h0l0,0v0l0,.05v.09l0,0,0,.06h0v.17l0,0h.14l0,0v.06l0,0h-.06l0,0h0v0l0,.08v.06h-.07l0,0v0h0l0,0v0l0,0,0,0,0,0V35l0,0v0h.08v0l0,0h0l0,0,0,0v0l0,0,0,0h.09v0h0l.12.06.06,0h0l0,0v0l-.06,0v0h.08l.09,0h0l.06-.06H57l0,0,0,0,0,0,.05,0h.14l0,.06.09.06h.08l0,.05v.08l0,0,0,0,.07,0,.07,0h0V35.7l-.06,0h-.13v-.05l0,0h0v0h0l.07,0,.05,0h0l.1,0,.16,0,.18,0h.08v0h0l0,0,0,0h.1l0,0,.07,0,.16,0h.14l.06,0,.07,0,0,0,0,0,0,0h0l.05.1,0,0,.05,0,0,0h.12l0,0h0l0,0,0,0,0-.05v-.07l0,0h.12l0-.05,0,0v0l0,0v-.08h0v.11l0,.07-.06.08,0,0h0l0,0h.09v-.22l0-.07L59.47,35v-.19l0-.17v-.08l0,0,0,0v-.13l.06-.1h.06l.07,0,.09,0,0,0v0l.12.1,0,0,.06.1.11.06h.07l0,0,.05,0,0,0v0l0-.14,0-.06V34.1l0-.08V34h0v0l0,0h0v0h0l0,0-.07,0,0,0v0l0,0,0,0v0h0v0h0l0,0v0h0l0,0v0h0v0l0,0h.11v0h0l.05,0h0l.08,0h.15v-.06h.08l.18,0h0l.07,0h.13l.14,0,0,0h0v-.13h0l0,0,0,0,0,0v0h.13v-.06l.14,0,.12,0h0v0l0,0h0l0,0,0,0h-.09l-.08,0-.08-.06,0,0,0,0,0,0,0,0V33l0,0h0L61,33h-.17l-.07,0h0l0,0h-.11v-.08h0V33l0,0h0l-.05,0h0l0,0v0h-.05l0,0h0l0,0H60.3l0,0H60.2l-.06,0,0,0h0l0,0H60l-.07,0h-.07l0,0,0,0h-.05v0l0,0v0h0l0,0,0,0h0v.05h-.09v0h0v0h0v0h0v0h0l-.07,0-.09-.05h0l0,0h0l0,0,0,0h0v-.08l0,0v-.27h0l0,0v0l0,0,0-.05,0,0v-.16L59,32l0,0,0,0v-.08l.06-.06v0h0l0,0v0h.14l0,0v-.06h0v0h0l0,0v0h0l.06-.06,0,0h0l0-.06h0v0l0-.06h0v-.05l.05-.06,0-.07,0,0v0h0l0,0h.08v0h0v0h0v0l0,0v-.16l0,0-.11-.06h0l0,0v0h0l0,0,0,0H59.4l-.06,0H59.2l-.05,0,0,0,0,0h0l0,0h0v0h0v0h-.08l0,0h-.07v0h0l0,0h0l0,0v0l0,0v0l0,.05,0,0,0,0v0l0,0,0,0,0,0,0,0,0,0v0h0l0,0,0,.06,0,.14h0l-.06,0v0l0,0-.07,0,0,0v0h-.06v0l0,0v.06l0,0H58.3v.05h0v0h0l-.06,0h-.07l0,0h0v0l0,0v.05h0l0,0h0l0,0h0l0,0h0v0l0,0,0,0,0,0h0v.23h0l0,0v0l0,0v.08l0,0v0h0v0l0,.07v0l0,.06v.05l0,0h.06v0h.08l0,0,0,0,0,0h0l0,0v0h0l0,0,0,0,0,0v0l0,0v0h0l0,0,0,0h0l0,0h-.07l-.05,0v0h.06l0,0h0l0,0h0l0,0h-.06v.07h0l0,0,0,0,0,0h0l0,0-.06,0,0,0-.07,0,0,0h-.05l.05,0h-.08l0,.06,0,0,0,0V34h0v.21l0,.07v.24l0,0,0,0,0,.11,0,0h0l0,0h-.29l0,0h0l0,0,0,0h0l0,0v.07l0,0,0,0,0,.05h0l-.08,0-.14,0-.13,0v-.15l0,0,0,0L57,34.67l0-.05v0h0l.06,0h0l0,0v0h.05l0,0v0l0,0h0L57,34.37l0,0-.09-.14,0-.1h0V34h0v-.12h-.05l0-.06,0-.09,0,0h0v-.05l0-.09v-.08l0,0v-.06h0l0,0h0v0l-.07,0h-.08l0,0,0,0v-.09l0,0h0v0h0v.07l0,.1h0l0,0h0l0,0,0,0h0l0,0,0,0v0h0l-.07,0,0,0,0,0h0v0l-.07,0-.11.11-.06,0,0,0h0l0,0h-.26l0,0h0v0h0l0,0h0v0l0,0h0v0h-.08l-.1-.06,0,0-.09,0,0,0,0-.05v-.13l.08,0,.07,0h0l0,0,0,0h0l-.06,0,0,0,0,0v0h0v-.08l0,0,0,0,0,0,0,0H55l0,0,0,0h-.08l0,0h-.08l0,0v-.1l0,0v0h0l0,0h0v0h.06l0,0h0l.06,0h-.13v0l0,0,0,0,0,0v-.07l.06,0,0,0,0,0v.1l0-.1v0h0l-.13,0-.05,0v0l0,0,0,0v0l0,0h0l0,0,0,0,0,0,0,0h0v0h0v-.08l0,0v0l0,0v0h.14v0H54.8l0,0,0,0,0-.06v0l.1,0,0,0h0l0,0-.06,0,0,0,0,0,0-.06v-.09h.14l.13,0,.09,0h0l0,0h0l0,0,0,0v.05h0v0l.14,0,0,0h-.06l0,0,0,0h0l0,0v.07h-.2v0h0v.06h0l-.09,0h-.22l-.06,0,0,0V32.2h.07l0,0,0,0,0,0,0,0V32h.16l.09,0,.07,0h.13l.07,0h0L55,32H55l-.14,0h-.14l0,0v-.05l0,0,0,0h0v0h0v0l.05,0h0l0,0h0l0,0h0l.11,0h0l0,0h-.16v0h0V31.7h.29l.06,0h0l0,0h0l.07,0h.08l0,0-.17,0-.05,0h-.14v0l0-.05h0l.11,0,.05,0h.08l.06,0,0,0,0,0,.09.06v0l-.09-.08,0,0,0,0v0l0,0h.1v0l0,0h0v0l0,0h.07l.09,0h0l0,0h0l0-.05h.1l0,.05,0,0h0l0,0h.09l.07,0h.05l0,0h0v0h0l.05,0h0l0,0h0v0l0,0h0l0,0,0,0h-.07l0,0,0,0h0l0,0,0,0-.15.08-.08,0h0v0l0,0,0,0h0v-.06l0,0,0,0,0,0v0l0,0,.08-.11.07,0,0,0,0,0,0,0h0l0,0,0,0h0l0,0h0v-.07l0,0,.17-.08,0,0,0,0h.06l.05-.05,0-.05h0l0,0,0,0h0v0h0v-.14l0,0,.06-.08v0l0,0h0l0,0-.05,0h0l.15,0h.13l0,0,0,0-.07,0h-.15l0-.09v0h0V30l0,0h0l0,0h.07l-.05,0,0,0v0h0l0-.05,0,0h0l0,0h.27v0h-.25l0,0v0l0-.05,0,0H57l0,0h0l0,.05h0v0l0,0h-.09l0,0V29.5h0l0,0-.06,0h-.06v-.06l.05-.06H57l0,0h.05v0H57l0,0h.05l0,0h0l0,0h0l0,.08.05.07h0l0-.05v0h0v0h0l0,0,0-.07h0l0,0h.06l.06,0h.06l0,0h-.21v0h0l.05,0h.06l.05,0,0,0v-.06l0,0,.09,0h0l0,0v0l0-.05v0h0l0,0,0,0,0,0h.06l0,0,0,0v0h0l0,0h0v0l0,0,.11,0v0l0,.08v-.1l0,0h0v0h0l0,0v.16l0,.08h0l0-.08.07,0h0l0,0,0,0,0,0v-.1h.08l0,0h0V28.5h0l0,0,0,0,.05,0h0l0-.08,0,0-.05,0-.06,0h0v0h.1l0,0h.05l0,0h0v0h0l.05,0h0l0,0,0,.06,0,0,0,0h0l0,0v-.08l0-.07.05,0h0l0-.08h0v0h0v0l0,0,0-.05h0l0,0,.06,0,0,0,0,0h0v0h.09v0l0,0,0,0,0,.06v.19l0,0h0l0-.05V28.4l.07-.13,0-.07,0-.06h0l0,0v.09l0,0v.1h0l.06,0v-.11l0,0h0l-.07-.05h0v0l0,0h.12l.07,0,0,.05v0h0l-.06,0h.08v0l0,.06v.08h0v-.09l0,0v-.16h.08l0,0,0,0,0,0,.06,0h0l0,0h0l.05,0v0h0l0,0,.1.06v.06l-.09,0,0,0h-.07l-.26,0v0l.2.07h0v.08l0,0h.1v0h0l0,.05h0v0h.12l.11.05h0v-.05h0l0,0h0l0,0v0l.1,0,0,0,.09,0h0v.05h0l-.14-.05v0l0,0,0,0,0,0h0l.06,0h0v0h0l0,0h0v.13l0,0v0h0l0,0V29h.16l.12,0h.07v0h0l.14.05.2.1.29.16.19.14,0,0,.06,0h0l.21.13h0v0l0,0h0l0,0,0,.05,0,0,.05.05,0,0h0l0,0,0,0,.07.13,0,0,0,.06,0,0h0v0l0,.1v0l-.07.17-.07.06-.15.07-.12,0h-.06l-.11,0-.07,0-.09-.05-.08,0h-.14l-.2,0,0,0-.15-.1,0,0h0l0,0h0l-.08,0h-.06l0,0h-.07l-.09,0,0,0,0-.06v0h0l-.13,0h-.12l0,0h.06l0,0,0,0v0l.06,0,0,0h0l.06,0,0,0v0l0,0,.05,0h0l0,0v0l0,0h0l.14,0,.08.06.09.08,0,0v.19l0,0,0,.05L62,31l.06.08,0,0v0l0,0h0l0,.07,0,.06.07,0h.08l0,0,.1.07.06.08h0l.09,0,.06,0,.11.05h0l0,0,.06,0,0,0,0,0,0-.05,0,0,0,0h-.12l0,0,0,0-.09-.1,0,0,0,0,0,0v0h0l0,0V31h.05l.1,0,.14.12h.1v0l0,0h0l.11,0,.14.07h0v-.05l0,0h0l0,0h0l0-.06,0-.05,0,0L63.2,31l0-.05,0,0v-.07l.08-.07,0,0,0,0h.07l.07-.05,0-.06,0-.09v0h0l0,0,0,0h.14l.08,0h0l0,0v.06h.06l0,0,0,0,0,0v-.05l0-.05V30.4l0,0,0-.07v0l-.05-.05,0,0,0,0,0,0v-.19l0-.16V29.7l0-.05,0,0-.21-.15h0l0,0h0l.14.07h.2l.1,0,.08,0,.1.1.09.08.08.08,0,.05H64l-.12,0v0l0,.1v0l0,0,0,0,.11.06.07.09,0,.05,0,0h.14l.14,0,0,0v0l0-.11v-.08l0,0,0,0,.07,0,.06,0h0v0l0-.05,0,0h.09l.11-.08,0,0,0,0,0,0,0,0h.08l0,0h0l0,0h0l0,0v0h.05l0,0v0h0l0,0h0l0-.06.09-.08,0,0h.07v0h0l0,.05v0l0,.05,0,.05v0h0v0h0v0h0l.08,0h.1l0,0h0l0-.08,0,0,0,0h.05l0,0h.13l.06,0h0l0,0,.06-.11,0,0v0l.07,0h0v0l0,0,0,0,.06.05v0h0v0l0,.08,0,0,.06,0h0v0l0-.05,0-.05h.1v-.12l-.05-.08,0,0-.14-.18-.07-.06v0l0,0v-.06h0l.14.05.14,0,.14,0,.16.07.09.06.09.05v0h0l.06,0h0l0,0,0,0,0,0,.08,0,.06,0h0l0,.06.12.09,0,0,.1.06.05,0h0v-.1l0-.12,0-.07h0v0h0l0,0,0-.05-.08-.08-.07-.09,0,0,0,0,0,0-.11-.06v0l0,0v0l0,0,0,0,0,0,0-.05,0-.08h0v0l0,0,0,0,0,0-.05-.1-.07-.11,0,0,0,0h0l0,0v-.05l0,0h0l0,0v0l0-.06,0,0,0,0v-.13l0-.08,0-.08-.1-.19-.07-.13,0-.14h0v0h.25l.07.05h0l.06,0,0,0,0,0,.07.1,0,.07.08.13,0,0,0,.1,0,.06v.07h0l0,0,.07.08.12.08.08.09,0,.07.11.18V29l0,.05.13.18.09.15,0,0,.06.11,0,0,0,.05,0,0,0,0,.08.06.09.06,0,0v.11l0,.06,0,0,0,.06,0,.05,0,.05v0l0,.05,0,.27v0h0l0,0,0,.06,0,0h0l0,0v0h-.06l0,0v0h0v0h0v0h0l0,0,0,0h-.12l0,0,0,0,0,0,0,0h0l.06,0,.07,0h.14l0,0,.07,0h0l0,0,0-.09v0l.07-.11v-.09l0,0-.05-.12v-.2l0-.06,0,0,0-.05,0-.07,0,0-.05-.06-.06-.11,0,0,0-.05,0,0,0,0h0l0,0,.05.06.1.09,0,.06L69,30l.11.18,0,.07,0,0h0l0,0,0,0h.1l-.06,0-.09,0-.06-.08,0,0,0-.09v0h0l0-.06,0-.05-.06-.07-.1-.14h0l0,0-.14-.09-.11-.06h-.08v.05h0l-.07,0h-.07l0,0,0-.1,0,0-.06-.05,0-.05,0,0L68,29l0-.05,0-.08,0-.07,0,0-.21-.2-.06-.08,0,0,0,0,0,0,0,0-.07-.2v0l0,0h0V28l0,0-.06-.08,0-.06,0,0,0,0,0-.05h0l0,0,0,.06,0,.05,0,0,0,0,0,0,0,0,0,0v0h0v0l0,.09h0l0,.07.08.08,0,.06v.05l0,0h0l.08.05.06,0H68l0,0v0h.08l.12.09,0,0h.08v0h-.06l0,0,0,0-.08-.09-.06,0h0L68,28.44l0,0-.09-.05,0,0,0-.05-.07-.07,0,0h0v0h0l0,0,.12.08h0l0,0v0l0,0,0,0h0l0,0,0,0,0,0v0h0V28h.13l.12.08.08,0,0,0h0l0,0,0,0,.15.12h.07l0,0h.07l0,0,0,0v0l0,.05v.08h0l0,.08v0l0,0,0,.06,0,0,0,0,0,.05,0,0,.05.06v0l0,0,0,0,0-.08-.06-.09v0h0l0,0,0,0,0,.06,0,.05,0,.09L69,29l0,0,0,0,0,0h0l0,0,0,0,0,0v0h0V29l0,0,0-.06,0-.05-.1-.11-.06-.05,0-.09,0-.09v0h0l0,0,0,0v0l-.08-.07,0,0h-.07l-.09-.08,0,0,0-.05h0l0,0-.05,0H68L68,27.93h0l-.06-.07,0,0,0,0,0-.05,0-.05,0,0,0,0,0,0,0,0,0,0,0,0,0,0,0,0v0l0,0,0,0,.06,0h.25v0l.05,0h0l0,0v0H68l0,0,0,.05v.13h0l0,0,0,0,.05,0,0,0,0,0,0,0h0l-.13-.09,0,0,0,0,0,0h0v0h0l0,0,0-.05v-.05H68l-.18-.17,0,0,0,0,0,0,0-.05v0h0l.06.05v0l0,0,0,0,0,0,0,0,0,0h0l0,0h0l0,0,.1.07v-.05l0-.08,0,0,0,0h0l0,0,0,0h0l.07,0v-.16h0v-.07l0,0h0v0h0l0,0v0l0,0,0,0h0v0l0,0h0l0,0,0-.05,0,0,0,0h0l0,0v0h0l0,0,0,0h0l0,0,0,0,0,.06h0l0,0v0h0l0,0v0l0-.05h0l0,0v0l0,0h0v0h0v0h0l0,0,0,0h0l0,0,0,0,0,0v0h0l0,0,0,0-.1-.11-.06-.05,0,0-.07-.05,0,0,0,0v0l0,0h0v0l0,0h0l0,0,0,0,0,0h0l0,0,0,0,0-.05,0,0,0,0,0,0-.05,0v0l0,0,0-.05-.12-.15,0-.06h0l0-.05h0l.07,0,0,0,0,0h0l0,0,0,0,0,0v0l0,0,0,0v0h0l.06.05h0v0h0l0,0h0l0,0,0,0,0,.05,0,.05.07.08h0l0,0h0l0,0h0l0,0,0,0,0,0h0v0l0,0v0h0A28.44,28.44,0,0,0,27.26,27.1h0v0l0,.07h0l.05-.06h0l0,0h0l0,0h.05v0l.09-.09h0l0,0v0h0l.05-.05h0l0,0h0l0,0h0l0,0v0h0l0,0h0l-.05.05h0l0,0,0,0h.07l0,0,.05,0h.07v0h0l0,0,.07-.06,0,0h0l0,0,0,0h0l0,0h0v0h0l0,0h0l0,0h0l0,0-.12.1-.06,0h-.07l0,0h0l-.05.05,0,0,0,0,0,0h0l0,0-.05,0,0,0,0,0,0,0h0l0,0h0v0l0,0h0v0h0l0,0h0l0,0v0h0v0l0,0,0,0h0l0,0,0,0,0,0h.06l0,0h0l0,0h0l0,0,0,.05,0,0,0,0,0,0,.07-.07.05,0,0,0,0,0,.07-.05H28v0h0l0,0h0l0,0h0l0,0,0,0h0l0,0,0,0,.08-.07h0l.06-.05,0,0,0,0,0,0h0v0h0l0,0,0,0,0,0h0v0l0,.07,0,0v0l-.07.08,0,0,0,.05,0,0,0,0-.05.08,0,0v0h0l0,0,0,0,0,0v0h0l0,0h0l0,0h0l0,0h0l0,0h0l0,0h0l0,0,0,0,0,0-.06.06v0h0l-.08.07,0,0h.05l0,0h0l0,0,.05,0,0,0h.1v.07l0,.09v0l.05,0h0v.11l0,0h0l0,0h0l0,0h.07v.13l0,0,0,0v0h0l0,0h-.09l0,0,0,0h0l0,0h0l-.05,0h0v0h0v0h.31l0,0h.06l.09-.05h0l0,0h0l0,0h0v0l0,0h.05v0l0,0v0h0l.06-.06h0l0,.05V28l0,0h-.08v.08h0v.08l0,.07v0h0l0-.09,0,0h0l0,0,.05-.07h0v0h0v0h0l0,0v0l0,0h0v0l0,0,0-.05,0,0,0,0v-.11h0l0,0h0l0,0,0,0v0h.16l0,0h0l0,0h0l0,0h0l0,0h0l0,0,0,0h0l0,0-.05,0,0,0,0,0h-.05l0,0h0l0,0h0l0,0h0v0l0,0H29v0h0l0,0,.12-.1h.08l.05,0,.12,0h0l.08,0h0v.09l-.05.06,0,.06v.06h0l0,0h0l0,0h0v0h.11l0,0v.14l0,0h.06l0,0h0l.08,0h0l0,0h.1l.05,0h0v0H30l0,0h.05v-.07h0v0l0,.1v0h0l0,0h0l0,0h.05v0h0v-.07h-.06l0,0h0l0-.06v0h0v0h0l0-.05v0h0v0h0l.06,0v0l0,0h0v0h0v.1h.05l.05,0h0l0,0-.1.07h0l0,0h0l.08,0h0l0,0-.13.14,0,0v0l-.07,0V28h0l0,0h.07l0,.05h0v0h0l0,0,0,0h-.12v0h0v.16l0,0h0l0,0v-.11h0l0,0h.05v0l.06-.07,0-.05,0,0,0-.07,0-.05v0h0l.12-.13h.07v0h0l.08-.05,0,0,0,0,.06,0,0,0,.06,0,.05,0h0l0,0,0,0,0,0v-.05h0l0,0,0,0,0,0H31v0l0,0,0,0,.07,0,0,0h0l0,0h0v0h.09l0,0h0l-.07.05h0l.05,0,0,0h0l0,0v0h0l0,0h-.05V27h0l0,0h0l0-.05v0h0v-.09l0-.06,0,0h0l0,0,.08-.06,0,0,0,0h.05v0h0l0,0h0l-.06,0h0v0l0-.06,0,0,.05-.05,0,0v0h0l0,0h0l.05,0,0,0h0v0h0l.07-.06h0v0h0l.06,0L32,26,32,26l.07,0h0v0l0,0v0h.06l0,0v.1l0,.06h0v0l0,.06,0,0-.06.07h0v.06h0v0h0l0,.05v.05h0l0,0H32l0,0v0h-.09v0h0l0,0,0,0h.06v0l0,0-.06,0-.13.08h0l0,0h0l.06,0h.05l0,0,0,0h0l0,0h0l0,0,0,0,0,0h-.07l0,.09,0,.07v0h0v0l0,0,0,0,0,.06v.06h0v0h0l0,0,0,0,.05,0v0l0,0h0l.06,0,0,0,0-.06,0,0,0,0,.08-.07H32v.21l0,0,0,.06,0,0v0l0,0,0,0v0h-.05v0h0l0,0,0,0,0,0-.05.08h0l0,.09v.19h0l0,.05h0l.05,0,.06,0,0,0h.07v0l.05-.05,0,0,0,0h0l.14-.09v0l.11-.11,0-.05,0,0,0,0,0,0,0,0h0l0,0h.12l0,0h0l0,0,0,0h0v0l0,0h0l0,0h0v0l0,0h0l0,0h0v0h0v0h0v0l0,0h0v0h0v0H33l0,.05,0,0h0l.09,0h.07l0,0v0l0,0h-.06v0l0,0v.05h.08l0,0h0v0h0l-.09.05h0l0,0v0h.1v.06h0l-.07.05H33v0h-.1v0h0l0,0h0v.06h0l0,0h0l0,.05v0h0V28l0,.05v.08l0,0-.06.08,0,0h0l0,0h-.06l0,0,0,0,0,0,0,0h0l-.06,0,0,0h-.07l-.08.05,0,0h-.06l0,0h0v-.11h0v0h0v0h0l0,0h0l-.05,0,0,0h0l0,0h0v0h0v.08h0v.19h0l0,0h0l0,0h0l0,0,0,0v-.12l0,0,0,0h-.17v0h0v0l0,0,0,0v0h0v0l0,0h0l-.21.15-.08.06-.05,0,0,0H31v0l0-.05v0h0v0h0v0l0-.05,0,0h-.05v0h0l0,0h-.18v0l0,0v0h0l.05,0,.05,0h0V29l.11,0h.14l0,0h0l0,0v0l-.07.06,0,0-.22.18,0,0,0,0,0,0-.07,0-.07,0h-.06v0h0v.05h0l0,0h0v0h0l0,0h-.05v.05h0l0,0h0v.07h0l-.05.05,0,0H30l0-.05h-.12l0,0,0-.05-.05,0v-.06l0,0v0h0v0h0v0h0v0l.07.06,0,0h0l-.07,0h0l.05,0h.06v.09h0l0,0v.06l0,.08,0,0v0h-.09l-.07,0h0l-.06,0h-.1v0h.05l0,0h0l0,0h0v0h-.07v0h0l0,0,0,0h0v.06h0v-.06l0,0h0v.05h0l-.05,0h0l0,0h0v0h-.05v0h0v0h0l-.08,0-.06.06h0l0,0h0l0,0h0v0l0,0,0,.05-.06.06-.06.06,0,.06,0,0h0l0,0h0v0l0,0-.06.09,0,.06-.11.2-.05.09,0,0,0,0h0v.05h0v0h0v0l-.08.13v0l0,0,.06-.11,0,0h.16l0,.06v0l0,.12,0,.06,0,.1v0l0,.13v.08l0,0,0,0,0,0,0,0v0h0l0,0h0l0,0h0l0,0,.2-.07h.09l0,0,0,0,0,0,.07,0h0l0,0,0,0v0l0,.05,0,0,0,0,0,.06V33l0,0,.06,0,.08.06,0,0h0l0,0,0,0v.08l0,0v0l-.07.08h0l.05-.06,0,0h.25l0,0h0l.06,0h.06v0h.06l0,0v.11l-.09.13,0,0,0,.05V34l0,.06v0l0,.06,0,0,0,0v0l0,0v.32h0l0,0v0l0,0,0,0,0,0,0,.07V35h0l-.05,0-.05.06h0l0,0,.06,0h.08l0,0,0,0,0,.07,0,.06v0l0,0v-.05h0v0l0,0,0,0,0,0h0v0l0,0h0v0h0V35l0,0v0l0,0h0l0-.08h0v0l0,0v0l0,0,0-.05,0,0h0v-.09l0,0h0v-.07h0v-.15l0-.09V34h0l0,0h0v0h0l0,0h0v0h0v0h0v-.18h0l.12,0,.07,0h0l.1,0,0,0,.05,0,.07,0,0,0,0,0,.11-.08.06,0,0,0,.05-.05.06,0,0,0,0,0,0-.07,0-.05,0-.09,0-.08,0-.12v-.37l0-.08v0l0,0,0,0,0,0,0-.08h0v0l0,0,0,0v0h0l.07-.05,0,0,0,0,0,0,0,0,0,0v0h0v0l0,0h0v0h0l0,.05h0v-.05h0l0,0h0v0h0l0,0h-.05v0h0v-.12l0,0h0v0h0l0,0h-.05l0,0h0l.08-.06,0,0,0,0,0,0h0l0-.07v0l0,0,.05,0,0,0v-.05h0v-.07l0-.09,0,0,0,0v0h0l.05,0,.08,0,.06,0h0l.06,0,0,0,.13.07,0,0,0,0h0l.09,0h0l0,0h0l0,.06h0v0h0l.06,0,0,0,.05,0,0,0,0,0h0l0,0,0,0v.06h0l0,0h0v0h0l0,0-.05.05h0l0,0h0l0,0,0,0v0h0v0h0v0h0l0,0h0l0,0h0l0,.06,0,0h.08l.06,0h.12v.05h0l0,0h.09l0,0h0v.06h0v0h0l0,0h0l0,0,0,.05,0,0v.12h0v0h0l0,0h-.23v0h.06l.11,0h0v.11l0,0,0,0,0,0,0,0v0h.07l0,0v0h0l0,0,0,0v0h0v0h-.1l0,0h0l0,0,.09,0,0,0h.16v.14h0v.06l0,.07,0,0,0,0h0l-.06,0h0l0,0h0l.07,0h.07l0,0h0l0,0,.06-.09,0,0h0v.06h0v0l-.06,0h0l0,0,0,0v0l0,0h0v.06l0,0v0l0,0h0l0,0v0h0l.06,0,.07,0,0,0h.08l0,0,0,0,0,0h0l0,0h0v.09l0,0h0l0-.05h0v-.1h0l0,0h.12l0,0h0v0h0l0,0,0,0h0l0,0h0v-.05h.06l0,0h0l0,0,0,0h0V31.7l0,0h.06l0,0h0v0l0,0,0,0,.06-.08h.07l0,0v0l0,0-.05,0h.1v0l0,.06,0,0,0,0h0v.14l0,0,0,0h0v0l0,0h0l0,0h0V32l0,0h0v0h0l0,0h.06v.08l-.08,0h0l0,0,0,0,0,0h0l.06,0h0v0h0l.07,0h.06l-.05.06,0,.05-.07,0,0,0,0,0h0l.07,0h.13l0,.08h.05l0,0v0h0v.06l0,0,0,0h0l0,0,0,0h0l0,0h.06l0,.08v0l0,0v0l0,0h0l-.13,0-.06,0h0l0,0h-.05v0l.07,0,0,0h0v0h0l0,0h0l.06,0h.05l0,0h-.08v0h.08v.06h0v0h0l0,0,0,0h0v.05h0v0l0,0h0v0l0,0v0l0,0h0l0,0,0,.05v0l0,0,0,0h0l.07,0,0,0h.14v0l0,0h.05l0,0-.09.07,0,0v0l0,0,.1-.06h0l0,0,0,0h.06v.14l.07,0h.08v0h.06v0l0,0,0,0h.06l0,0h0l0,0,0,0,0,0h-.12v0h-.08l-.05,0,0,0h-.1v0h-.06l-.09,0h-.1l0,0h0v0h-.05l0,0v0l0,0v0l0,0,0,0h0l.05,0,0,0H35l0,0,.07,0,.07,0,.08,0,.1,0,.06,0h-.05v0h0l0,0h0l.15,0,0,0,0,.1v.06h0l0,0-.07,0h0v0l0,0,.07,0,.05,0h.11v.06h.06l0,.05v.07h0v0h0v0l0,.06v.07l0,0v0h0l-.1,0h0l.06,0,0,0v0h-.09l0,0v0h0v0l0,0-.11.08-.08,0-.09,0-.14.09h0l0,0h-.05l-.09,0h0l0,0H35l0,0-.14.11,0,0-.07,0-.08.07-.06,0,0,0-.06,0h-.33l-.12,0,0,0h-.08l0,0h-.2l0,0h-.09l0,0h-.07l0,0-.09,0h-.37l0,0h-.09l0,0h0l0,0-.06,0-.12.16,0,.06,0,0h0l-.13,0-.07,0v0h-.09l0,0v0l-.08,0-.1.1-.06.07-.06,0,0,0h-.05l0,0h0l-.06,0-.15,0h0l0,0h.08l.07,0h0l0,0v0l0,.06,0,0,0,0-.11.09,0,0-.09.11-.08,0-.05,0-.05,0-.1,0h-.06l0,0H31l0,0-.13.07h0l0,0,0,0,0,0h0l0,0-.06.06h-.06l0,0,0,0,0,0-.07,0,0,0,.05,0v0h0l-.07,0-.1.08,0,0,.09,0,.06,0,.08-.06h.05l0,0,0,0v0l0,0,0,0,0-.05.05,0,.07,0,.08-.07,0,0h0l0,0h0l.06,0h.06l.06,0h0l0,0h.05l.13-.06,0,0,.06-.07,0,0,0,0,.07-.06.08-.08,0,0,.05,0,.1-.09.06,0h0l0,0,0,0,.06,0,.1,0,.1,0,.12,0,.15-.06.11,0H33l.14,0,.06,0,.06.08v.05h-.08l0,0,0,0,0,0,0,.05-.08,0h0l0,0h0l0,0-.07,0h0l-.06,0,0,0,0,0,0,0h-.09l-.08,0h.1l0,0,.08,0,0,0v.07h0l0,0h.09v0h0l0,0,0,0,0,0,0,.08-.06,0-.07,0v0h0l0,0h.05l0,0,0,0v.07l0,0v.12l0,0v0H33v0H33v0l-.07,0,0,0,0,0h0l0,0v0h.1l.06,0v0l0,0h.09l.06,0,.09,0h0v.06l0,0h0l0,0v.09h0l0,0,.09,0h0v0h-.08l0,0h-.07l0,0h0l-.07,0-.07,0-.07,0-.08,0-.07,0h0l0,0H33V38h-.09v0h0v0l0,0v0h0l0,0h0v0h0l0,0,0,0,0,0,0,0v0l-.07,0h0l0,0v0h0v0h0l0,0h0v-.1h0v0h0l0,0v-.13l0-.09.08-.07h0l-.07.05h0l0,0,0,0h.08l0,0h-.06l0,0h0l.23-.13,0,0,.09,0v0l0,0h0v0h0v0h0l0,0v0l0,0,.1,0h.08l0,0-.07,0H33l0,0h-.16l0,0h0l0,0,.08-.05.06,0h0l0,0h0v0l0,0h0v0l-.06.07h0l0,0-.06,0-.08,0-.1,0h0l0,0h0l0,0h0l0,0,0,0h-.05l0,0,0,0v0l-.06,0h-.05v0H32.1v.1h0l-.07.05h0l0,0h0l0,0h-.06l0,.05h-.05v0h0v0h0v0h0V38h0v0h0v0l0,0h0v0h0l0,0,0,0v0l0,.07v0l0,0H31.4v0h0v0h0l0,0h0v0h0l0,0h0v0h0v0h0v0h0l0,0,0,0h0l-.05.06-.05,0,0,.08h0l0,0,0,.05v.06h0l0,0h0v0l0,0,0,0h0l0,0h0v.08h0l0,0V39l0,0,0,0,0,0,0,0h0v-.07h0v0h0l0,0V39h0L31,39h0l-.05,0h0V39h0l-.08.06h0l0,0h0v0l0,0h0l0,0v0h0v0l0,0,0,.07,0,0h-.35l0,0h-.05l-.11,0,0,0,0,0H30l0,0v0l0,0v-.07h0v.13l0,.06h0v0h0l0,0v0l0,0h0v.08l0,0v0l0,0,0,.06v-.08h0v0l0,.08,0,0,0,0h0v0h0v0h-.05v0h0l0,.08,0,0h0l0,0v0h-.05l0,0,0,0,0-.06v0l0,0,0,0,0,0h0l0,0v0l0,0h-.06l0,0,0,0,0,0V40l0,.06h0v0l0,0h0v.08h0v0h0l0,0,0,0-.09.17v0h0l0,0h0l0,.05h0l0,.06v0h0l0,0,0-.08,0,0,0,0,0,0h-.05v0l0,0,0,0h0v-.08h0v0h0v0h0v-.08l0,0h.05l0,0v0h0v0h0l0,0h0v0h0v0h0l0,0v0l0,0V39.9l0,0,0,0h0l0,0h0v0h0v0h0v0h0v0h0v0h0v0h0l0,0h0l0,0h0v0l0,0v0h0v.27h0l0,0v0h0v0l0,.07v.07h0v0l0,0h0v0h0v-.06h0l0,0h0v0l0,0,0,0V40l0,0v0h0l0,0v0l0,0v0h0l0,.06.05,0h0v0l0,0,0,0h0v.07h0l-.05-.11h0l0,0,0,0h0l0,0v0l0,.05v0l0,0v0l0,0,0,0h0v.05h0v0h0l0-.08h0l0,0h0l0,0,0,0v.06l0,0h0v0l0,0v0h0l-.05,0H29l0,0,0,0h.05v0l0,0v0h0l0,0h.06V41l0,.14v0l0-.09v-.2h0v0h0l0,0h0v.1h0l0,0v0h0v0h0l0,0h0l0,0v0h.16v.11h0l0-.07,0,0h0v.07l0,.05-.05,0,0,0h0l0,0h0v0h0v0h-.06l0,0v0l.09.06h0v0l0,0v0h0l0,0h0l0-.06,0,.05v0H29l0,0,0,0,0,0h-.15l0,0h0v0h0l0,0,0,0h0l0,0,0,.05v0l0,0V41.8l0,.06v0h-.14l-.07.05,0,0-.06.09,0,.06h0v0h0v0l0,0v.07l0,0h0v0l0,0,0,0h0v0l0,0,0,0H28l0,0h0v.05h0v0h0l0,0v.06h0l0,0h0v0l0,0,0,0h0v0h0v0h0v0h0v0h0v0h0v0l0,0h0v0h0V43h0v.41l0,.13,0,.15.06.19v.25h0l0-.1v-.12h0v0h0v-.09h0v0h0v0h0V44l.07.37,0,0v.19l0,.16v.11h0l0,.06,0,0v.1l0,0h0l0,0h0l0,0h0v0h0v0h0l0,0v0h0l0-.08,0-.06v0l0,0,0,0v-.17h0l0,0,0,0h0v0h0v-.15h0v0h0v0l0-.05,0-.12v0h0l0-.06,0,0v0h0v0h0v0h0v0h0v0h0v0l0-.15,0-.09,0-.11h0v0l0-.06-.1-.16-.07-.18L27,43.25h-.08v0h0l-.06,0h-.13v0h0v0l0,0,0-.06h0v0h0v0h0v0h0v0l-.07,0-.06,0h.05l0,0v0h-.23v0h0l0,0v0h0v0h0v0l0,0v0l0,0h0v0h0l0,0h0v-.05h0V43h0v0l0,0v0H26l0,0h0l0,0H25.9l0,0,0,0-.07,0,0,0h0l0,0,0,0,0,0h.06l0,0h0v.05h0v-.05h0v.05h0l0,0h0v0h0v0l0,0v0l.05,0h0v0h0v0l0,0v0h0v0h0l0,0h0v0h0v-.06h0v0h0v0h0v0l-.05,0h0v.11h0v-.05H25.6l0,.05h0l0,0-.05,0h0l0,0h0v0h-.06v0l0-.06h0v0l0,0h0v.06H25.2l0,0,0,0,0,0H25v0h0v0h0l0,.06v.05h0l-.1.07,0,0h0l.05,0h-.05l0,0v0h0v0h0v0h0v.12l0,0,0,0v0l0,0,0,0,0,.06h0l0,0h0l0,0h0l0,0,0,0h0l0,0h0l0,0v0h0l0,.08h0l0,0h0v0H24.3v0h0v0l0,0h-.05l0,.06,0,.09v0h0l0,0v0l0,0v.31l0,.13h0v.1l0,.06,0,.13,0,.08,0,.23,0,.15v.07h0v.43h0V46l0,.11v0l0,0v0h0l0-.06,0-.1v.18h0v0h0l0,.11,0,.11v.07l.08.16,0,.11,0,.11V47l0,.06v0l0,0v.06l0,0h0l0,0h0l0,0,0,0h0v0h0l0,0h.07l0,0,0,0,0,.06,0,.07h.07l.06,0,0,0,0,0h.08l0,0,0,0h0v0h.14l0,0v0h0l0,0h0l0,0,0,0V47.3h0v0h0l0,0h0l.06,0v0l0,0,.05-.07V47l0,0h0v-.3l0-.08,0,0,.06,0h0l.2,0h0l0,0H26l.05,0h0l0,0h.06v0h0l0,0h0v.07h0v.12l0,0,0,0,0,.05-.05.09V47h0v0h0l0,0v0h0v0h0v0h0v0h0l0,.08v.28h0l0-.06h0v-.13h0v.07l0,0v.06h0v.08l0,.1v.48h0v.05l0,0,0,.08v0h0l0,0,0,0,0,0v0h0l.08.08h0l0,0h0l0,0H26v0h.06l.08,0h.11l0,0h.05v0h0l.07,0h.07l0,0h0l.07,0,0,0h0l.06,0,.11.15h0l-.05-.05h0v0h.06v0h.06v0l0,0h0l.06,0,0,.06h0l0,0h0l0,0h0v0h0v0h0L27,49v0l0,0v0l0,.09v.14l0,.13v.19h0v-.06h0v.19h0v0h0v.07l0,0v.19l0,0h0v.05l0,.09,0,.05.05.1,0,0,.05.07v0l0,0v0h0l0,0h0v.06h0v0l0,0v0h.07v0l0,0h0v0l0,0,.05.06,0,0h.06l0,0,0,0,0,0,.1,0,0,0h0l0,0v0H28l0,0h0v0h.11l.11.06.06.06,0,.07.08.08h0l0,0,0,0,0,.05,0,0h0v0h0v0l0-.11,0,0h0v0h.05l.09-.1,0-.09,0,0,0,0h.06v-.07l0,0v-.13l0,0h0l0,0h0v0l0,0v-.09l0,0v0l0,0,0-.06h0l.09,0h0v0l0,0h0v-.06l0,0v-.08h.06l0,0h.12l.14-.14.06,0,.05,0,0-.06v0l0,0h0l.05,0h.06l.05,0,0,.06v0l0,0V50h0l-.1,0h0v.06l0,.07v0l0,.05h0v.06l0,0v.09l0,0v.05l0,0,0,.1,0,.06v0l0,0,0,0h0v.07l0,0h0l.06,0h0v0l0,0v-.16l0-.07,0,0,0,0,0-.07v-.11l0,0v0h.06l.11-.07h.06l.08,0,0,0v0h0l0,0h0v0l0-.05h-.09v0l0,0v-.07h.05l0,0,0,0V50l0,.06v0l0,0h.11l0,0h.06l.06,0,.06.06v.16l0,0,0,0h.5l0,0v0h0l.07.08h.05l.05,0h0l.05,0h.08l.17-.11h.12l0,0h-.11v0h.11l.11,0,.08,0h.13l.13,0h.1v0h-.09l0,0h-.12v0h0l0,0h0v.08h0v0h0l0,.09,0,.05h0v0h0v-.05h0l0,0,0,0h0v0h0v0l0,0,.06.08h0l.06,0,0,0,0,0,0,0h0v.08h0v.08l0,0h-.1l0,0h0l0,0,0,0h0l0,0h0l.08,0,0,0h.07l0,0h0l0,0,0,0h0l.06,0,.08.07.11.12,0,0,0,0,0,.06v.12l0,.06v.15l0,0V52l0,0,0,0h0l0,0h.05l.06.06.05.06,0,0,.05,0,0,0v.21h0v-.13l0,0,.15,0,.06,0,.09,0v0l0,0h.28l.14,0,.06,0h0v.11l0,0,0,0,0-.08,0,0h0l.12.08h0l.11,0,0,.06.1.08,0,0v.06l0,0,0,0v0l0,0v0h0v-.07h0v0l0,.09v.05h0v0l0-.06v0h0l0,0,0,0,.05.14,0,.13,0,.07.06.14v.06l0,0,0,.06h0v0h0v0l0,0,0,0h.08l0,0,0,0,0,.08v.09h0l0,0h0l-.06.05v0l0,0,0,.06-.05.07h-.06l0,0,0,0v0l0,.06,0,0h0l0,.07v.08l0,0,0,0v.06h0l-.06,0-.09,0h.07l0,0h.07l.08-.06h0l.06,0,0,0,0,0v0h0l0,0h0l0,0h0v.07l0,0,0,0v0l0,0h0l.06,0,0,0H36l0,0,.06,0,0,0,.08,0,0,.08v.21h0l0,0v0l0-.14h.07l.07-.1h0l0,0,0,0v0h0l0,0h0v0l0,0v0l0,0v-.05l0,0h0v0h0l0,0,0,0h.07l0,0,0,0h0v0h.07l0,0h.09v0l0,0v0h.12v0h0l0,0,0,0,.05,0h0l0,.07v0h0v0l0,0h.05l0,0,0,0h0v0h0l0,0,0,0,0,0v0h0v0h0l0,0h0l0,0h0v.07h-.05v0h0v.08l0,.12v0l0,0,0-.06v-.06l0-.07,0,0h0v0l0,0h0v0l.05-.05h0l0,0H38v0H38l.09,0,0,0,0,0,0,0,.1.05h.12l0,0,0,0,0,0h.05l0,0h.29l.09,0,.06,0,0,0,0,0,.05,0,.11.07,0,0,.06.06.07,0,0,0,0,0,.08.09.08.06,0,.07.1,0,0,.06.06,0h0l0,0h.24l.13,0h0l0,0,0,.1,0,.11v.09l0,.07,0,.12,0,0v0h0V57h0v0h0l0,0v0l0,0v.1l-.05.16,0,.09-.08.09,0,0h0v0l0,.07,0,0,0,.05,0,0h0l-.07,0,0,0,0,0L40,58h0v0l0,.06h0v0h0v0h0l0,0v.08l-.06.14-.07.11v0l-.06.08,0,0h0v-.06l0,0h0v0h0l0,0v0l0,0v0l0,0,0,0v.07h0v.12h0v0h0l0,.19,0,.09v.1l0,.09,0,.09h0v.1l0,.1v.24l0,.1v0l0,0,0,0,0,0,0,.08v.18l0,.13v.11l0,0,0,.06v.07l0,0v0l0,0,0,.06,0,0V61l0,.06,0,.08v0l0,.1v0l0,0-.12,0h0l-.06.08v.05h0v.05h-.28v0h0v0h0l0,0h-.09l0,0h.06l0,0h-.2v.05h0v0h-.09l-.06.06h0l0,0v0h-.13l-.15.09-.06,0,0,.07-.1.08-.05.05h0v0l0,0,0,0h0v0h-.07v0h0l0,0,0,0h.08l0,.07h0v.1h0l0,0h0v.09l0,.06,0,0v.06l0,0v.06l0,.08,0,.07v.07l0,0v0l0,0,0,0,0,.06,0,.08,0,.13v.18l0,.13,0,.05,0,.06,0,.06,0,.06-.06,0,0,0v0h0v-.07h.09l0-.06,0,0v-.1h0v0h0v0l0,0v0l0-.08h0v-.06h0l0,0h0v0l0,0,0,0v0h0v.06l0,0h0v0l0,.05h0v.07h0v0h0l0,0,0,0h0v.2l0,0h0v.27l0,0,0,0-.07.1h0v.07l0,.06v0l0,0v0h0l-.1.06,0,0h0l0,0h-.11l0,0h-.07l0,0-.1,0-.09-.07h-.16l0,0-.07-.06L36,64.62l0-.06V64.5l0-.07v0h0v-.07l0,0,0-.06,0,0v0l.06.12h0v0h0v.05l0,.11,0,0,0,0,0,0v0l0,0v0h0l0,0,0,0,0,0,.13.07.07,0,.07.05,0,0v.11l0,0,0,0,0,0,.06,0,0,0h.06l0,.09,0,0v0l0,.14,0,.08v.12L36.6,66l-.14.06-.11,0h0l-.19,0h-.19l0,0,0,0h0l0,0v0l0,0h0l0,0,0,0h0v0l0,.08h0l0,.07,0,0,0,0,.06.06v.06l0,0,0,0H35.9l-.08,0-.07,0,0,0-.05,0h0v0h0l0,0v0l0,0,0,0,.07.1,0,0,0,.06,0,0,0,0,0,0H36v0H36v0h0l0,0,0,0,0,0,0,0v0h0l0,0h0l0,0,0,0,0,0,0,0h0v0h0v0l.1,0,0,0h0v0h0l0,0h0v.09h0v0l0,0,0,.08v0l0,0v.14l0,0v0h-.11v0h0V68l0,0,0,0,0,0,0,0,0,0,.18.13,0,0,.12,0,0,0,0,0,0,0,0,.06v0h0v0h0l0,0h0v.08l0,0v.14l0,.07v0h0l.09.14h0v0h0l0,0,0,0,0,0,0,0h0l0,0v0h.06l0,0h0v.08l0,0,0,0v0h0l0,0,.06.06,0,0H37l.1.08.07,0,0,0h0l-.1,0h0v0l0,0h0l0,0h0v0l0,0,0,0,0,.06,0,0,0,0,0,0,0,.06h-.08l0,0H37l-.06,0,0,0,0,0v0H37l0,0v0h0L37,69.9l0,0v-.05H36.9v.06h0v.05h0v0l0,0h0l-.07,0h0v0l0,0h0v0h.05v0h0l0,0h-.11v0h-.06l0,0v0h0v0l0,0h0l0,0,0,0,0,0,0,0h0v0h0l0,0h0v0h0v0h-.07l0,0v0l0,0h0l0,0,0,0h0l.05,0h0v0h0l0,0h.05v0h0l0,0h0v0h0l0,0h0v0h0l0,0,0,0-.06,0-.08,0h0l.07,0,0,0h0v0h0v0h0l0,0,0,0h-.06l0,0h0v0h0l-.06-.08h0l-.05,0H36l-.07,0,0,0,0,0H36l0,0,0,0v0h0l.06,0h0l.07.07h0l.07,0h0l0,0,0,0h0l0,0v0h0v0l0,.06h0l0,0,0,0h0l0,0h0l0,0-.06,0h0l0,0,0,0V69h.06l0,0h0l0,0v0l0,0h.06l0,0h0l0,0h0V68.8l0,0h0l0,0v0h0l0,0v0h0l-.07-.08-.06-.07,0,0v0h0l0,0h0l0,0,0,0,0,0,0,0h.12l.08,0h0l0,0h0v0h0l-.06-.06h0v0l0,0v0H35.4v0H35.3v0h0l0,0h0v0h0l0,0v-.06h0l0,0,0,0,0,0,0,0h0l0,0-.05,0h0l0,0v0h0v0h0l0,0h0l0,0,0,0,0,0V68h0V68l0,0,0,0,0,0H35v0h0l0,0h0v0l0,.07v0h0l0,0v0l0,0h0v0l0,0,0-.06h0v0l0,0,0,0,0,.08v0h0V68l0,0v0l0,0v0l0,0,0,0h0l0,0,0,0h0v0h0l.05,0h0l0,0-.05,0h0l0,0v0h0l0,0,0,0,0,0h0l0,0,0,0,0,0v0l0-.05h0l0-.06,0,0,0,0v-.08h0l0,0,0,0,0,0,0-.05h0l0,0,0,0h0l0,0,.05,0h0l0-.05,0-.07h0l0,0h0v0h0v0h0v0l0,0h0v0h0l-.05,0h0v.06h-.1v0h0l0,0,0,0,0-.06,0,0v0L34,66.36l0-.06,0,0,0,0v0l0-.11,0,0-.15-.18,0,0,0,0,0-.07v0l0,0-.06-.07,0,0v0l0,0v0l.05,0h0v0l0-.06v0h0v-.08l0-.12V65l0,0v0h0v-.1l0,0,0-.09,0-.06v0l0,0v-.19l0,0,0,0,0-.05v0l0-.09,0,0v0l0-.06L33,63.82,33,63.73l-.06-.1,0-.05,0-.07v0l0-.09,0-.05,0-.07,0-.08,0-.06v0L32.69,63l0-.08v0l0,0V62.8l0-.1v-.13h0v0l0-.06v-.11l0,0v-.07l0-.06v0l0,0,0-.07,0,0v-.2l-.07-.12v0l0-.1,0-.06,0-.05v-.12h0l0,0,0,0v-.1h0v-.06l0-.09,0-.11v-.09l0-.07v-.12L32,60.49l0-.06,0-.09,0-.14v0l0,0v0l0-.06,0-.14,0-.07,0-.06,0,0,0,0-.1-.07,0,0,0,0-.08-.06,0,0,0-.06h0l0,0-.07,0,0,0,0,0,0,0-.05,0,0,0,0,0-.08,0,0,0-.08,0,0,0-.08,0h0L30.66,59l-.05,0-.06,0-.14-.1,0,0,0,0,0,0-.05-.06-.06,0-.05,0,0-.05-.05,0v0l0,0,0-.06,0,0h0v-.09l0,0-.06-.08,0,0,0,0,0,0-.05-.06,0-.06,0,0,0,0v0h0l0-.05,0-.08,0,0-.09-.08v0l0-.06,0-.06-.1-.14,0,0,0-.06,0-.09,0,0,0-.09-.05-.07,0-.06,0-.07v0L29,56.53l0-.06-.05,0h0l0,0,0,0-.08-.13v0l-.05-.07,0-.06,0,0,0,0-.17-.13-.07,0,0,0,0,0v0l0,0h0v-.07l0,0-.07-.1v0l0,0,0,0,0,0v-.14l0-.11v0l0,0,0-.05,0,0h0l0,0h0v-.25l0,0v-.07h0v0l0,.09v0h0v-.07h0v0l0,0h0l0,0-.07-.07,0,0,0,0h0l0,0,0,0V54.4l0-.06v-.11l0-.07v0l0,0h0V54l0,0h0l0,0,0,0v0l0-.06v0l0,0v-.14l0,0v-.07h0l0,0v0h0l0,0h.06l.06,0v-.1l0,0v0l0,0,.05,0v0l0,0v-.09h0v0h0v0h.07v0h0l0,0h0v0h0v-.09h0v-.08l0-.1h0v0h0l0,0,0,0v-.06h0l0,0h0l0,0v-.34l0,0,0,0,0,0,0-.08,0-.06v0h0v-.1l0,0h0l0,0h0v0l0-.06,0,0h0l-.07-.1-.05-.12,0,0h0v-.06l0,0v0h0l0,0h0l0,0h0l0,0,0,0v0l0,0v0h-.06v0h0v0h0v0l0-.06,0,0h0v0h0l0,0,0,0H28v0h0l0,0V51l0,0-.08.07,0,0h0v0l0,0h0l0,0,0,.06v.08h-.06v0H27.7v-.07l0-.09,0-.07h0v.05h0l0,0h0l-.05-.11v0h0l0,0h0l0,0v0h-.12l0,0v.05h0v0l0,0,0,0v-.08l0,0,0,0h0l0,0,0,0h0v0h-.07l0-.05,0,0v-.11l0,0,0,0-.05,0,0,0-.06,0,0,0,0,0v0l0,0-.07-.08,0,0v0h0v0l0,0,0,0,0,0v0l0,0h0v0h0l0-.07-.07,0v0l0-.06v-.09l0-.05v0h0v0l0,0v0h0l0,0v0h0l0,0,0,0-.11-.14-.05-.09,0-.06,0,0-.06-.07v0l-.06-.09-.05-.05v0h0v0l0,0h0v0h0v-.07H26v.06H26l-.05,0,0,0h0l0,0h0l-.08,0-.08-.07h-.05l-.06,0,0,0,0,0L25.48,49h-.14l0,0-.06,0,0,0-.09-.11h0l-.05-.1L25,48.56l0,0,0,0,0,0-.08-.11,0-.05,0-.06,0,0,0,0h0v0h0l0,0h0l-.09-.06h0v0h0l0,0h0v0h0v0h0l0,0h0l-.06.07-.05,0-.08.06H24.3l-.06,0-.07-.07-.1,0L24,48.13l-.07,0L23.88,48h0l-.06,0-.06,0-.06-.07,0,0,0,0-.07,0,0,0,0,0,0,0,0,0,0,0,0-.06v0l0,0h0l-.06,0h0l-.06,0-.06-.05,0-.06,0-.05,0-.08,0,0,0,0,0,0,0,0,0-.06,0,0v-.05l0,0,0-.1v-.19h0l0,0v0h0v0h0v-.23l0,0v-.26l0-.11,0,0v0l0-.09,0-.05,0-.1,0-.05,0-.11,0,0-.09-.17h0l0,0h0v0h0l0,0V45l0-.07v0h0v0h0l0,0v0l0,0v-.06h0v0h0v0h0v0h0v-.15l0,0v0h0v-.06h0v0l0-.06h0v-.11h0v0l0,0v-.26l0,0h0v0h0l0-.06v-.1l0,0v-.12h0v-.19h0v0h0V43h0v-.42h0v0h0l0,0,0,0v-.08l0,0v0h0l0,0,0-.07h0l0,0v.1l0,0,0,.15v.24l0,.1V43l0,0v0l0,.07v.19h0v0h0v0h0v.11h0v.29l0,0V44h0v.22h0v-.11h0l0,.06v.34l0,.08v.17l0,.05v.29h0v-.06h0l0,.06v0l0,0v.14l0,0v.16l0,0,0,0v0h0v-.26l0-.06,0-.05v0l0,0L22,45.09v0l0,0h0v0l0-.06v-.27h0V44.5l0-.11,0,0h0l0-.1v-.08h0l0,0V44.1h0V44h0v-.1l0,0v-.05l0,0v0h0l0,0h0v.06h0v-.06h0v0h0v0l0-.08v-.14l0-.05,0-.14v-.1h0v0l0,0,0-.06V43h0v-.15l0,0v-.15l0-.07v-.29h0V42h0v-.06h0V41.7l0-.09v-.09h0v0h0v-.11h0l0,0v-.12h0v0h-.05v-.81l0,0v-.1l0,0V40h0v.11h0v0h0v-.13h0v0h.05v0h0l0,0h0v0h0l0,.06v0h0v0h0v0h0v0h0v-.1h0v-.24l0-.08,0-.1v-.09l0-.07V38.9l0,0v0h0l0-.06,0-.07,0-.09V38.4l0,0v-.09l0-.07v0l0-.08V38l0,0v0l0-.13h0v0h0l0,0v-.06l.05-.14,0-.11v-.07l0,0,0-.05.09-.25v-.07l0-.11,0-.12h0v0h0v0h0v0h0v0h0v0h0v0l0,0,0,0v.07l0,0,0-.05v0l0,0,0,0h0v0h0v-.08l0-.08,0-.1V36l0-.07,0-.06v0h0v.07h0l0,0h0v0h0v0h0v0h0V36l0,0h0v0h0l-.05.1,0,0v0h0l0,0h0v0h0l0,0h0v0h0v0l0,0h0v0h0l0,0v0l0,0h0v0h0v.09l0,0h0v0h0l0,0h0l0,0h0l0,0v.05h0l0,0h0v0h0l0,0v0h0v0h0v0h0l0,0v0h0v0h0v0h0v0h0v0h0v0h0v0h0l0,0v0h0v-.1h0v0h0v0h0l0,0v0h0v0l0,0h0v0l0,0v0h0l0,0h0v0h0v0h0v0h0v-.09h0v0h0v0l0-.08h0v0h0v0l0,0h0l0,0h0l0,0h0V35.1l0-.07v0h0v0l0-.05,0,0h0v0l0,0v0l0,0h0l0,0h0v0l0,0h0v0h0l0,0,0,0,0,0v0h0v0h0v-.09l0,0,0,0,0,0,0-.07v0h0l0,0v0h0v-.13l0,0,0,0h0v0l0,0,0,0v0l0,0h0v0h0v.08h0v-.13h0v0h0l0-.05v0h0v0h0v0h0v0h0l-.08.11h0l0,0,0,.09,0,.06,0-.08,0-.07.05-.07h0l0,0h0v0l0,0h0l0,0h0v0l0-.08L23,34l0,0v0h0l0,0v0l0-.1,0-.05v-.12l0,0,0,0h0v0l0,0h0v0h0l0,0h0v0h0v0l0,0v0h0v0h0v0h0l0,0h0l0,.06v0l0,0v0h0l0,0,0,0v-.07l0-.06h0v-.06l0-.06,0,0,0-.06h0l0,0h0l0,0v-.07l0,0v0l0,0v0h0v0l0,0v0l.05-.08,0,0,0,0,.05-.08h0v0h0l0,0,0,0,0,0,0,.06,0,0v0l0,0,0,0,0,0,0,0,0,0,0,0v0l0,0,0,0h0l0,0v0l0,0v0l0,0v0l0,0v0l-.05.07,0,0h0l0,0,0,.06,0,0h0l0-.06,0,0,0,0h0v0l0,0h0l0,0,0,0v0l0-.06v0l0-.06h0l0,0v0l0,0,0,0,0,0h0v0h0l0,0,0,0h0v0h0l0-.05v0h0l0,0,0,0,.07-.1h0l0,0h0v-.05h0v0h0v0h0l0,0h0v0h0l0,0h0v-.05l0-.07.05-.09,0,0h0v0l0,0h0l0-.06v0l0,0h0v0h0l0,0h0l0,0v0l0,0v0l0,0,0,0L24,31.6h0l0,0,0,.06v0h0v-.06h0v0l0-.08,0-.05h0v0l.06-.1,0-.07,0,0,0,0h0v0h0v.05h0l0,.05-.05.07,0,.06,0,0,0,0v0l0,.07v0h0v0l0,0v0h0l0,0,0-.05v0l0-.07h0l0,0h0l0-.05h0l0,0v0h0v0h0v0h0v0l0,.05h0v0h0v0h0l0,0h0l0,0v0l0,0h0l0,0h0v0h0a29.73,29.73,0,0,0-1.52,2.85A28.42,28.42,0,0,0,73.47,59.27h0l0-.08v-.06h0v0h0v0h0v0h0v0h0v-.06h0v-.08h0v0h0v0h0l0,0v0l0,0h0l0-.1,0,0,0,0h0v0h0v0l0,0h0v0h0v.07l0,.06v0h0v0h0v0l0,0,0,0v0h0l0,.07h0v0h0v0h0l0,0,0,0v0h0l0,0v0h0a.54.54,0,0,1,.07-.13h0v-.06c.1-.21.21-.41.3-.62s.15-.35.23-.53ZM76.44,49h0v0h0v0Zm0,.21h0v0h0Zm0,0h0v0h0Zm0,.19v0h0v0h0v0h0Zm0,0v0h0Zm-.08.23v0h0v0h0v0h0Zm-.09-.08h0v0h0Zm0,.1v0h0v0h0Zm0,0h0v0h0v0Zm0,0v0h0Zm0,.77v0h0l0-.13h0v-.15h0v0h0v0h0v0h0v0h0v0h0v0h0v0h0V50h0v.13h0l0,.1v0h0v.13h0v.05h0v0h0v0h0v-.14Zm-.62,2.86h0Zm-.17.56v0h0Zm.05-1.15h0v0h0Zm0,.25v0h0v0Zm0-.08v0h0v0Zm0,.29h0v0h0Zm0,.17v0h0v0h0v.1h0Zm-.29.15h0v0h0Zm0,.09v0h0v0h0Zm-.11,1.91v0h0v0h0v-.05l0,0h0v.11h0l0,.05h0Zm0,.31h0l0,0v0h0Zm-.06,0,0,0h0v0h0Zm-.07-.08v0h0v0Zm0,.08v0h0v0h0v0Zm-.1,0,0,0h0v0h0Zm.72-4.57v0h0v.05h0v-.07Zm-.16,1.18v-.06h0v.05Zm-.14.69h0v0Zm.11-.52v0h0v.07h0Zm0,.15h0v.05h0Zm0-.1h0v0Zm0,0h0v0h0Zm0,.18v0h0v0l0,.07h0v0Zm0,0h0v0l0,0v0h0v-.06Zm0-1.44v0h0Zm0,1.41v0h0v0h0v-.07Zm0-1.43,0,0v0Zm.13-1.25h0v0h0v0h0v0h0v0h0v0Zm0-.11v0Zm0,.35h0v.06h0v-.07Zm0-.43h0V50h0v-.08Zm0-.63v0h0v0Zm0,0h0v.06h0v-.07Zm0-.32h0v.09h0V49Zm0,0v.13l0,0Zm0,4.06h0v.06h0v0h0Zm0-4.25v0h0v0h0Zm0,.26V49h0v-.06h0v0h0v.26h0Zm0,4.32v0h0v0h0v0h0Zm-.06.29h0v0h0Zm-.23-1v0h0Zm0,2.18v0h0l0-.05h0Zm.07-.31h0v0h0Zm0-.07h0v0Zm0-.34v0h0v0h0Zm0-.17h0v0h0Zm0,0h0v0h0v.08h0v-.05Zm-.1-1.63h0v0Zm-.11.41v-.06h0v-.08h0v0h0v-.14h0v-.07h0v-.11l0,0v0h0v0h0v.05h0v0h0v.07l0,.1,0,0h0l0,.07h0l0,0h0v0h0v.13h0Zm0,.1v0h0v0h0Zm-.07,2.78v0h0v0Zm0-2.53v0h0l0,0h0v.07l0,0h0Zm-7-7.26h0l0,0h0v0l0,0v0h0v0h0l0,.06ZM68,47.34v.07h0v-.15h0v.08Zm.44.66h0v0h0v0Zm.18,0h0l0,0h0Zm.09.07h0v0h0v0h0Zm.15-.09Zm.45-.9,0,0,0,0v0h0l0,0h0l0,0h0v0h0l0,0,.05,0h0v0h0l0,0,0,0h0v0Zm-4.93.1h0v0h0l0,0Zm.08.17h0l0,0v0h0l0,0v0h0v0h0l.05,0,0,0h0ZM65,50.73h0v0h0Zm.07.18h-.11v0l0,0h0v0h0v0h0v.07h0v0l0,0Zm.5-.33h-.06l0,0v0h0v0h0v.07h0v0l0,0v0h0Zm0,1h0l0,0h0Zm0-.09h0v0l0,0v0Zm0-.47h0v0h0v0ZM55,54.38h0l0,0v-.05h.08v0l-.06.07,0,0,0,0H55v0Zm-8-6.09h0l0,.06,0,0h0v0Zm9.74-4.57h-.09v0h.06l0,0h0Zm6.51-.09,0,0,0,0h.09V43.5l0,0h.14l.13,0,0,0h0l0,0h0l0,0-.15.11v.06l0,0h0v0h-.09l0,.06,0,0h-.1v0h0v0h-.06l-.06,0h0v0l0-.07v0ZM62,42.93h0v0h0Zm0,.19h0v0l0,0,0,0,.08,0h0v0l0,.06,0,0v0h0l0,.05h0v-.09Zm-.25-.38h0l0,0h0v0h0v0Zm.09.63v0l0,0v0h0v0l0,0,0,0v0Zm0-.53,0,0h0l0,0H61.7v0Zm-.13-.37,0,0h.08v0h0l0,0h0l0,0h0Zm1.23-3.32h0l.1,0,0,0h0l-.09,0,0,0v-.05Zm-1.3,3.75h0v0h0v0h0v0h0Zm0-.4h0v0l0,0h-.06l0,0h.07Zm-.05-.31v.06h0v0h0l0,0,0,0h0v0l0,0v0h0l0,0h0v0Zm-.09.63h0l0,0,0,0h0l0,0h0Zm0-1h0v0h.06l0,0v0l0,0,0,0v0h0v0h0l-.06,0,0,0,0,0v0h0l0,0,0,0,0,0h0l0,0Zm-.05-.37h0l0,0v0h-.07l0,0,0,0Zm-.09-.12h0v0h0l0,0Zm-.1,1.33,0,0h0v0h0l0,0h0Zm0-.2h0v0h0v0h.05v0h0Zm.07.33,0,0h0l0,0h0Zm0,.16h0v0h0l0,0h0v0Zm0-.22,0,0v0l0,0h0v.07Zm-.05-.19v0h0Zm-.09-1h0l0,0h0v0h0v0h0v.06h0v0h0v0h0v0Zm-.06.79,0,0h0v0h0v0l0,0,0,0h0v0h0Zm0,.2v0h0v0Zm0,.2h0v0h0ZM61,41.28v0h0l0,0h0v0h0l0,0ZM61,42v0h0v0l0,0h0Zm-.18-.14,0,0v0l0,0h0Zm0,0h0l0,0Zm.09.31v0h-.08l0,0v0l0,0h0v0l0,0,0,0,0,0h-.09l0,0,0,0h0l0,0V42h0l0,0h0l0,0h.08v.06h0v.05l0,0,0,0H61v0l0,0h-.05v0l0,0v0h0l0,0Zm.12.39h0v0h0v0Zm0,.06h0v0h0v0Zm0-.15,0,0v-.06h0Zm0,.33H61v0h-.06Zm-.23.45h0v-.05h0v0h.07l0,0h0v0h0v0h.22l0,0h.19v.07h0v0h.08l0,0h0v.11h-.45v-.05H61l0,0-.14,0h-.12v-.11Zm0-.92h0v0h0Zm-.16.58h0l0,0,0,0,0,0h0v-.08Zm-.62-.59,0,0h0l0,0,0,0,0,0v0l0,0,0,0h0Zm0-.21h0l0,0v0h0v0ZM59.8,42V42h0V42h-.05Zm0,.12h0v0h0v0h0v.08h0l0,0v0h0l0,0h0v0h0v0h0Zm-.22-.59h.07l0,0h0l0,0h0v0h0v0l0,0,0,0,0,0-.05-.06h0Zm-1.65-2,0,0v0l0-.06h0v0h0l0,0h0v.05l0,0v.1h0v0Zm0-.16h-.05l0,0v0l0,0,0,0h0l0,0h0l0,0Zm0,.09h0l0,0v0l0,0h0Zm0,0,0,0h0l0,0,0,0,0,0h0l0,0,0,0h0l0,0v0l0-.05Zm.14.32h0L58,39.73v0l0,0,.08.09h0Zm0-.07,0,0h0l0,0v0Zm.08.07,0,0,0,0,0,0,0,0Zm.33.25h0l.07,0h-.1l0,0Zm0,.09,0,0h.09l.11,0h-.15Zm.17.1h0Zm.08.05h0l.06,0,0,0Zm-.94,2.6h0l0,0h0Zm.07.08h0l0,0v0h0l0,0h0Zm-.2-1.94h0Zm-.44,1.08,0,0h.05v0l0,.05h.06v0l0,0h.06v0h0l.06,0h.12l.07,0H58l0,0h.14l0,0h0l0,0h0l0,0h0l0,.05h0l-.08.11v.17h0v0h0l0,0h0v0l0,0h0v.08h0l0,0h0l0,0h0l-.05-.07,0,0,0,0h-.07l0,0-.06,0-.07,0,0,0h0v0h0l0,0h-.09l0,0,0,0v0Zm-.18.42h0l0,0v0Zm-.24.76h0v0l0,0v0Zm-.33-3.15h.09v0h0v0l0,0h-.07v0ZM56,41.65l0,0v0h0Zm.07-1.33h0l0,0,0,0h.07l0,0h.07v0h0v-.09h0l0,0v.15h0v.16h0l0,.06v.14l0,.06,0,0-.06,0,0,0h0v0h0v0h0l0,0h0v0h0v0h0l0,0v0h0Zm-.13.51v0h0v0h0Zm0,.06h0l0,0h.12l0,0,.06-.06h0l0,0v0h0l0,0h0l0,0v0h0v0h0l0,0,0,.1v.05h0l0,0v.14l0,.22,0,0v0h-.06l0,0h-.07v.07l0,0,0,0h-.07l0,0v0l0,0,0,0v-.13h0v-.07h0v0l0,0h0v-.15l0,0V41l0,0,0,0v-.11Zm-1.43.25h.07l.06,0,0,0h0v0h0l-.1,0h0Zm-.49.13.14-.09h0l.08,0h0v0h0v0h.1v0l0,0,0,0v0l0,0h0l-.06,0h0v0h0l0,0v0h0Zm-.28.36h-.05v0h0l0,0h0Zm-.1-.13h0v0h.09v0l0,0h0v0h0v0Zm-.82-2.88,0,0,0,0v0l0,0,0,0v0Zm3.09-3.4h0v0h0v0Zm-.08-.1,0-.06h0v0h0v0h0v0h0Zm4.05-1.37h0l0,0,0,0h0l-.06,0Zm-.19-.15v0l0,0h0v0h.06l0,0v0h0l0,0h0l0,0h0v0l0-.05,0,0h0l0,0Zm-.1.2h.08v0h.17l.1.06v0h-.06v0h0l0,0,0,0h-.1l0,0v0l0,0h0v0l0-.05h0l0,0,0,0h0v0l0-.05h0Zm-.1-.8v0h0l0,0h0l0,0h0v0h0v0h0v0h0Zm-.09-.08,0,0h0l0,0h0l0,0h0v0Zm0,.12h0v0h0v0Zm-.07,0h0v0h0Zm-.11-.22h0v0l.05,0v0h0l0,0v0Zm-.17.24h0Zm.63-2.21h.06l0,0,0,0v0ZM58.82,34v0h0l0,0,0,0h.06ZM59,31.64h0l0,0h0v0h0l0,0,0,0ZM58.81,33h0v0h0v0h0v0h0l0,0H59v0h0v0h-.08l0-.06Zm0,0h0v0h0v0Zm-.2.31h0v0h0v0h0Zm0,.81,0,0,0,0,0,0,0,0v0h0l0,0h0v0h0v.09l0,0h0v0h0v0l0,0v0h0v0l0,0,0,0v0l0,0v-.14Zm-.05-.62h0v0h0Zm-.42,1.06.05-.13h0l0-.08v0l0,0v0h0v0h0l0,.1v.06h0l0,.22v0h0v-.14Zm-.43.55,0,0,.11.08v.05h-.06l-.06,0Zm-.42.27v0l0,0h0v0h0l0,0h0l0,0h0v0l0,0v0h0l0,0h0l0,0h0l0,0v0h0v0Zm-.83-.67,0,0v.06h0v-.07Zm-.14.47h0l0-.07h0l.05,0,0,0h0Zm.16,0h0l0,0h0l0,0h0Zm0-.09-.06,0-.08,0v0h0l0,0v-.07h0l.09,0h0l0,0h0l0,0h0l0,0,0,0,0,.06v.08l0,0Zm.14,0,0,.11v0h0l0,0h0l0,0v0l0,0,0,0h0Zm.08.28h0v0h0l0,0,0,0h-.05Zm.16-.09h-.06l-.13-.07v-.07h.06l0,0,.05,0h.06v.05Zm.24-.11H57l0,0h0v0h0v0h.08v0Zm0-.31h0v0h0v0h0Zm-.46-.06h.08l0-.05h0v0h0l0,0v.08h0v0h0v0h0l.05,0,0,0H57v0l0,0h0l0,.06v0H57l0,0v0l0,0h0v0l0,0-.07,0v.16l-.06,0,0-.07v-.12h-.11l0-.06v-.06l0,0h0l0,0h0v0Zm-.09-.68h.07l0,0h0l0,0Zm-1.18,1.52h0l0,0h0Zm-.15,0h0Zm-.14,0h0Zm-.09,0h0Zm-.12,0h0l-.06,0h0Zm-.08.09,0,0v.05l0,0h0Zm-.09-3.19h0l0,0v.08h0l0,0v-.08Zm5.59-3.91h0v0h0v0h0l0,0,0,0Zm2.07,2.35,0,0h0l0,0,0,0h0l0,0h0l0,0v0h0v0Zm1.18-.76h0l0,0v0h0l0,0v0h0Zm3.73-1.06h0l0,0v0h0Zm-.46-.59,0,0,.06.08v0h0l0,0,0,0,0-.06h0Zm1.72,2.1h0l0,0-.06-.07v0h.09l0,0h0v0ZM67.7,28h-.1l0,0v-.13h0l.09.05,0,0h0v0h0Zm-.1-.35,0,0,0,0,.06.08v0h0l-.08,0,0,0,0,0,0,0,0-.1Zm0-.5h-.07v0h.06Zm-.06-.21v0l0,0,0,0h0v0h0Zm-.06-.23h0l0,0,0,0v0h0l0,0,0,0h0Zm0,.4h0l0,0h0v0h0l0,0h0Zm.11-1h0l0,0v0h0l0,0,0,0h0Zm0,0h.06l0,0h0v0l0,0,0,0h0l0,0h0l0,0h0l0,0Zm0-.15h0l0,0,0,0h0Zm0-.35h0l0,0,0,0Zm-3,3.74h0l0,0,0,0v.13l-.07,0h-.08l-.06,0-.06-.07v0l0,0v0l0,0v-.08l0,0,0,0h.07l.19.1,0,0,0,0,0,0Zm0-.9,0,0,0,0,0,0h0l0,0,0,0h-.06l0,0h0l0,0h0v0h0l0,0,0,0,0,0h0l0,0,0,0v0h0l0,0h0Zm.83.2h0v0h0l-.1,0h0l0,0h0l0,0h0l0,0v0h0l-.08-.05h0v0l0,0h0l0,0H65l0,0v0h0l-.05,0h0l-.09,0-.08,0h0v-.05l0,0v0h0l0,0h0l0,0h0l-.07,0-.08-.05v0h0l0,0,0,0v0h0l-.07,0h0l0,0,0,0h-.07l0,0,0,0,0,0L64.07,28l0,0L64,28v-.06h0v0h.09v-.07h0v-.12l0,0v0H64l0,0h0l0,0v0h.07l0,0v0l0,0v-.06h.14l0,0h.08l0,0,.08,0h.06l0,0h0v0h0v0l0,0,0,0,0,0v0h0v0l0,0v0h0v0h0l0,0v0l0,0,0,.05h0v0l0,.05v0l0,0,0,0,0,.05.09.09.08.08.14.12.12.09,0,0,.09,0h0l0,0Zm.18-4.24h0l-.09,0,0,0-.06,0,0,0,0,0h0l.05,0,.08,0,0,0,0,0v.06Zm.55,4.73h0l0,0H66l0,0,0,0,0,0h-.07L65.77,29v0l0,0h0l0-.06v0h0v0h0v0l.06,0,0,0,0,0,0,0,.08.05,0,0,.06,0h0l0,0,0,0v0Zm.49-1.6,0,0h0l0,0h0l0,0,0,0v0l0,0-.05-.07v0h0l.06,0h0l0,0,0,0h0l0,0,0,0,0,0Zm.06-1.9h0l0,0v0h0v0l0,0Zm.44,2.07,0,0-.06,0,0,0v0h.07l0,0h0v0l0,0h0v0h0Zm0-.27-.06,0,0,0v0h0l.1.06Zm0-1.76v0l0,0v0h0v0l0-.05Zm-.1-.49h0l0,0,0,0v0l0,0h0l0,0h0Zm0,2.19h0v0h0l0,0v0H67ZM67,25.11h0v0h0v0l0,0h0l0,0Zm0,1.4h0l0,0h0l0,0h0l0,0h0l0,0,0,0h0l0,0h0l0,.05h0Zm-.74-2,0,0,0,0h0l0,0,0,0,.11.11,0,0,0,0,0,0,0,0,0,0h0l0,0h0l0,0,0,0h0l0,0,0,0,0,0h0l0,0,0,0,0,0,0,0,0,0,.07.08h0l0,0h0l0,0h-.07l0,0,0,0,0,0h0l0,0,0,0,0,0,0,0,0-.05,0,0,0,0v0l0,0h0l0,0,0,0,0,0v0h0l0,0,0,0,0,0,0,0h0l0,0h0v0l0,0v0h0l0,0,0,0h0l0,0,0,0h0l0,0,0,0,0,0h0ZM66,24.43h0l0,0h0l0,0h0Zm-.42-.22h0v0h0l0,0,0,0h0l0,0,0,0,0,0,0,0h0l0,0v0l0,0h0l0,0,0,0,0,0h0l0,0,0,0h0l0,0h0l0,0,0,0,0,0,0,0h0l0,0,0,0h0l.05,0,0,0,0,0h0l0,0h0l0,0,.06.05h0l.06,0,0,0,0,.06h-.08l0,0-.05,0,0,0h-.09l-.06-.05h0v0h0l0,0h0l0,0h0l-.06,0-.06-.05,0,0h0l0,0,0-.07,0,0,0,0,0,0-.06-.06,0,0h0l0,0h0l0,0h0l0,0h0Zm-.73-.58h0l0,0h0l.06,0h0l0,0h0l0,0,.1.06h0l0,0,0,0h0l0,0,0,0h0l.09.06h0l0,0h0l0,0h0v0l0,0h0l-.09-.05-.09,0,0,0,0,0h0l-.06,0,0,0,0,0h0l0,0,0-.05,0,0h0v0l0,0h0l0,0v0h0l0,0,0,0Zm-.21,0h0l0,0,0,0-.1,0h0l0,0Zm-.85,2.74h0l0,0h0l0,0h0v-.07l0,0,0,0h.06l.06,0h0l0,0v0l0,0h0l0,0,0,0v-.06H64l0,0,0,0,0,0h.08l0,0h0l0,0,0,0v0h.08l.08,0h.1l0,0,.09,0v-.05h0v0h0v0l0,0v-.06l0-.05h0l0,0h.06l.09,0,0,0,0,.05h0l0,0v0l0,0,0,0v.13h0l0,0,0,0v0h0l0,0,0,0,0,0,0,0,0,0,0,0h0l0,0h0l-.08.07,0,.05h0v.1h0v0h0l0,0v0h0v0h0v0l0,0h0l-.08,0h0l0,0,0,0v0h0l-.07,0h0l0,0,0,0v0l0,0v.05l-.07,0,0,0,0,0,0,0v0h0l0,0h0v0l0,0,.05.05v0l0,0,0,.07,0,0h-.19l-.06,0-.06,0h0l0,0,0,0L64,27.22v0l-.1-.08,0,0v0h0v0l0,0h0v-.07h0v0l0-.11h0l.08,0h0l-.05,0h0l0,0h0v-.13l0,0h0l0,0h0l0,0h0l0,0Zm-2.29-2.49h-.17l0,0h0v0h.08l0,0,.07,0h0Zm-.1-.16h0v0l.05,0h0l0,0h0v0l-.09,0h0Zm.31.17h-.05v0h0l0,0ZM62,24h-.18v-.05l-.05-.05h.08v0h.05l0,0,.06.06,0,0,0,0Zm.08-.08,0,0h0v0h0L62,24h0l0,0-.07-.07,0,0h0l0,0,0,0h0l.06,0H62l.08,0,0,0,0,0H62Zm.31.15,0,0h-.08l0,0h0l0,0,0,0,0,.05Zm-.07-.46h.09v0l0,0v0h0l0,0h0l0,0,0,0,0,0h0l0,0v.05l0,0-.1,0H62.4l0,0-.06,0h0v-.05Zm-.16,0,0,0h.07l0,0,0,0,0,0v0l0,0h0v0h0v0h-.05l-.08,0,0,0h0l-.08,0h0l0,0,0,0,0,0v0h0l0,0h.09Zm-.06-.09v0H62l0,0h0l0,0H62Zm-.25-.31h0l.12,0h0v0h-.2Zm-.1.29,0,0,0,0,0,0,0,0,0,0h-.12l-.07-.05-.06,0-.07-.05h0v0h0l.05,0Zm-.13-.16h0l0,0,0,0h0l-.06,0h0Zm-.31-.22h.15l0,0h0l-.1,0H61.3l0,0Zm0,.22.06,0v0l0,0V23.3h.08l0,0,0,0h.06l0,0h-.06l0,0,0,0v0h0l0,0-.06,0-.07,0v0h0l0,0h0l0,0,0,0Zm0,.1.13.05h.09l0,0,.09,0,.13,0h0v0l0,0h-.13l0,0-.08,0h-.05l0,0h-.09l0,0v0h0l0,0,0-.06Zm-.1.48h0l.06,0,0,0h-.08l-.07,0ZM61,23.9V24h0l-.09,0h0l0,0h0l0,0Zm-.39-.46h0l0,0h0v0h0l0,0h0Zm0,.12.06,0h.12l.13.08h0l0,0,0,0v0h-.14l0,0v0h-.1v0h0l0,0h0l0,0h-.06v0h0l0,0h-.06v0l0,0H60.6v0h0l-.05,0h0l0,0,0-.06v0h.09l0,0h.06v0l0-.05,0,0,0-.05Zm-.53.07.14,0h.06v0l0,0h0l.08,0h.08l0,0,0,0,0,0h0l-.1,0-.07,0h0v0h0v0h0v0h0v0h0l0,0,0,0,0,0,0,0,0,0,0,0h0ZM59,28l0,0,.07,0h0l0,0h0v0h-.12l0,0h0Zm-.31.14h0l0,0v0l0,0,0,0v0l0,0v0Zm0,.06h0v.09l0,0h-.05v0h0l0,0h0l0,0h0Zm-.33,0h0v0h.12l0-.05h0l0,0v0h0v0l0,.06h-.15l-.05,0,0,0,0,0Zm-.32.2h.07v.05H58l0,0h0Zm-3.42,3.9h0l0,0v0h0v0ZM55,24.42l-.06-.05,0,0,0,0H54.8l-.09-.09v0l0,0,0-.05v0h.05l0,0,0,0v0h0l0,0,0,0v0h0l0,0,0,0h0v0l0,0,0,0Zm.44,7h-.08v0h.07l0,0v0Zm.17-.16h-.13l0,0h.07v0h0l0,0v0Zm.6-.49h-.13l0,0,0,0h0l0,0Zm.15-.34,0,0h0v0h0Zm0-1v-.09l0,0h0v.05h0l0,0Zm0,.82v0l0,0h0v0h0l0,0v0h-.06Zm.12,0h0l-.05,0h0v0h.08Zm.15-1h0l0,0h-.05l0,0,0,0h0v0h0l0,0v0h0l0,0h.14Zm0-.23,0,0v0h.07v-.06l0,0v-.05h0v0l0,0,0,0v.06l0,0h-.08l0,0h0l0,0h0l0,0Zm.5.1h0l0,0v0h-.06v0l-.06,0h0v0h0l0,0H56.9l-.07.05h-.09v0l0,0,0,0h.12l.07-.08V29h0v-.06l0,0h0l0-.05h.05v0l0,.05,0,0v0l0,0V29l0,.06v0h0l0-.05h0V29h0l0,0,0,0,0,0v0Zm-.2-2.8v0h.06l0,0v.05h0l-.05,0Zm.51,2.49,0,0h-.09l0,0,0,0,0,.05h0l0,0h0v0l0,0v0h.09v0l0,0h0v0h0l0,0h0l0,0h0l0,0v.05h0Zm.3-.45,0,0h0l0,0,0,0h-.06l0,0v0l0,0v0Zm-.17-4h0l.06,0,0,0,0,0h0l-.07,0,0,0Zm0,4.24h0v0h0l0,0v0h0v-.09h0l0,0v.05l0,0h.06v0l0,0,0,0h0l0,0v0l0,0v0h-.15l0,0h0v0h0v0h.06Zm0-3.76-.12,0h0v.08l0,0h-.09v0l0,0h0l0,0h0v0l0,0,0,0v0h-.07l0,0h-.07l-.14,0h0l0,0,0,0v-.13h0l-.11,0,0,0-.06-.05,0,0-.06,0,0-.05h0l0,0h0l.13,0h.09l0,0h.06l.07.08.05.09h.16l0,0,0,0h0v.05l.05,0,.08,0h.1l.08,0Zm-1.8-1.31h0l0,0,0,0-.08,0v0Zm0,.09H56l0,0,0,0h0l0,0v0h0l0,0h0v-.05h0l0,0,0,0h0l.05,0,0,0h0l0,0,.05,0h.12l0,0,0,0h0l.07,0h0v-.06l0-.06,0,0h.05v0h0l0,0h0v0l0,0v.06h.1l0,0h.06l0,0H57l.11,0h.26l0,0,0,0,0,.07v0l-.1.08,0,0V24h0l0,0h0l-.06,0h0l-.05,0v0h-.07l-.16,0,0,0,0,0v0H56.7l-.2,0h0l0,0H56.4l-.06,0-.05,0,0,0h.14v0h0v0l-.07,0H56l-.07,0h0v0H56v0l-.1,0,0,0-.05,0Zm-1.3.09h0l.05,0,0,0h0v0h.08l.09,0h0l0,0h0l.07,0h0l.06,0h.1l0,0H55l-.08.05h.15l0,.05h.07l0,0,0,0h0v-.11l0,0v-.05l0,0,0,0,.06.05.06.06.06.07.08.08,0,0h0l.12.09h0l-.05-.07-.08-.11-.06-.08,0,0,0,0h0v-.05l0,0,0,0v0l0,0h0l0,0,.07.06h0l.05,0,.08,0h0l0,0,0,.05v.06h0l0,0v0l0,0,0-.07h0l0,0,.05,0h0v0l0,0v0h0l0,0,0,0,0,0h.07l.06,0,0,0h0v0h0l.06,0h0l0,0,0,0,.06,0,.08,0,.05,0,0,0h0l0,0h-.28l0,0,0,.05v.09l0,0v0h-.09v0l0,.07v.12H56.3l0,.05V25l0,.05,0,0,0,0v0l0,0h0l0,0v0l0,0h0l0,0,0,0,0,0,0,0h0l-.12-.06L55.82,25l-.09,0-.06,0,0,0,0,0,0,0,0,0v0l0,0v0h.09l0,0h0l0-.08.24,0h.17l0,0,0,0h-.31l0,0h-.23l0,0h0v0l0-.05v0h.07l.06,0,0,0,.14,0,.06,0h.07l0,0v0H56l0,0h-.08l-.05,0,0,0,0-.05v0h-.06l0,0,0,0h-.12l0,0v0h0V24.2h0l0,0v0l0,0h0v0h-.06v.09h0l0,0h0l0,0,0,0,0,0h-.18l-.06,0v0h0l0,0-.06-.05L55,24.25h0l0,0h0l0,0v-.05h0l-.06,0-.06,0h0l.16,0h0v0H54.9l0,0,0,0v0l0,0v0h-.1l0,0v0l0,0h0l0,0,0,0,0,0v0l0,0,0,0v0h0v0l0,0,0,0v0Zm-.06,12.71h0l0,0h0l-.05,0h0ZM28.6,28.09l0,0h0v-.07h0Zm3.19-.92v0h0v0h0l0,0h0Zm.09,0,0,0,0,0h0v-.05h.07Zm.21.59v0l0,0,0,0,0,0v0l0,0,0,0h-.05v0h0v0h0v0l0,0v0h0l0,0h0l0,0,0,0h0v0Zm-2.85,2.7h0v0h0v0Zm.57,4v0h0l0,0h0l0,0-.09,0,0,0v0l0,0h.18l0,.07,0,.05Zm.2.33v0h-.07v0l.08,0Zm0-.5h0v0h0v0Zm1.78-5.47v0h0v0h0l0,0,0,0v.05h0l0,0h0v0l0,0h-.08v0l0,0H31.8l0,0v0Zm-.21.07v-.06l0,0h0l0,0h0v0h0v.07l0,.06h-.06v-.06Zm-1,3.91h0Zm-.12.23,0,0h.08l0,0h0l0,0,0,0-.08,0h0Zm.17.1-.05.08h0v0l.06-.09h0v0l-.08.09,0,0h0l-.05,0L30.6,33h0l-.08.08,0,0h0l.08-.08L30.6,33l0,0,0,0,0,0v0h0v0l0,0,0,0,0,0h0l0,0,0,0,0,0,0-.05h0v0h0v0h0v0l0,0Zm0-.3h0v0h0l0,0Zm.11.2v0l0,0h-.05v0l0,0v-.05l0,0h0Zm0-.49v0h.05v0h0v0Zm.35-1,0,0h0Zm.08-.05,0,0h0l0,0h.06Zm.27-1.35,0,0v0l0,0,0,0-.09.05,0,0h0l-.13.08h-.06l-.08,0h0v-.1h0v0h0l.06,0,.14-.15h0l0,0h0l.07,0h.14Zm.27,1h-.07l0,0h0Zm.11-.65v0l0,0,0,0,0,0,0,0,0,0,0,0,0,0h0v-.07l0,0v0h0l0-.06,0,0v0l0,0,0,0,.06-.05,0,0h.09v.06Zm.15-.67-.06,0-.06,0-.07,0h0l0,0-.08-.06h-.07v0l0-.08v0l-.05,0h0l0,0v0h-.1l0,0,0,0,0,0v0l0,0-.09.06,0,0h0l0,0-.06.06,0,0,0,0-.05,0,0,0-.07,0h0v-.06l.07-.17h0l-.1,0H30.8l-.07,0h-.05v0l0,0,.05-.05,0,0h0l.12-.05,0,0h0v-.05l0-.06,0-.06,0,0,0-.05.08-.1,0-.05.12-.17,0-.06,0,0,0,0,.06-.05,0,0,0,0h0v0l0,0v.08h0l0,0h0l0,0,0,.08h0l0,0,.07-.06h0l0,0v.07h.06l0,0h0v.07h0l0,0,0,.05h0l.05,0h0v.12l0,.1h0l0,0,0,0h0l.09,0,0,0h0l0,0h0v.07h0l0,0,0,0Zm.14-1.13,0,0h0v0h0v0h0v0h0Zm.3,1.37h0l0,0h0l0,0H32.3l0-.05v-.08h.14v0h0V30Zm1,1.94h0l0,0h0l0,0v0h0v0h0Zm1.51,1.41h0Zm-4.41,4.05h0l0,0h0Zm0,.06h0v0h-.1l0,0,.05,0,0,0h0Zm.78-.51h-.05v0l0,0h0ZM30,39.37h0l0,0h0l0,0h0Zm-2.35,3.68V43h0Zm.16,1.27,0-.1v0l0,.16v0Zm-3.55.25v0Zm0-.53,0,.09v0l0-.07,0-.1h0Zm.08-.17,0,0h0v0h0l0,0h0v0Zm.1-.12,0,0-.05,0h0v0h0l0,0Zm.32-.32,0,0h0l0-.06h0Zm.44,3.89h0l.05,0h0Zm.17-4h0l0,0h0v0h0Zm.54-.19h0v0h0l0,0Zm.05.16v0h0v0h0Zm0-.08v0Zm.06-.1h0l0,0h0Zm.09,0h0ZM26,47.65h0v0h0v0h0Zm0,.16h0l0,0h0v0h0v0h0Zm.21-1.06,0,.06h0v-.1h0Zm0-.26h0v0h0v0Zm.06,1.72,0,0h0l0,0h0Zm.13,0h0v0h0v0h0ZM30,39.37v0l0,0,0,0,0,0h.32l.05,0h0l-.05,0,0,0,0,0h0l0,0,0,0h0v0h.05l-.12.06h0l0,0H30.3l-.11,0h0l-.09,0H30l0,0h0l0,0h0Zm-.13.41,0-.07v0l0,0Zm-.12,6.69h0v0h-.05v0Zm-.06,0h0v0h0Zm-.08,0,0,0h0Zm-.09-6.13,0-.06v0l0,0,0,0-.05.07h0Zm-.07,6.75h0l0,0h-.06Zm0-.49v0l0,0,0,0Zm0-.36h0l0,0h0l0,0h-.07Zm-.09.44,0,0h0l0,0h0v.06l0,.05h-.12v0h0v0h0v0Zm0-5.51h0v0Zm0,.24,0-.07v0l0,.06v0h0Zm-.06,4.73h0v.08l0,.06h0l0,0h0v0l0,0,0,0h0v-.08Zm0-4.69h0l0,0h0Zm-.05,4.63h0v0h0l0,0h0v0Zm0-.47h0v0l0,0h0v0Zm-.09-4,.05-.06h0l-.05,0,0,.06h0Zm-.05,0h0Zm-.05,4.19v0l0,0V46l0,0,0,0v0h0L29,46h0l0,0h0v0l0-.05v0h0v0Zm-.11-.43h0l0,.09h0l0,.09h0v0h0v0l0,0,0,0v0l0,0Zm0,.42v0h0l0,0,0,0h0v0h0Zm-.19-.73v0h0v0l0,0h0l0,.06v0h0l0,.08v.05l0,0h0v-.1l0,0,0,0h0l0,0h0Zm-.23-.56h.08l0,0v0l0,0h0l0,0v.07l0,0v.13h0l0,0h0l0,0,0,0v-.14l0,0,0-.09-.06,0h0Zm.1.72h0Zm-.25.11h0v0l0-.06v-.1h0l0,0,0,0v0l0,0v.06l0,0v.08h0l0,0h0l0,0h0v0h0v0h0l0,0v0h0v0l0,0Zm0,.83h0v0h0v0h0v0h0Zm0,.07v0h0v0h0v0h0v0Zm0,.06h.06v0h0v0h0l0,0h0Zm.05-.61v0h0v-.07l0,0h.09l0,0,0,0,0,0v.08h0v.05Zm-.21-1.09,0,0h0l0,0v0h0v0l0,0,0,0h.11v0h-.08l-.07,0h-.05v0l0-.06Zm0,1.52h.06l0,0h-.08ZM27.84,46l0,.05h0l0,0,0,0h0Zm-.19-.82,0,0v0h0v0l0,0h0l0,.07-.05.07Zm0,0h0Zm-.05,0h0Zm-.06,0h0Zm-.08,0,0,0h0v0Zm0,0v0h0Zm0,0h0Zm0-.77v0Zm0,.06h0v0Zm-.54-1.21h0l0,0h0l0,0h0Zm.33,3,0,0H27l0,0v0h0v0h0l0-.07h0l0,0h.06v.12Zm.22,4.26,0,0h0v0Zm.1-3.44h-.05v0h.07v0Zm1.15.57h0l0,0h-.06v0h-.05v0l0,0,0,0h-.1l0,0h0v-.05h-.06v0l0,0h.09l.1,0h.13l0,0,0,0,.08,0,0,.06v0Zm.42-.74h-.06l0,0h0v0h-.12l0,0h-.47l0-.08.08-.07,0,0v0h0v0l0,0v0h-.1l-.06,0h0l0,0-.05-.06,0,0h0v-.15l0,0,0,0h0l-.09,0h0l-.12-.07-.06,0,0,0,0,0v0l0,0h-.14v0h0l0,0h-.1l0,0,0,0h0l0,0h0v0H27.1l0,0,0,0,0,0h0l0,0,0,0h-.12v.06h0l0,0,0,0h0v-.06h0l0,0h0l.08-.05h.05V46.1l0,0,0,0,0,0,.18-.1h0l.12,0h0l.05,0,.06,0,.06,0,.06,0h.07l0,0h.13v0l0,0h.09l0,0h0v0l0,0,0,.07,0,0,0,0,0,0H28l.13.11,0,.05,0,0,.05,0h0v0h0l0,0h0l0,0h0l0,0h0l0,0v0l0,0,0,0h0v0h0l.05,0,0,0h.09l0,0v0h0v0l0,0h0v0h.13l.06,0h0l0,0v0L29,47l0,0h.06v0l0,0H29Zm1.21,2.74,0,0h0v0h0l0,0h0Zm.3.15-.05,0-.05,0v0h0l0,0,.05,0,0,0Zm.08-2.25,0,0h-.05v0h0v0l0,0h-.25l0,0h0l0,0H30l0,0,0,0h-.12v.06l0,.07,0,.06h0l0,0h0v-.07h0l0,0,0,0h-.23l-.07,0h-.15l0,0v0h0l0,0,0,0,0,0-.06,0v0l0-.06h.1l0,0h.05l0,0,.17,0h.06v0h.07v0l0,0,0-.06,0-.06,0,0v-.11l0,0-.05,0H29.3v-.06h.2l.05,0,.05,0h.12v0h.06l0,0h.08l0,0h0l0,0h.07l0,0,0,0h.06l0,0v.08l0,0h.11l0,0v0h-.09v0h.19l.06,0,.06.07,0,0v0Zm-1.26-.21v0h.05l0,0,0,0v0l-.06,0ZM30.65,50h0v0h0v0l0,0V50Zm.05-10.9v0h0v0Zm0,0v0h0v0h0Zm.28.09h0v0h0v0h0l0,0Zm-.18,0v0h0l0,0h0v0h0Zm.45,8.73v0l0,0,0,0h-.11l0,0H30.9v-.12h0v0h0l.07,0,.17,0h.08l0,0h0v0Zm.26,0h0Zm-.18.08h0Zm.09,2.5h0v0h0l0,0h0Zm0-2.59h0v0h0Zm.09.24h-.05v0h0l0,0h0Zm0-.24h0Zm0-9.77h0v0h0v0Zm0,9.75h0ZM31.7,38l0,0h0v0h0v0h0Zm.14,12.43,0,0h-.05l0,0h-.06v0h0v0h.05v0l0,0h0v0ZM32,48h0Zm0-.06h0l0,0h0Zm.1.36,0,0h0v0h0l0,0v0h0Zm0,0h0v0h0Zm0-10.43h0l0,0,0-.06h0Zm.08.17,0,0h0l0,0h0Zm0,10.43h0v0h0v0Zm.32.66,0,0h0v0h0l0,0v0h-.06v0h0l0,0h0l0-.05v0h0Zm0,.29v.1l0,0v0h0l0,0,0,0h0Zm-.12-.66h0v0h0v0h0Zm0,.18v0h0v-.06l0,0v0h0l0,0V49Zm0,.72h0v.07h0l0,0Zm-.08-1.1h0v0l0,0,0,0h-.1v0l0,0Zm0,1.46v.06h0V50Zm-.08-1.91h0v0h0l0,0v0Zm0,.23v0l0,0h0Zm0,.35v-.1h.05v.07h0l0,0h0Zm.25,1.91v.13h0l0,0h-.2l.06,0v0h0v-.12h.15l0,0v.06Zm.06.54v0h0v0h0l0,0h0v0Zm0-.07h0Zm0-.71-.06,0h0l0,0,0,0h0Zm.28-.6h0l0,0h0v-.06h0l0,0,0,0Zm0-13.17h0v0l0,0Zm0,.07v0h0v0l0,0h0Zm.51.62,0,0-.06,0h0v.06h-.07l0,0v0h0l0,0v0h0v0h0l0,0h0l0,0h0l0,0h0l-.07,0h0l0,0v0H33v-.07H33v0l0,0,0,0,0,0,0,0,.06,0V37l0,.05,0,.06h0v0h0l0,0h.08l0,0,0,0h.3Zm.11-1.14,0,0L33.45,36V36l0,0-.12-.08v0l0,0h.06l.09,0,.12,0,0,0,.06,0,0,0,.1.1h0l0,0,0,0v0h-.14l-.08,0Zm0,.79,0-.07,0,0,.07-.05h.06l0,0h0l0,0,0,0h0l0,0v0h0Zm.13.71h0v0h0Zm.18.65h-.07l0,0h.07l0,0Zm.17-.87v0l0,0,0,0h0l-.06,0,0,0,0,0-.06,0-.08,0h-.18v-.19l0,0,0,0,0,0,.1-.13,0,0,0,0,0,0,.05,0h.06v0h0v.07h0l0,0L34,37.3v.06l0,0h0l-.06,0h0l-.06,0h0l0,0h0v0h0l0,0v0h.11l.07-.06h-.07l.06,0v0l0,0,0,0h0l0,0v0h.1Zm1.49,17.18h0l0,.06,0,0-.06,0h0l0-.08,0,0v-.07l0-.07,0,0h0l0,0Zm2,.74h0l0,0V55.3l0,0h0v0h0Zm1.92,3.43h0v0Zm0-.13h0v0l0,0v0h0v0h0Zm-2,3.85v0h0l0,0,0,0v0ZM36,66.14l0,0v0h0v0ZM28.32,54.71v0h.05v0h0v0h0v-.08Zm.06-1.32h0v0h0v0Zm.11-.41h0v0h0v0ZM28.11,51h0v.05h0v0h0v0ZM21.8,42.32h0v0h0Zm.07,1v0h0v0l0-.08v-.1h0v.09h0Zm.12.05,0,.09h0l0,0v0l0-.1h0l0,0v.09ZM22,44.48h0v.05h0v-.08h0v0Zm0,.41v-.06h0v0h0v0Zm.09.28h0V45.1h0v.06Zm.29-8.91h0Zm.06-.09v0h0v0h0Zm0-.06h0v0h0Zm.11-.31v0h0l0,0h0V36h0v0h0v0h0v0h0v-.06Zm0-.06h0v0h0v0h0Zm0,0v0h0v0h0Zm0-.15h0v0h0l0-.07h0Zm0,.09h0v0h0v0h0v0h0v0Zm0-.11h0v0Zm0-.31v.06h0v0h0v0h0Zm0-.21v0h0v0h0v-.06h0Zm0-.06h0v0h0v0h0v.07l0,0v0Zm.06-.56v0h0l0,0h0v0l0,0h0v0h0ZM23,34l0,.08,0,0h0l0,0h0v0l0,0,0,0h0Zm.06-.22v.07l0,.07-.06.13,0,0v0l0,0v0l0,0,0,0v0L23,34h0v0h0v-.12h0v0l0,0v0l0,0Zm-.15.33v-.06l0,0v0h0l0,.05v.08ZM23,33.9h0v0h0v0h0l0,0v0Zm0-.1,0,0h0v0l0,.05h0Zm0-.14v.05l0,.08h0l0,0h0l0-.07v-.09l0,0h0Zm.19-.44h0l0,0h0v0l0,0h0Zm.1-.25,0,.06,0,0v0h0l0,0v0h0V33h0Zm0-.12,0,0,.05-.1.05-.05h0l0,0,0,.06v0l0,0,0,0,0,0,0,.05,0,0h0v0h0v0h0v0h0l0,0v0l0-.06v0Zm.18-.37,0,.06,0,.06,0,.07h0v0h0v0h0l0,0h0l.05-.07h0Zm-.06.06h0v0h0l0,0h0l0,0Zm.11-.19v0h0v0h0v0l0,0Zm0-.12v0h0v0l0,0v0h0v0l0,0v0h0v0h0v0h0v0h0v0l0,0,0,0,0,0v0h0v0h0v0h0Zm.27-.55,0,0h0v0h0Zm0,0v0l0,0h0l0,0,0,0h0l0,.06,0,.05,0,0,0,0,0,0h0v0l0-.05v0h0v0l0,0h0v0h0l0,0,0,0,0,.07V32l0,0v0l0,0h0l0,.07,0,0h0l0,0v0L23.7,32v0l0,0v0l0,0,.06-.11,0,0,0,0Zm-.21.28,0-.06,0-.07h0l0,0,0,0,0,0h0v0l0,0v0h0v0h0l0,0h0l0,0h0l0,0h0v0h0l0,0,0,.05h0l0,0v0h0v0l0,0,0,.05v-.08h0v0l0,0v0h0Zm-.26.54h0v0l0-.06v0l0,0h0v0h0v0h0l0,0h0v0l0,0h0v0l0,0v0h0l-.05.08h0v0l0,0,0-.05,0,0v0h0v0h0l0,0h0V32h0l0,0,0,0,0,0,0,.05-.05.08,0,0v0l0,0h0v0l0,0,0,.06,0,0h0Zm0,0,0-.09h0l0,0v0h0l0-.05h0l0,0,0,0h0v0h0v0l0,0v0h0l0,0,0,0,0,0,0,.05,0,0h0v0h0Zm-.1.26h0v0h0v0h0l0,0h0v0h0l0,0h0l0,0,0,0h0l0,0,0,0v0h0l0,0h0v0h0v0h0v.11h0l0,.05,0,.06h0v0h0v0h0v0h0l0,0h0v0h0v0h0l0,.07,0,0h0v0h0v0h0l0,0h0v0l0,0h0V33h0v0h0l0-.05,0,0h0l0,0h0v0h0Zm-.05.07v-.05h0v0h0l0,0h0v0h0v0l0,0Zm-.12.3v-.09h0l0,0,0,0h0v0h0V33l0,0h0l0,.05h0l0,0v0h0v0Zm-.06.32v0l0,0h0v0h0v.07h0v0h0Zm-.23.27v0l0,0h0v-.11h0l0-.06v0l0,0,0,0,0-.06h0v0h0v.05l0,0h0v0l0,.05h0l0,0v0l0,0h0l0,0h0l0,.05v0l0,.06,0,.05,0,0-.05.09v0h0l0,0h0Zm-.14.43v-.13l0-.09h0l0,0v0h0v0h0v0h.05l0,0v0l0,0h0v0h0v0l0,0v.07h0v0h0v0l0,0Zm0,.1h0l0,0h0v0l0,.05h0Zm-.15,1v0h0v0l0,0v0h0v.08h0Zm0,.22h0v0h0v0h0v0l0,0h0v0h0v0h0l0,0v0h0v0h0v0h0v0h0v0h0v0h0v0h0l0,0v0h0l0,0h0v0h0V34.9l0,0h0v0h0l0,0h0v-.13h0v.09l0,.06,0,0v0h0v.13l0,.06v.07h0v.35l0,.1h0l0,0h0v.12h0v0h0l0,0v-.18h0l0-.06,0,0v0l0,0h0v.07h0l0,0h0v-.06Zm0-.08v0h0v0h0Zm-1.19,6h0v0Zm0,0h0v0h0v0Zm0,.27h0v0h0Zm0-.3h0v0h0v0h0Zm.09.27h0v0h0v0h0v0Zm.1,2h0l0,0,0,0v0h0v.1ZM21.87,45v-.07h0v-.06l0-.13v0l0,.12v0h0V45Zm.05.07,0-.07h0l0,.06Zm.69,1.07h0v0h0v0Zm4.91,5.23,0,0,0,0h0v0h0l0,0h0v0l0,0h0Zm.54-.28h0v0Zm6.38,16.16h0Zm.1-.06h-.07l0,0h0v0l0-.06,0-.08,0,0h0v0h0v0h0v0l0,0h0l.07,0h0v0l0,0,0,0h0v0h0l0,0,0,0h0l0,0,0,0,0,0,0,0h0v0h0l0,0v0Zm.29.28h0l.05,0,0,0h0v0h0l0,0h0v0l0,0h0v0h0v0h0Zm0,0h0l0,0v0l0,0v0h0l0,0h0v0Zm-.2-.19v0h0Zm.06.28h0l0,0h0Zm.12,0,0,0,0,0,0,0v0l0,0h.05l0,0,0,0v0h0l0,0h0v0h0v0h0l0,0,0,0,0,0,0,0h0v0l0,0h0v0h0l0,0,0,0,0,0Zm0,.1h0l0,0,0,0,0,0h0v0h0v0h0v0Zm.48.73v0h0l0,0,0,0h0l0,0,0,0,0,0h0l0,0h0l0,0,0,0h0l0,0h0l0,0,0,0h0Zm-.07,0h0Zm.18.27h0l0-.05,0-.07,0,0,0,0,0,0h0l0,.05.06,0,0,.06h0Zm.11.13h0v0h0l0,0h0v0h.07v0l0,0v0Zm.19.17h0l0,0h0l0,0v0h0l0,0h0l0,0h0l0,0h0v0h0v0l0,0,0,0h0l0,0h0l.09.1,0,0,0,0,0,0h0l0,0v0h0v0h0l0,0h0v0l0,0h0v0h0l0,0h0v0h0l0,0v0h0Zm.07.13v0l0,0h0l0,0h.09l0,0h0v0h0Zm.11.11h0v0h0l0,0,0,0Zm.25.17h-.06l0,0h0v0l0,0,0,0h0l0,0h0v0h0v0h0l0,0Zm.1.09h0v0l0,0Zm.08.14,0,0,0,0,0,0,0,0v0h0l0,0h0l0,.05h0l0,0h0l0,0,0,0Zm.42.28h0l0,0h-.08l0,0,0,0,0,0,0,0h.06l0,0h.09l0,0h0l0,0h0l0,0h0l0,0h-.06Zm.32.2H37v0l0,0h0l0,0h0l0,0h0v0h0l0,0,0,0h0v0h0l0,0h0l0,0h0l0,0H37l0,0h0l0,0v0h0ZM37.68,63v-.12h0v.1h0Zm-.45,7.21h0l0,0,0,0h0l0,0h.08l0,0,0,0h0l0,0h0v0h0l0,0,0,0Zm.37.24h-.2v0h.07l0,0h.06l.06,0h0Zm.42.14h0l0,0h-.12l0,0h-.07l0,0h0l0,0h-.05l0,0h-.13l0,0h0l.12,0h.05l0,0v0h.07v0h0l0,0h0l0,0Zm0-.08H37.9l0,0,0,0h.05l.07,0h0l0,0,0,0h0Zm.1.15Zm0,0h0v0h0l0,0h0Zm0-.14Zm.09-.06h-.13l-.07,0h-.29l-.06,0h0l-.05,0h-.2l0,0h-.07l0,0h0l0,0h0l0,0v0h.05l-.05,0,0,0h0l-.05,0,0,0,0,0h0l0,0v0h0l.07.07,0,0h0l0,0h0l0,0,0,0h0v0h0l0,0h.1v0h0l-.16-.07,0,0,0,0,0,0h0l0,0v0h-.15l0,0,0,0h0v0h0l0,0h0l0,0h0v-.05h0l.08,0h0l0,0h.06l.07,0,0,0,0,0,0,0h0v0h.1l.07.07h0l0,0,.06,0,.06,0,.05,0,0,0,0,0,.06,0,0,0,.05,0h.13v.05Zm.06-8.54h0l0,0h0Zm.12,8.53h-.07v0l0,0h0v0h.1Zm.12-8.75h0l0,0h0Zm9.66-16.48,0,.06,0,.06-.1,0-.05,0h0l0,0,0-.07.05-.08v0h0v.06Zm.15-.21,0,.06h0l-.06,0,0,0h0V45l0,0,.05,0h0v0h0v0Zm4.12-7.71h0l0,0h0Zm.16.11h-.06v0h.07v0Zm.3-.6v0h0l-.06,0h0l0,0,0,0,0,0Zm0-4.36H53v.06h0v-.05Zm0,0h0v.05h0l0,0Zm-.11.11h0l0,0h0v.06h0l0,0h0v0l0,.08h0v0h0v0h0v0h0v-.11h-.06l0,0Zm-.34.5h0Zm-.13,0h0l0,0v0h0v0H52.3v0Zm-.09.11v0h0l0,0h.09v0h0l0,0h-.08l0,0h0v0Zm.14.12h0v0h0l0,0h.05Zm-.16-.05h0v0h0l0,0v0Zm-.75.58h0v0h0l0,0v0l0,0h.1l0,0v0l-.06-.06h0l0,0v0h.1l0,0v-.07h0v0h.08l0,0h0l0,0h0v0h.43l0,0v0h0v0l0,0-.06,0-.11.08-.07,0v0h0l-.06,0v0H52l.07,0h.11l.06,0h.07l.19,0h.05l0,0,0,0,0,.05h0l0,0,0,0,0,0V34l-.05.1,0,.06,0,0,0,0,0,0h-.07l.08,0v0l0,0h-.07l-.06,0,0,0h-.06l-.07,0h0l0,0h0l.17,0h0l.06,0h.07l.15.06,0,0,.06.06,0,0,0,0,0,0,0,.1,0,.1,0,.11,0,0,0,0,.13.05,0,0,.05.05,0,0,0,0,0,0h0l0,0v0l0,0,0,.06,0,.06h-.06l0,0,0,0h-.12l.06,0h0l.14.11.05.06,0,.07,0,0,0,0,0,0,0,0,.07,0h0l0,0h.17l.07,0,0,0,.09.06V36l0,0v0l0,0v0h0l0,0h-.06l0,0v0h-.1l-.07,0,0,0v0l0,0h-.09l0,0h.06v0h.25v.08h0l-.1,0,0,0h-.07l0,0h-.15l-.13,0h-.08l-.11,0h0l0,0h-.09l0,0,0,0,0,0h-.17v0h0l-.11,0h-.06l0,0,0,0h-.08l-.13,0,0,0v.05l0,0,0,0h0l0,0-.07,0,0,0h-.18l0,0-.07,0h0l0,0h0l0,0h-.08l0,0v0l0,0,.07,0,.07,0,0,0,0,0h0v0l.1-.08h0v-.07h.07l0-.07h.34l0,0,.06-.06,0,0,0,0,0,0,0-.06,0,0,0,0,0,0h-.11l-.06,0h-.09l-.07-.06,0,0H51.9l0,0h0l-.06,0h-.1l0,0-.06,0-.07,0v-.07h0l0,0,0,0h.07l.11,0,.05,0,.06,0,0,0,0,0v0l0,0h0v-.09l0,0v0h-.12l0,0h0v0h0l0,0,0,0,0,0v0h0l.05,0,.1,0h.15l.07,0,0-.06h0l0,.06h0v0l0,0v0l0,0,0,0h0v-.07l0,0v-.08h-.11l0,0,0,0,0-.07v0l0-.09.06-.05.08,0h-.17l0,0H52l0,0h-.13l0,0h0l0,0-.06,0h0V35l0,0,0,0v-.06h0l0,0,0-.07.05-.09,0,0,0,0v0l0,0,0,0v-.09h.08l0,0-.05,0h0v0h0l0,0,0,0h-.08v0h0v-.1l.06-.05,0,0-.06,0,0,0h0v.07l-.06.17h-.06v0h0v0l0-.08v0l0,0,0,0h0v-.19l0,0v0l0,0h0v0l0,0v0h0l-.11.07h-.06l0,0,0,0v0h-.05l0,0h0l0,0,0,0h0l0,0,0-.05v-.06l0,0v0l0,0v0Zm.12.81v0h.07v.1h-.07Zm.31.62h0l-.07,0h0v-.06l0,0,0,0h0v.06Zm0,.34,0,0h0v0l0,0h0l0,0v0h0l0,0v0h.08Zm-.62-1h0l0,0h0v0h0l0,0h0v.09h0v0l0,0h0v-.05Zm-.06-.39,0,0h0l0,0h0Zm.07,0h.06l0,0,0,0h0l0,0v.06l-.12,0h0v-.06Zm0-.19h0l0,0,0,0h0Zm.05.51h0v0h0l0,0h0l0,0-.06.08h0Zm0-.73v.07h.14l0,0,0,0h0v-.07h-.09v0l0,0-.07,0,0,0v0h0v0h0l.07,0v0h0l0,0Zm-.1-2.15,0,0,0,0v0h0v-.06Zm.06,1.72h0v.06l0,.07h0v0l0,0h0l0,0h0l0,0h0l0,0h0l0,0,0,0h0l0,0h0l0,0h0v0h0l0,0h0l0,0h0l.06,0ZM51.18,32v0h0l0,0,0,0v0h.06Zm0-.12h0l0,0h0v0h0l0,0v0h0Zm-.09-.25,0,0,.05,0v.06h0l0,0h0l0,0h0l-.06-.06L51,31.59Zm-.12.07h0l0,0H51l0,0,0,0Zm-.09,2H51l0,0,0,0h0l-.06,0Zm.08.22h0v0h0v-.07h0Zm-.09,0h0ZM50.11,35h.17l0,0h0l0,0h.09l0,0h0v0l0,0,0,0,0,0h.08l0,0,0,0h-.11l-.1,0,0,0h.08l0,0v0l0,0v0h.17v0h.05v.06h0l0,0h0l0,0h0l0,0v-.08l0,0h0l0,0h0l0,0,0,0h0l0,0h0l0,0H51l0,0h.08l.08,0h0l0,0h0l0,0,0,0,0,.05,0,0v0h0l0,0v0h.1v.1h0v0h0v.07h0v0H51.4v0l0,0,0,0h-.05v0h-.07v0l0,0v.09l0,0v0h0v0h0v.19l0,0,0,0v.11l0,.06h0l0,0,0,0H51l0,0v0h-.17v0h-.11l0,0h-.07l0,0h0v0h0l0,0h0l0,0-.16,0h-.08l-.07,0h0l0-.05.06,0H50v0l.05,0,0,0h0l0,0,0,0-.16,0h0v0h0v0l0,0,0,0H50v0h-.15v0h0l.05,0h.14l0,0v0l0,0h.05l0,0h.19l.1,0,0,0,0,0,0,0h-.27l.06,0,.08,0h0l0,0v0h0l0-.06h.13l0,0h-.18v0h-.09l0,0H50v0h0v0h.08l0,0h0v0h.1v0h-.1v0l0,0v0h0v0h0v0h.09Zm-.15.11h.1v0h0l0,0v0ZM48.51,22.26h.06l0,0,0,0,0,.05H48.6l-.06,0,0,0Zm-4.8-.53,0,0h.15l.13.05,0,0v0l0,.07L44,22h0l0-.05-.08-.05-.07,0,0-.09Zm-8.17.87h0l.14,0h0l0,0h0l-.07,0h-.1l0-.07,0,0,0,0,0,0,0-.05.07,0H36l-.11,0h0l0,0H36l0,0,0,0,.08-.06h.06v0h0v0l0,0h.1l0,0,0,0v0h0v0l.1-.05.06,0h.38l0,0V22l0,0,0,.09,0,0v0h0l0,0h0l0,0h0l0,0h0v0h0l0,0h0v0l0,0h0v0l0,0,0,0h.1v0h0l0,0,0,0h0l-.06,0,0,0h0l0,0h0l0,0,0,0-.06,0-.08.06h0l0,0h.06l0,0h0v0l0,0h0l.06,0h0l0,0,0,.06v0l0,0,0,0h0l-.16,0-.07,0-.05,0h0l-.05,0h0l-.05,0-.07,0,0,0,0,0v0l.05,0,0,0h0l.06,0h0l0,0h0l0,0L36,23l0,0h0v0h0l0,0h-.06l0-.05h0l0,0,0,0,0,0,0,0-.06,0,0,0h0l0-.07v0l0-.06v0h0l0,0,0,0,0,.05,0,0,0,0h0v0h-.06v0h0v0h-.09l0,0,0,0,0,0v0h0v0h.16l-.08,0h-.06l0,0v0h.07l0,0v0h.07l.13,0h.1l.07,0h.08v0h-.06l-.08,0h0l-.08,0h0l0,0h0l-.08,0,0,0h0l0,0,0,0h0l.07,0Zm-.28-.18h0l0,0,0,0,0,0h0l.05,0h.06v0l0,0-.08.06,0,0,0,0h0v0h0v0h-.05Zm-.19,1h.11v.09l0,0h0v0h0l-.06,0h0l0-.06v-.05l0,0,0,0Zm-.42-.4h0l.05,0h0l0,0,0,0h.13v0l0,0h0v0h0v.05h0l-.05,0h0v.05h0l-.06,0h-.1l-.06,0h-.15v0h0v-.06h.12v0l0,0h0v0l0,0h0Zm.1.89h-.06v0l0,0,0,0h.13v0h0l0,0h0v0l0,0Zm.87.46h.11v0h0l0,0h.09l0,0,0,0v0l0,0-.08,0-.09,0h0v0h.11v0h0v0l0,0-.09,0,0,0h0v0h0v0l0,0,0,0h-.18l-.06,0H35l0,0H34.9v-.05l0,0,0,0h0v0h0v0h0v0h0l-.05.05h0l0,0h-.06l-.08,0H34.6v0h0l0,0h0v0h-.12v0h0l0,0h0l0,0h0l0,0-.05,0,0,0h-.06v0h0l0,0,0,0,0,0h0l0,0h0l0,0H34l0,0h0v0h0l0,0h-.08l0,0h0v0h0l0,0,0,0h0l-.07,0h0l0,0h0l0,0h0V24.7l0-.07,0,0h0v-.1l0,0h0l0,0,.09-.05h0l0,0,0,0,0,0v-.06l0-.06,0-.05,0-.06h0l-.06,0H34l0,0h0l0,0,0,0h0v0h0l0-.06h0l0,0v0H34v0h0l0,0h.08l.06,0h0l0,0,0,0v0h.07v.05h0l0,0h0l0,0,0,0,0,0,0,0,0,0,0,0,.12-.06h.09l.09,0h.08v.06h-.13v0h.06l.15.07v0h-.19l-.06,0,0,0h0v0h0v0h0l0,0h0v0h0v0l0,0h0v0h0v0h0l0,0-.06,0h0v.05h0l0,0h0v0h.07v.06l.1,0h0l0,0h0l.08,0h0v.06h0l0,0h0l0,0v0h0l.08,0h0l.08,0h.06l.12,0h.08l.05,0h0l.11,0h.06l.07,0,0,0h0l0,0Zm-.2,1.29v0l0,0h-.14l-.13,0H35l-.13,0h-.07l0,0h0v0l0,0,0,0,0,0v0h0l0,0h0v-.06l0,0h0v0l0,0,0,0,0,0H35l0,0h0l0,0h.24l.08.06v.08h0l0,0v0l0,0v0h0l0,0v0ZM33.2,24.6h0v0h0l0,0,.08-.05h0l0,0,0,0,.06,0h0l.05,0,.12,0h.06v.13l0,0h0l0,.05h0l0,0v0l0,0h0l0,0,0,0h0l0,0h-.18v-.06h-.06l0-.05Zm.21-.24,0,0,0,0h0l0,0,0,0h0l.06,0h0l0,0h0v0h-.09ZM34,23.15h0l0,0h0v0Zm.86.28h0l-.1.06H34.6l-.18,0h0l0,0h0l0,0h0l.09,0h0v0h.08l.07,0h.08Zm-.92-.38,0,0,0,0,0,0,0,0h0l0,0h.06l0,0h.05l0,0h0l.07,0h0v0H34.3l-.1.06h0l.07,0,0,0h-.06l0,0,0,0,0,0,0,0h.19v0h0v0l-.05.06h0l0,0h0v0h0l0,0h0l0,0h0l0,0h0l0,0h0l0,0,0,0h0l.07,0v.05l0,0h0l0,0,0,0h0l0,0h0l0,0h0l0,.07,0,0,0,0h0l-.06,0h-.13l0,0v0h0l0,0h0l0,0h0v0l0,0h0l0,0h-.06l0,0-.12,0-.06,0h0Zm-.08.26,0,0,0,0H34v0h0v0h-.15v0Zm-.09.93v0h0v0h.09l0,0v0l0,0v0h-.06Zm0-.43h0v0h0v0h0v0l0,0h-.05v0l0,0,0,0,0,0h0l0,0,0,0,0,0,0,0h0l0,0,0,0h0l0,0h0l-.06.05,0,.06h0v0l-.07,0-.07.07v0l0,0h0v0h0v.05h-.19l-.05,0h0l0-.06h.07v0h0l0,0h0l.08,0,.08,0,0,0h.09l0,0h-.1l-.14,0h-.07l-.16,0h0l0,0h0l.07,0,0,0v0l0,0h0v.05h0v0h0l0,0h0l0,0h0v0l0,0h0l0,0,.06,0h0v0l0,0,.05,0,0,0h0v0h0l0,0h0l0,0h0v0l0,.09v0h.05v0h0l0,0h0v0h.08v0h0l0,0v0h0l0,0,.06,0h.12v.05l0,0h0l0,0,0,0h0Zm-.57.93v.05h0l0,0h.07Zm-.24,0h0l0,0-.07,0h0l.07,0h0Zm-.14-.62v0l.08-.05h0l0,0,0,0,.06,0H33L33,24h0l0,0,0,.05h0l0,0v0h0l-.05,0h0l0,0h-.11l0,0,.07,0v0Zm.32-.31h0v.05h0l0,0h-.16v0l0-.05,0,0v0h0l.05,0h0Zm.43-.49v0l0,0,0,0,0,0h0l0,0h0l0,0h0l0,0h0v0h0l0,0,0,0,0-.05,0,0v0l0,0,0-.05h.05Zm0,.44h0l-.09,0-.09,0h0l.06,0,.06,0h.05ZM33.16,23l0,0h0l0,0,.06,0,0,0,.06,0h.06l0,0h0l.07,0h.08v0h0l0,0h0l0,0,0,0,0,0,0,0h-.15v0h0l0,0,0,0h0l0,0h0l-.07,0Zm-.41.22.06-.07,0,0h.11v0h0l0,0h0v0h0l0,0h-.08Zm0,.13h.07l0,0h0l0,0h0l0,0h0l0,0H33l.08,0,.14,0h.07l0,0h0l0,0,0,0-.06,0-.08,0h0l-.05,0,0,0,0,0h0l-.06,0h0l-.11,0h0l0,0Zm-1.5.62,0,0h0l0,0h0l0,0,.08-.05,0,0h.09l.12-.07,0,0h0l.09,0h0l.05,0h0l.1-.06.08-.05,0,0,.05,0h0l.08,0v0h0l0,0h0v0h0l0,0h.06v0l0,.05,0,0h0l-.09,0h0v0l0,0v0h-.08l0,0,0,0h0l0,0h0l0,0h-.07l0,0h0l0,0h0l0,0v0h0v0h0l0,0h0l0,0,.05,0,0,0,.06,0,0,0h-.08l0,0,0,0,0,0h0l0,0h0l0,0,0,0h0l0,0h0l-.06,0h0l0,0,0,0,0,0h0l0,0,0,0,0,0v0h0v0h0l0,0h0l0,0h0l0,0h0l0,0,0,0,0,0h0l.05-.05h0l-.09.06,0,0h0v0h0l-.05,0h0Zm1.11-.36h0l0,0,0,0h0l-.05,0h0l0,0h.08Zm-1.1.54h0l0,0,.05,0,.1-.06,0,0,0,0,.06,0,0,0h0l-.07.05,0,0-.08.05-.12.08,0,0-.05,0h0v0Zm-.05-.08h0l.05,0h0l0,0h-.08Zm-.08.59v0h0l0,0,0,0,0,0h0l.08,0,.09,0h.13l0,0,.06,0,.05,0h0v0h0l-.06,0h-.1l0,0h0l0,0h-.12l0,0h0l0,0h0l0,0,0,0h0l.06,0h0l0,0h0v0h0l-.06,0,0,0h0l0,0v0l0,0-.08,0h0v0l0,0h-.05l0,0,0,0h0v0l0-.06h0v0h0l0,0h0l0,0,0,0h.14l.12-.05h.06l-.12,0h-.07l.05,0h.05l0,0h0v0h0l0,0h0l0,0h0l0,0,0,0h.1l0,0,.05,0,.08,0h0l0,0,0,0h0l0,0h.09v0L32,24l0,.06h0l0,0h0l0,0,0,0,0,0v0h.06l.1,0h0l0,0,0,0,0,0h0V24.1l0,0,.08,0h0v0h0l0,0v0h0v0h0v0h0l.07,0,0,0,.13-.07,0,0h.08v0h0l0,0h0l0,0v0l0,0h0v0l0,0,0,0h0l0,0,0,0h0v0h0l-.07,0,0,0h0l.06,0h0l0,0,0,0h0l0,0h0l0,0h0l0,0h0l0,0h0l0,0v0h0l0,0-.05.06,0,0,0,0-.08.06,0,0-.13.09,0,0,0,0-.09,0-.07,0h0l0,0h0l0,0h0v0h0l-.05,0-.11.06h-.11l0,0h0l0,0,0,0-.06,0-.08,0-.11,0h-.09Zm1.22.36h.17l.09,0h0l0,0,0,0-.07,0h-.14l0,0Zm0-.55h-.05v0h0l0,0,.06-.05h0l.05,0h0v0h0l0,0v0h0l0,0Zm-3.49,1.65,0,0v0l.08-.09,0,0,0,0,0-.05h0l0-.08,0,0h0l0,0v0h0l0,0h0l0,0h0l0,0,0,0,0,0h0l0,0,0,0h0v0l0,0,0,0h.05l0,0h0l0,0h0l0,0,.05,0,0,0,.09-.08.07-.05.07-.05L30,25h0l0,0h0v0l0,0,.12-.13h.05l.11,0h.07l.09,0h0v0l0,0v.08h0l-.05,0h0l.06,0h0l-.05.05h0l.09-.06,0,0h.08v0l0,0,0,0-.07.13v.06h0v0l0,0,0,0h0l-.08,0h0l0,0-.11.06-.07,0-.1.06-.18.09,0,0h0l-.14.11,0,0-.05,0h0l0,0-.08.07,0,0-.12.11h0l0,0,0,0-.05,0h0l0,0h0v0h0l-.1.08-.06,0,0,0h0Zm0,1.63,0,0v0h0v0l0,0h0v0h0v0l0,0v0l0,0,0,0Zm0-.17v0l0,0v0l0,0h0Zm0,0v0h0v0h0Zm.73-.22v0H29.5v0h0v0h.06Zm.44-.09h0l0,0h0l0,0h0l0,0h0l0,0,0,0h0Zm.25-.07h0l0,0v0h0l0,0h0v0h0l0,0,0,0h.05v0Zm.08-.06v0h0l0,0h0v0h0l0,0h0Zm0-.17h0v0h0v0h.06V27Zm.59.13,0,.06,0,0v.09l0,0h0v0h-.09l0,0,0,0h0l-.06,0,0,0h0l0,0H30.5v-.06l0,0h0v0h-.11v0l0,0h0l0,0h.1l0,0,.06,0,0,0h0v0h.07v0h0v0l0-.06h0l0,0h.11v0h0l0,0h0v.2Zm-.13-.61h0v0l0,0h0v0h0l0,0v0h0Zm.33.5v0l0,0,0,0H31l0,0h0v0l0,0h0v0l0,0,0,0h0l0,0v0h0l0,0h.06Zm.06-1.67v0l0,0v0l0,0h0v0h0v0l0,0,0,0,0,0-.15.2,0,0v0l0,.07,0,.06,0,0h0l0,0,0,0h0l0,0-.06.06h0v.08l0,.08h0v.09h0l0,0v0h0v.17h0l0,0h0l0,0-.06.08,0,0,0,0,0,0h0v0h0l0,0h0l0,0,0,0h0v0h0l0,0,0,0h0v0h0v0h-.05V26.9h0V27h0l0,0L30,27.1h0l.08-.05,0,0,.05,0,0,0h0l0,0h0v0h0v0l0,0-.05,0,0,0-.07,0h-.18l0,0h0l0,0h0l0,0-.05,0v0h0l0,0h0v0h-.07v0h0l0,0v0h0v0h0l0,0,0,0-.08.08h0l-.07.05h0l-.07,0h-.1l0,0-.05,0-.09,0-.07,0h-.14l0,0h-.11l0,0h-.05v-.05l0-.07,0,0,0-.06,0,0,.05-.07h0v0h-.15v-.06h0v0l0,0,0,0,0-.06,0,0h0l0,0,0,0,0,0v0h0l.08,0,.12,0,.11,0h.11l0,0h.13V26.5l0-.08v0l0,0H29l0-.12,0,0v0h0l.06-.05h0l.06,0,.07,0,.06,0h.07v0h.09v0l-.15,0h-.05l-.05,0h0v0h0l0,0,0,0,.06,0h-.07v0h0v0l0-.05,0,0h0l.11-.08h0l0,0h0v0h0l0,0,0,0,.06,0,.14-.09.06,0h.05l.07,0,.16-.07.15-.07v0h0l0,0,0,0-.05.05,0,0,0,0,0,0,0,0,0,0,0,0-.07.05h.1l0,0h0l0,0,0,0,.06,0h.06v.13l0,0-.05,0-.09.06,0,0h0v0l0,0,0,0,0,0h0v0h0l0,0,.06,0,.06,0h.07l0,0h0v0l0,0,0,0h0v.14h0l0,0h0l0,0,0,0,0,0-.06.08-.08.11-.06.06v0h0v0h0l0,0,.08,0h0l0-.06,0-.06.06-.07,0,0,0,0h0v0h0v0l0,0,.18-.2,0,0h.06v0h0l0,0h0v.07h0l0,0h0v.09Zm.08,0,0,0h0v0l0-.05v-.05l0,0v-.09h0l.06,0,0,0h.06l.11,0h0l0,.05h0v0l0,0,0,0-.05.05h0l0,0-.09.06-.05,0,0,0Zm.79.33,0,0h0v0h0v0h0l-.06,0h0l0,0-.05.06-.06,0h0l0,0,0,0-.05,0h0l-.06,0h0v0l0,0,0,0h0l0,0v0l0,.07,0,0v0h0l-.07,0h-.06v0h0v0l0-.06v0l0-.05,0-.07v0l0-.07v0h0l0,0v0h0l0,0,0,0h0v0h0l0,0v-.05l0-.06,0,0h0l0,0,0,0,0,0h0l.05,0h.05v0l0,0v0h0l0,0,0,0h.05l.07,0h0l.07-.08h0l0,0h.05l0,0,0,0h0v0h.06v0h0v-.05h0l0,0h-.07v-.07h0v0h0l0,0H32l0,0v0h0l0,0,0,0h0v0h0v0l0,0h0l.07,0,0,0h0l0,0h0v.1h.17l0,0h0l0,0h0v0l0,0h0l0,0h-.06l0,0h0v0h0v0h0l0,0-.06,0-.12.08,0,0H32l.05,0h.08v0h0v0l0,0,0,0v0h0l0,0h0l0,0,0,0,0,0,0,0Zm.27-.32v0h0l0,0,0,0h-.05v0l0,0v0h0l0,0h0v0h0Zm0,.41-.07.05,0,.05h0l0,0h-.1l.07-.07.06-.07.05-.07.08-.13v0l0,0,0,0,0,0,0-.05,0,0,.07-.07.09-.1,0,0h0l0,0h0l0,0h0v0l0,0,0,0v0h0l0,0h0l0,0h.14l.06,0h0l0,0v0h0v0h0l.07,0h.11l0,0v0l0,0,0,0,0,0-.07.05-.05,0h0v0l0,0-.07.05h0l-.06,0h0l0,0L33,25.5l-.07.05,0,0-.07,0h-.05l-.1,0h-.14l0,0h0v.07h0l0,0h0Zm.31,1v0h-.12v0h.12Zm-.17,2.8h.07l0,0h0Zm.13.27h0l0,0,0-.07.07,0,0,.05v0Zm.38.38H33l0,0,0,0h0v0H33Zm.78.08h-.09v-.05l0,0h0v0h.08l0,0,0,0v.06h0Zm.14,1,0,0h0l-.06,0h0v0l0,0,0,0,0,0H34v0h0Zm.79.09,0,0,0,0v0h0v0h0v0h0v0Zm.16-.54,0,0h0l0,0h0v0h0l-.05-.05v0h.16v.05Zm0-.15h0l0,0v-.05h0v0Zm.08,2h0l0,0v0H35v.07Zm.15-2.2H35v0h.12v0Zm.8,4.59h0v0l0,0h0Zm0,1h0l0,0h0v0h0Zm-.75,1.12h0v0l0,0h0v0h0l0,0h0l0,0v0h0Zm.06,0Zm.62,16.44h0l0,0v0h.05l0,0Zm.11-16.34h0v0l0-.08v-.09h0l0,0,0,0,0,0h0v0h0v0l0,0,0-.07,0,0v0h0v-.14l0,0h0l0,0-.06.08,0,0v0h0v0l0,0h0l0,0,0,0h-.06l-.09.08v0l0,0h-.18l0,0h0l0,0,0,0h.07l0,0,0,0h0l.07-.08.06,0,0,0,0,0h0l0,0h-.14l0,0v0h0l-.05,0h-.09l.07,0,0-.08h-.08l0,0h-.21l-.14,0h0l-.06,0h-.12v0h0l0,0h-.06l-.09,0h0l0,0h0v-.1h0l0,0,.1-.06.08-.06,0,0,0,0,0,0h-.22l0,0,.07,0h0l0,0h.05l0,0,0-.06,0,0,0,0h.06l0,0h0v0l0,0h0v-.06l0,0,0,0,0,0h0l0,0h0l0,0v0h0l.09-.13,0-.07.06-.1,0,0,0,0h.05l0,0h0l0,0,0,0,0,0h0l0,0h0l0-.06,0,0h0l.1,0,0,0h0v0l0,0h0v0h.06l0,0v0h-.13v0h.05v0l0,0,0,0,0,0h0v0l0,0-.07.06,0,0h0l0,0,0,0,0,.05,0,0h0v0h0v0h0v0h0l0,0,0,0,.05,0,0,0h0l0,0,0,0,0,0h0v0l0,0h.09l0,0h.08l0,0h0l0,0-.1,0,0,0h.08v0l-.07,0h0l.06,0,0,0h.09v0h0v0h0v.06l0,0,0,0v0h0l0,0h0v0h0l0,0h0l0,0h0l0,0,0,0,0,0h0v.08h0l0,0h.15l0,0,0,0v.07l0,0h0l0,0v0h0l-.08,0h.11l0,0v0l0,0-.06,0H36l0,0h0l.05,0h0l0,0h0v0h0l0,0h-.06l0,0,0,0h0v.05h0v0l0,0-.06,0h0v.06h0l0,0,.08-.1.07,0,0,0h0l0,0,0,0,0,.06,0,0v0l0,0h0v0h0l0,0,0,0,0-.05h0V37l0,0v0l-.1.12v0h0v0l0,.06,0,0,0,0h0v0h0ZM35.77,37h0l0,0,0,0h0v0l0,.05,0,0Zm0-1.4h0v0h0Zm.21.52v0h0l0,0h0v0h0l-.08,0Zm.16,18.19v0l0,0H36l0,0h0l0,0h.09ZM36,54.2l.05,0v0l0,.06h0l0,0h-.06v0l0,0h0Zm-.11-.09h.05v0l0,0h0v-.06Zm-.1.11h0l0,0v-.08h0v.1l0,0v0l-.06,0Zm-.07.17,0,0h0v0h0v0l0,0h.06Zm.73.08v.07h0v0h0v0l0,0h0l0,0h0v0l0,0h0l0,0v0h0l0,0h0v.06H36l0,0h-.14l0,0v0l0,0,0-.05v-.08h0l0,0v-.1h0v-.12l.06,0h.06l.18.05h.15l.09,0h.12v0Zm.24-25.74,0,0h0l0,0,0,0h0l.07.06v.06l-.08,0h0l0,0,0,0h-.06l0,.05h0l0,0,0,0v0h-.15l0,0h0v0h0v0h0l0,0,0,0h-.08l0,0v0L36,29h0v.06h0l0,0-.07.14,0,0,0,0-.05.05v-.08h-.05l0,0v-.05l0-.07,0,0h0l0,.05-.05.06,0,0v-.18h0v0h0v0l0,0,0,0,0,0h.09l0,0,0-.05,0,0,0,0h0l0,0,0,0,0,0,0,0-.09,0h-.12l0,0,.07,0h0l0,0h0l0,0h0v-.15l0,0h0v0h-.07l0,0v0l0,.05h0l0,0,0,0,0,0h0v.09l0,0,0,.05v0l0,0h-.07l-.05,0v0l0,0,0-.06h0l-.06,0H35l0,0v0l0,0,0,0V29l0,0h0l-.05.07v0h0l.05,0h0v.06h0l0,0h0l0,0h0l0,0v.08h0v0l0,.07v0h0l0-.07h0l0,0v0h0l0,0h0v0h0l0,0,0,0,0,0,0,0,0,0h0v0h0l0,0,0,0,0,0h.09v0l-.06.06h-.08l0,0v.05h0l0,0h.11v0h0V30h0v.1l0,0,0,0h0V30l0,0h0V30l0,.07,0,.05h0l0,0v.08h0l0,0h0l0,.1v0h0v-.08l0,0,0,0h0v0h0l0-.05h0v0h0l0,0v-.09l0,.05v0h0v0h0v0h-.05v0l0-.06,0-.07v0h0v.14h0L34.48,30l0,0h-.08l0,0V30l0,0,0,.05v.08l0,0h0l0,0h0l.05,0v0h0l0,.07h0l0,0v.15l0,0h0v0h0v.08h-.09l0,0,0,0-.08,0,0,0h0l-.2-.05h-.05v0l-.06,0h0l0-.07v-.08h-.16l0,0,0,0,0,0h0l.05,0h0l-.07,0h0l0,0V30l0,0h.09l0,0,0,0h0v0h-.11l0,0v0h0l-.06,0h0v-.09h0l0,0,0-.08v-.05h0v0l.06-.05h0l0,0,0,0h0l0,.05h0l0-.07h-.07v-.07h-.07v.11l0,0h-.13l0,0h0l0,.06H33l-.08,0h0l0,0H32.7v0h0l0,0v-.13l0,0,0-.06,0,0,0,0,0,0,.11,0,0,0h0v-.06h0l0,0h0l0,0h.06l0,0,.07,0,0,0,0,0v.06l0,0h0v0h0v0h0v-.08l0-.05v0h0l.07,0h0l0,0h.16l.06,0h.14v-.14l0,0v-.13h0l.12-.07.11-.06.05,0,0,0,0,0h.07l0,0v0l0,0,.07-.06,0,0h.07l.07-.05v0h0l0-.15v-.3l0,0h0l-.07,0h0v-.05h0v0l0,0v0h-.06v.07h-.08v-.1h0l.05,0h0l0,0,0,0h0l0,0h0l0,0h-.06l-.11.05H34v0h0l0,0,0-.05,0,0h0l.05,0h0l0,0,0,0,0,0v0h0l0,0,0,0h0v0h0v0h0l.06,0h-.07l0,0h0l0,0h0l.05,0v0h-.11v0l0,0,0,0,0-.05v0h-.1v0h0v0h0v-.05h-.06l0,0,0,0h0v0l0,0v.1l0,0h0l0,0-.06,0h-.1L33.74,27h0l0,0h0l0,0h-.1v0h0v.11h0l0,0-.05-.1-.09,0H33.3l0-.05v0h-.15l-.1,0,0,0h0l0,0-.09,0,0,0v0h0v0l0,0,0,0,0,0h0l-.06,0h-.09v0h-.11l0,0h0v-.09h0v0h0l0-.11v0l0-.09v0h0l0,0h.08v0l0,0h.16l0,0,0,0v0h-.1l-.06,0,0,0,0,0v0h0l0-.05.05-.07,0,0,0,0v0l.06,0,.08-.05h0v0l0,0,0,0v0l0,0,.06-.05.07,0,.07-.05,0,0,0,0,0,0,0,0h0l.05,0,0,0,.06,0h0v0h0l.16-.09.07,0,.05,0h0l.13,0h.13l.12,0h0v0h0l-.07,0-.07,0-.06,0-.1.06,0,0-.17.13,0,0,0,0-.05.05h0v0l0,.07,0,0,0,0,0,.06,0,0,0,0,0,0,0,.06,0,.06v.2l0,0-.07,0h-.11l-.06,0-.06,0h0l.08,0h.14l0,0h0v0l0,0,0,0,.1-.11,0,0,0,0,0,0v0h-.08V26h0l.05,0,0,0,.07,0h.06l0,0,0,0h0v-.12h.06l0,0h-.05l0,0h0v-.06h0v0l0,0,0,0,0,0,0,0,0,0h0l0,0,.07.06,0,0L34,25.57l0,0v0l.16-.1.08,0,.06,0h0l0,0h0v0h0l0,0,.07,0h.27l.05,0v.05l0,.05,0,.08v0l0,0v0l0,0,0,0,0,0v.09h0l0,0-.09.05-.1.05-.08.05v0l.14-.08h0l0,0,0,0,0,0h0v0h-.06v0l0,0h0l0,0,.11-.07,0,0h0l0,0h0v-.06h0l0,0h0l0,0h0v.05h0l0,0h0v0l0,0,0,0,0,0v.07h0V26l.07-.07.05,0h0v0h.05l0,.05h0v0h0l0,0,0,0v-.05l0,0h0l0,0h0l.09,0,.06,0h.15l0,0,0,0,0,0h.08l.05.05V26l0,0v0l-.13.08h0l0,0-.07.06,0,0h0l.05,0,0,0,0,0,.08,0h.15v.05l0,0,0,0-.08,0,0,0h0l0,0,0,0v0l0,0,0,0,0,0h0l.08-.05.06-.06,0-.05,0,0h.08l.05,0h0l-.07.05-.12.09h0l0,0,0,0,.05,0v.15l0,0,0-.07,0,0h0l.08-.05,0,0v0h.09l0,0,0,0,0,0v.05h0v0l0,0-.06,0,0,0h-.12l-.09.05,0,0,0,0h.05l0,0,0,0,.05,0h.06l.05,0h0l0,0,0,0h0v0l0,.05h0l-.05,0-.08.05h-.09l-.05,0h0l0,0,0,0h0l0,0,0,0h0l0,0-.12.13h0l0,0,.14-.13,0,0,0,0,.09,0,.05,0h.12v0H36v0l0,0,.06,0h0v.06H36l0,0h-.15l-.07,0-.11,0h.05l0,0H36l0,0h0l-.06.05h.06l0,0,0,0h0l0,0h0v0h0l0,0,0,0,0,0h0l0,0v0l0,.09v.11l0,0h0l-.09,0h-.11v0h-.13l-.07,0h0l.07,0h.06l.06.05h.17l0,0,0,0h0v0h0l0,0h0l-.08,0h-.08l0,0,0,0-.07,0,0,0h-.05l-.12,0h0l.14,0h0l0,0,0,0h0l0,.05,0,0,0,0h0l0,0h0l0,0h0l-.08,0h0l.07.05h.06l0,0h0l0,0v0h.09v0h.13l-.06,0,0,0v.06h0l0,0h0l0,0h0l0,0h0l0,0,0,0,0,0H36l0,.08,0,0-.07.06,0,0h0l0-.05L36,28h0l0,0,0,0,0,0h0l0,0h0l0,.06v.06h0v0l0-.05,0,0,0,0,.07,0h0v0h0l0,0h0l0,0h0l.05,0,0,0v0l0,.06h0l0,0-.07,0,0,.06h-.15l0,0h0v0h.12v0h.12l0,.05,0,0,0,0,0,0,0,0h0l-.13.07h.06l.09,0h.16l.09-.06,0,0v0l0,.07,0,0v0Zm-3.28-.95v0l0,0h0v0h0l0,0h0Zm.29-.69h0l0,0h.05v0h0l0,0h-.09v0h0v0h0l0,0h0v0h0l0,0h0v0Zm.36.06h0l-.07,0,0,0h-.08l0,0,.07-.05H34v0h0v0Zm0,.16,0,0h.1l0,0,0,0,0,0H34v0h0v-.06Zm-.21,0h.06v0h0l0,0,0,0,0,0h0l0,0,0,0h0l0,0h-.06v0h.05l0,0h0l.05,0h0l0-.05h0v0h0Zm-.29.9,0-.05,0-.08h0l.06-.06.05,0,.07-.06.08-.06h0l.06,0h.13l.07,0v0h0v0l0,0h0l0,0h0L34,28l0,.05,0,0,0,0,0,0,0,0-.1,0h-.24v-.06Zm.66-.27h.11l0,0h.07l0,0v0h-.23v-.09h0Zm0-.21h0l0,0v0l0,0h0v.11h-.07v0l0,0Zm1.74-3.34v0l.06,0,0,0,.07,0,0,0h0v0l0,0,0,0,0,0,0,0h-.1ZM36,27.29h0l0,0h0l0,0v0l0,0H36Zm.42,1.21,0,0h.1l0,0-.06,0h0Zm1,26.34h0v0h0Zm.13-31.65h0l.06,0,0,0h0l-.1,0-.14.09h-.08l-.07,0h0l-.06,0H37l0,0,0,.05-.05.05,0,.05,0,0,0,0-.05,0H36.4l0,0,0-.06h0v.06h0l0,0h-.09v0h0l.06,0h.08l0,.05h0l.06,0h.08l0,0,0,0,0,0v0l0,0h0l.06,0h0v.06l0,.05-.07,0-.06,0-.15,0-.05,0,0,0,0,0-.1,0h0l-.1,0h0l0,0,0,0,0,0v-.05h-.1v0l0-.05h0v0h0V24l0,0,0,0h-.18l-.07,0v0l.05-.08-.15.14-.15,0h0l0,0,0,0v0l0,0h0l0,0-.07.06,0,0h0l0-.07L35,24h-.11l.07-.08.08-.09-.07.06,0,0-.05.06,0,0h-.09l.08-.08.08-.07.18-.07.06,0h.29l0-.05h0v-.07l0-.05,0,0,0,0,0,0h.13l0,0,0,0v0l0,.06,0,.05v0l0,.05H36l0,0h0l.07,0,.11-.06.08-.05,0,0,0,0,0,0h0l-.22.12,0,0-.09,0H36l0,0-.08,0h0v0l.09-.09,0-.07.08,0,.06,0,.12-.06h0v0h0l.15-.12-.13.09-.09,0-.05,0H36l.07-.05.09-.06,0,0-.09,0h-.15v0l.06-.05.07-.06,0,0,.07,0,.08,0L36.2,23h.18l.09,0h.05l.1,0,0,0h.06l0,0h.17L37,23h0l0,0h-.07l0,0h-.16v0h.07v0h0v-.08l0,0v0l0-.05,0-.05v0h0l-.06,0h0v0l.08-.08,0,0,.09-.06,0,0,.12,0h.14l0,0v.14l0,.06v0h0l0,0,0,0h.11l0,0h-.11v-.22l0-.05v0h.33l.16,0,.1,0h0l.23,0,.14,0h-.09v0l0,0,0,0,.05,0,0,0,.18-.06.1,0h0l-.19,0-.09,0-.1,0h-.11l0,0,0,0,0,0h0l0,0-.09,0-.17,0H37.8l-.14,0h0l0,0,.1,0,0,0h-.18l0,0-.07,0h-.22l0,0h-.09v0h0l.06,0,0,0,.15-.05.08,0,.1,0,.2,0,0,0h-.19l-.18,0h0l-.07,0-.22.09-.06,0H37v-.05l0,0H37l.12,0h.25l.12,0,.16,0,0,0h-.06l-.08,0-.15,0H37l0,0,0,0,.07,0h0l0,0h0l.07,0,.1,0h.18l0,0h-.11l-.23.05h0l.16-.06h-.19v0l0,0,0,0,.05,0h.06l.07,0h.2l.06,0h.19v0h0l0,0H38v0h.11L38,21.56h.15l.07,0,0,0h.08v0h0l0,0h0l0,.06v0h.06v0h0l0,0h0l0,.05.07.05,0,0h0v0h0l0,0,0,0-.07-.07,0,0v-.07h.15v0h.09l0,0h0l0-.05H39l0,0,.11,0h0l0,0,0,0h0v0h.13l.06,0h.12v0l0,.07h0v0h.06l0,0h0v0h0v-.09l0,0h.19l.15,0h0v.1l.06,0h0l0,0v0l0,0h0l.11,0h.12v.08h0v0h0l.07,0h.18v0h.14l0,0H41l-.05,0h0l-.28.05h.13l.08,0h.07l.1,0h.12l0,0h0v.06h0l.06,0h0l0,0v0h0l-.06,0h0l.14,0,.1,0h0v.05l0,0-.09,0-.09,0-.06,0h-.06l-.23.06-.1,0-.07,0h-.15l0,0h-.19l0,0h0l0,0h0l-.34.07h0l.48-.07h.14l0,0-.16.06-.18.05-.11,0-.23.07-.21.07-.09,0-.13.07h-.13v-.06h0l0,.1,0,0h-.14l-.07,0h-.06l.14,0h0l0,0h0l-.06,0-.13,0h0v0h0l-.06,0h0l-.11,0h-.07l-.1-.07h-.16l0,0h.08l0,0v0l0,0H38l0,0h-.08l0,0v0h0l0,0h.16l-.09.08h-.14v0h-.41v0h.29V23h.09l0,.05h0l0,0v0l-.09,0h-.17Zm.12.58,0,0h0l0,0h.09l0,0h-.09Zm1.72,7.74v0l0,.05,0,0v0H39.3l.12-.05h.06v0Zm3.1-1.94,0,0h0v-.08h0l0,0ZM46,28.2v0h0l-.08,0,0,0h0l0,0h-.13l-.08,0h0l-.17,0h-.14l-.14,0H45l0,0h0l-.08,0h-.06l0,0,0,0h0l-.1,0h0l0,0v0h-.1l-.05,0-.06,0-.08-.05-.08-.08,0,0v.09h0l0,0,0,0,0,0,0,0H44l-.15.07h0l0,0,0,.06,0,0,0,0h0v0l0,0-.1.1-.09.09,0,0h-.06l0,0,0,0,0,0h0l-.14.07h-.09l-.06,0v0l0,0v0h0v.09l0,0h0l-.06,0-.09.05,0,0v0h0l0,0h0l0,.06h-.08l0,0h0l-.06,0h0v0l0,0h-.07l0,0-.05,0v0l.05,0,0,0v0l0,0,.1-.1.07,0h0l-.07,0-.06,0h-.09l0,0,0,0,0,0,0,0,0,.07,0,0-.06,0,0,0v0l0,0v.06l-.12,0h-.43l.12.08h0l0,0h0l-.06,0h0l-.07,0-.1,0H41.4v.1h.08l0,0v.07l0,0,0,0v0l0,0-.06,0H41.4v0l0,0h-.2l.09.06,0,0h.06l0,0,0,.09v.09l-.07,0v0H41.2v0l0,0h0v0l0,0,0,0,0,0h-.12l0-.05h0v0h0l0,0,.07,0v0h0l-.07.06h0l0,0h-.23l0,0,0,0,.05,0,.08,0v0l0,0v0l0,0v0l0,.05v.05l0,0v.07l-.05,0h-.08l0,0,.07,0,0,0,0,0,0,.08-.07.12-.06.13-.12.1h-.08l-.07,0h-.09l0,0h0l0,0h.06l0,0v0h0v.09l0,0,0,0h-.1l-.07,0h0L40,32v0h-.13v0l0,0h-.1v0l0,0,.06-.05,0,0v0l0,0,0,.05,0,0h0l0,0-.14-.08,0,0v0h.09l0,0,0,0,.05-.05h0l-.11.07-.06,0h0l0,0h0l-.06,0h0v-.07l.06-.08,0,0,0,0,0,0v0h0v0h0l-.09,0-.08,0-.05,0,0,0,0,0h-.14l0,0H39v0h-.12v0l0,0,.09,0,0,0H38.9l0-.06h-.13v-.11l0,0,0,0h0l0,0h0v0h0V31l0,0,.06,0h.09l0,0h-.06l0,0,0,0H38.7v-.06l0,0,0,0h0l0,0,0,0,0,0,0,0h0l0,0v-.08l0,0,0,0,.1-.05-.09,0-.08.06h0v0h0v0l0,0v0l0-.05,0-.08,0-.09v-.06l.05-.06v0h.08l.1,0,.06,0h.09l0,0h0v0h0l-.08,0-.09,0h-.14l0,0v0l.06,0,.06-.07.06,0h.1v0h.14v.09l0,0v-.14h-.07l0,0h0v-.15h0v.19l0,0,0,0h-.1l0,0,0,0h0l0,0,0,0,0,0-.08.08,0,0,0,0h0v-.08l0-.08,0,0v-.22l0,0h0v-.05h0l.08,0,.07,0,.09-.06,0,0h.07l-.1,0h0l0,0,0,0-.1.05h0l0-.06h-.11l0-.08.07-.09h0v0h0l.1,0,.16-.08.06,0h0l0,0,0,0v0H39l0,0,.09-.05h0l0,0-.08,0-.06,0-.19.1-.08,0,0,0,0,0h-.18V29l0,0v0l0,0,0,0,0,0h0l.06,0,0,0,0,0h-.1l0,0,0-.07.06-.08,0,0,.07,0h0l.05,0,.08,0,.09,0H39l.09,0,.06,0h0l.06,0,.09.06h0l-.1-.07v0h0l0,0h-.29l0,0h-.16l-.14.07-.05,0h0l0-.05,0,0v0l0,0,.08-.06.06-.06,0,0h.06l.1,0,.08,0h.16v0h0l0,0,0,0v0h-.07l-.05,0h-.19l-.07,0h-.15l0,0,0,0L39,28l0,0,.08,0h.07l.09.08h.07l.1,0h0l0,0,0-.05h0l-.07,0h-.05l.06-.09,0-.07,0,0h.16v0h-.13l0,0,.06-.06,0,0,0-.06v0l0,0,.06,0h0v-.07h-.07l0,0h0l-.06,0h0l-.14,0h0l0,0,0,0,0,0-.07,0-.08,0-.05,0,0,0,0-.05,0,0v0l0,0,0,0h.37l0,0,.1.1,0,0h0l.09,0h0l0,0,0,0,0,0,0,0h0l0,0,0,0h0l0,0h.06l0,0H40l0,0,0,0h-.19l0,0h-.14V26.7h0l0,0,0,0,.2,0,.06,0h-.11l-.09,0h0l-.05,0-.07,0h0l0,0h0v0h.07l0,0v0h0v0l0,0v-.08h0v-.08h0v.1h0v.08l0,0,0,0,0,0h0v0l0,0h0v.06l0,0,0,0h-.17l0,0h0l0,0v-.07l0,0,0,0h0l.07-.09.07-.07.11-.06,0,0h0l-.13.08h-.07v0l0,0h.06l0,0v0h0l0,0h.07l0,0h0l0,0,0,0,0,0v0l0,0v0l0,0,0,0H39.4v0l0,0h.06l0,0,0,0,0,0V25.7l-.06,0h0v0h0v0l0,0h0v0h0l0,0,0,0h0l0,0v-.05h0v0h0v-.06h-.07l0,0v0l0,0v0h.09l0,0,0,0,0,0h0V25l0,0L39.52,25v-.12l0,0v0l.09,0v-.1l0,0h0l0,0,0,0,0,0,0,0-.06-.05-.1-.06,0,0h-.07l-.07,0h-.13v0l0,0h0l-.06,0-.06,0h0V24.3h0l0,0h0l-.05,0h-.13v0h-.06l-.06,0h-.05l0,0h0l0,0v.08h0l-.2-.06h0l0,0,0,0,0,0,0,0v0h0l0,0,.13-.05H38l-.08,0-.05,0h0v0l0,0,0,0,0,0h0l-.14.06-.05,0h0v0h0l0,0v0l0,0,0,0h.28l.1,0,.08-.05h.25l.08,0h0l0,0h0v0l.05,0,0,0v-.08h-.1l-.09,0h-.13l0,0h0l0,0,0,0h-.07l-.07-.05h0l0,0v0h0l.07,0h0l-.05,0h-.07l0,0h0v0h0l-.05,0h0v-.08l0,0,.07,0h0v0h0l0,0,.07,0h0l.08,0,.08,0h.16l0,0h0l.09,0,.19,0h0v0h0l.1,0h.43l0,0,.08,0,.05,0,.06,0,.08-.06.08-.07.07-.06,0,0v0h-.06l0,0h-.07l0,0h-.1v0l0,0,0,0,.07,0,0,0,.1,0,.06,0,.06,0h.1l.08,0,.07,0,.11-.05h0l.12,0h0v.06h0v0l0-.06,0,0,.06,0h.13l0,0h.06l0,0,.06,0,.06,0,0-.05,0-.05,0,0,0,0,.06,0,0,0,.09,0h.08l0,0h.05l0,0,0,.07,0,0h0l0,0,0,.05,0,0h0v0l0,0L41.7,22l0,0v-.07l0,0h0l.12,0,.18,0h.42l.11,0h.07l0,0v.05l0,0-.11.13,0,0h0l0,0,0,0,0,0,.05,0,0,0v0l0-.06,0,0h0l.08.11,0,0,0,.06H43l.08,0h.06v0l-.06-.07,0,0,0-.06v0h.16l.17,0,.17.11.1,0,.15.13,0,0h.06l0,0,0,0v0l0,0,0,0,.06-.06,0,0,0,0v0l0,0L44,21.7h.09l.39,0h.2v0h0l-.44-.06-.08,0H44l0,0,.08-.05h0l.07,0,.06,0,.09,0h.08l.2,0h.14l0,0,0,0h0l0,0,.08,0,.07,0,.07,0,.07,0,0,0,0,0,0,0,.07.08h0l0,0v0l0,0h0l-.07,0h0v0h.15l0,0h.06l0,0h.08v0h.47l.08,0h.08l.38,0,.12,0,.15,0,.08,0h0l.11,0,.11,0,.18.05H46.4l0,0h.09l.21,0h.08l.13,0,.18,0h.54l0,.06,0,.06h.1v0h.08l.16,0,.1,0,0,0v0l0,0-.08,0-.1,0-.12,0H46.63l0,0v.05h0l.12,0h.35l.35,0,.09.06,0,.08h.16l0,0,0,0,0,0,0,0h.35l0,0v.08l0,0,0,0-.07.07-.05,0,0,0-.11.05,0,0-.12.07,0,0v0h0l0,0h0l0,0,.16,0h0l.11-.05.06,0,.06,0h0l.16-.11.08,0h.08v.06h.14l.06,0h.08l.05,0h.06l.05,0,.06,0,.06,0h.08l.09,0h.06l.19,0h.1l.15,0,.1,0h0l.06,0,.06,0h0l-.14,0,0,0-.14.05-.07,0h-.21l0,0v0h0l0,0H49.3l-.07,0h-.16L49,23l0,0h0l.09,0v0l-.05,0-.07,0-.08,0h-.25l-.13,0-.06,0h-.1l-.08,0,0,0,0,0,0,0v.06h.16v.05l0,0,0,0v.07h0l0,0v0h0v0h-.06l-.11,0h0v.05l0,0H48l-.12.06h0l0,0v0l-.07.07,0,0,0,.06,0,0,0,0,0,0,0,.05v0l0,0,.05,0,.07-.06.06,0,.07,0H48l.07,0,.06,0,.05,0,0,0v.05h-.05l-.09-.05H48l-.06,0,0,.08,0,0,.1,0,0,0,0,0h.06l.06,0h.1l0,0v.14l0,0,0,0h-.15l-.08,0-.08,0h-.25v0l-.17.06h0l0,0-.06,0h0l-.06,0h0l0,0h.12l0,.08,0,.05h.18l.05,0H48l0,0L48,25l0,.05,0,.05,0,0v.08h0v.13l0,0,0,0,0,0h0l0,0,0,0,0,0H47.8l-.11.06H47.6l0,0h-.11l-.08,0,0,0,0,0,0,0h.08l.09,0h0v.12l0,0,0,0h0l.07,0,0-.05,0-.06.05,0,.06,0,0,.06,0,.11,0,0,0,0v.11h-.09l-.1,0h0v0l-.11,0h-.12l-.1,0-.09,0,0-.05,0-.06,0,0h0v.07l0,0-.06,0h0v0l0,0h0v0h0l0,0h0l.17,0h.07l.15.06h0l0,.08,0,.07H47.4l-.09,0-.08,0h0L47,26.22l-.05,0-.12-.08L46.78,26l-.05,0,0,0h-.09l0,0-.05,0,0,0,0,0h0l0,0,0,0,.08.08,0,0v0h-.06l-.08,0h0l-.07.05h-.13l0,0-.08,0h-.05l-.07,0,0,0,.13.05h0l0,0h-.22l0,0h0l0,0h.11l.08,0h.1l.17,0,0,0h.17l.11,0h.06l0,.05.06,0,.05,0,.06,0,0,0,.1,0,.06,0,0,0,0,.09v0l0,.11-.06,0v.06l0,0,0,0-.05,0-.12-.05-.11,0,0,0-.05,0-.06-.09,0-.11v-.06h-.14l0,0-.16,0-.06,0h0l-.12,0,0,0h.1l.11,0h.08l0,0h.11v.14l0,0h0l-.08,0,0,0,0,0,.07,0,.05,0h0l0,0,0,0,.1.06.05,0,.07,0,.08.05h0l.08,0h0l0,.07h.11l0,0-.09.05,0,0h0v.12l0-.06v0h0l.06,0,.05,0v.45l0,0h-.08l0,0H47v-.09l0-.09,0,0v0l0,.1,0,0h-.17l-.11-.05,0-.05,0-.07v-.12l0-.05,0,0-.05,0-.06,0-.05,0,0,0-.05,0,0,0-.08,0h-.12l-.08,0h0v0l.1,0h.22l0,0v.09l0,0-.08,0,0,0-.12,0h-.19l-.09,0h-.18l0,0h0l0,0v0l0,0,0,0,0,0-.08,0h0l-.14,0h.13l.12.05h.11l.23,0h0v0h0l-.06,0h-.15l-.07,0,0,.05.06,0,0,0,0-.05,0,0,.08,0,.08,0H46l.14,0h0l.2,0,.18.07.09,0,.13,0H47v0h0l0,0h-.18v0h-.06l-.09,0h-.07V28h-.06l-.08,0h0v0l0,0h0l-.09,0h-.12l0,0h0l-.05,0H46Zm-7.08-.91v0h0v0h0v0h0l.09,0h.07l.13,0h0l0,0,.05.1.06,0,.07,0h0v0h0l0,0,0,0-.17.05h-.06l-.15,0h0l0,0h0v0h0l0,0h0v0l.06-.08,0,0h0l.06,0h0Zm.69.26v-.08l0,0v0l0,0h.06l0,0h0l0,0,0,0,0,0v0H39.6Zm-.28-.75h0l0,0,0,0h0v.07h0v0h-.05l0,0Zm.35.13h0l0,0h0l0,0,0,0h-.12Zm-.45-.9h.27v0l-.05,0,0,0-.09.05h-.1Zm9-.7,0,0,.06,0h0l0,.05v.05l0,0h.06l0,.05-.05,0-.18,0h-.08l0,0v-.11Zm0-.49v-.13h.05l0,0V25h0Zm.29-.55v0l.07-.06h0v0l0,0-.05,0Zm0-1-.08,0v0l0,0,.1,0,.12,0,.1,0v0l0,.05-.09.05Zm-.16.73,0,.06,0,0V24l.05,0h0v.15ZM46.19,27.4v0h0l-.11,0h0l0,0,0,0h0v0l-.06,0h-.14l-.15,0h-.09l0,0h0l0,0v0l0-.05h0l0,0h.2l.08,0,.15,0h0v0h0l0,0h0v0h0Zm.26,3.21h0v-.09h0v0h0v0h0l.1,0h0l0,0h0v0l0,0,0,0h0l-.1,0h0l0,0h0v0l0,0,.08,0h0l-.08,0h-.07l0,0h0l0,0h0l0,0h-.07l-.18,0h0l-.07,0h-.07V30.1h.21l0,0h.42l0,0h0l-.07,0h0l-.09,0h0l0,0,.05,0,0,0,.07,0h0v0l0,0h-.09l0,0h-.21l-.14,0-.06,0h0l0,0-.06,0H46l0,0h.06l.05,0h0l0,0h0v0h0v0h.06l.08.05h0v0h.09l0,0,0,0h0l.07,0h0l0,0h.09l.06,0h0v0h.06l0,0h0v.05h0l0,0h0v-.06h0l-.1,0h0l0,0h.09v0h-.11l0,0h.15l0,0,0,0,.06,0h0l0,0,0,.06.06,0h0l0,0h0l0,.06h0l-.06,0v0l0,0h0v0h0l0,0v0h0l0,0,0,0h.05l0,0h0l0,0,0,0v-.15l0,0h.07l0,.06,0,0,0,0h.06v-.1l0,0h.08l0,0h.07l0,0,0,0,0,0,0,0,0,.06h0v-.06l0-.09H48l.05.06h.06l0,0,.06,0h0v0h.05l0,0h0l0,0v0l0-.07v0h.15l0,0,0,0v.05l0,0h.14l.06,0h.11l0,0h0l0,0,0,.05,0,0h0l0,0h.09v0h0v0l0,0,0,0H49v0h0v0l0,0,0,0h.11l0,0v0h0v.06h0v0h0l0,0h0v0H49.1v0l0,0,0,0h-.1v0l0,0h0v0l0,0,0,0h0l-.05,0,0,0h-.17l-.1,0-.07,0-.06,0-.07.05-.06,0h-.14l-.16,0h-.06l0,0h0l0,0h-.1v0H47.6l-.18,0-.07,0-.08,0h-.12l-.06,0,0,0h0v0h0l0,0h0l0,0h0l0,0,0,0h0l0,0h-.36ZM47,51.05h0l0,0h0l0,0h0Zm0,.28h0v0H47v0Zm.05,0h0v0h0v0Zm0-.13h0l0,0h0v0Zm.09.07h0v0h0Zm.05-.09h0l0,0h0v0h0Zm1,1.44h0l0,0-.12,0h.16v.05Zm6.21,2.74,0,0,0,0h0v-.06h0l0,0,0,0h0l0,0Zm.27-.41h0l0,0h0Zm.09-.92h-.06l0,0h0Zm9.78,6.21h0v0h0v0h0ZM64,56.73l0,0h0l0,0h0Zm-.59.92v-.06h.05v.09l0,.05h0Zm-.22.35v-.11l0,0,0,0V58h0V58h0v0h0v0Zm-.05.51,0,0,0,0,0,0h0v0l0,0h0l0,0h0Zm1.28,2.85,0,0,0,0,.06-.07h0Zm.49-1.08,0,.09,0,.14,0,.14,0,.07v.12l0,.08,0,.07-.06.06v0h0v-.15h0l0,0h0v.11l0,0h0v.05l0,.06,0,0,0,0h0v0h0l0,0,0,.06v0l0,.1,0,.06-.09.13,0,.06L64,61.9l-.08.1-.09.11-.09.13,0,.07-.06.07-.09.13-.09.13-.11.14-.13.16h0l0,.09-.05.07,0,.06-.09.12,0,0,0,0-.06.07,0,0,0,0,0,0,0,0-.06.06-.06.06,0,0-.06,0h-.13l-.06,0-.07,0,0,0h-.1l0-.06H62v0l0,0h0v-.06l0,0v-.1l0-.06,0,0,0-.07,0,0,0,0V63l0-.09v0l0-.07,0,0,0,0v0h0l.06-.08,0,0h0l0,0,0,0,0-.06.07-.06,0,0,.05-.05.06-.07,0,0,0,0,0-.07,0,0,0,0v-.11h0l0,0,0,0v-.13l0-.11,0,0v-.06l0-.06.18-.2,0,0,0-.06,0,0h.13l0,0,0,0h.11v0h.14v0h0l0,0v0h0l0,0,0,0,.06,0,.07,0h0v.05h0l0,0h0v0h0l0,0,0,0,0,0v0l0,0h0v0h0v0h0l0,0,0,0,0,0h.06l0,0v-.05l.08-.09v0h0v-.07l0,0h0v0h0l0,0,0,0,0,0h0l.06-.05.06-.09,0,0V60h0l0,0,.06-.07h0v0h0v.26Zm3.42-8.11h0l0,0H68.1v0l0,0,0,0h0l0,0h0l0,0h.1l.07,0Zm1.37-2.69,0,.06,0,0h0v-.05l0,0,0-.07v.06Zm1.61,6h0Zm.11-.31Zm.28-1.33Zm.18-1h0Zm1,.58h0v0h0v0Zm-.06.2v0h0v0h0Zm.16.31v0h0v.12h0v.07h0v0l0,.09v0l0,0,0,0,0,0,0,0,0,.06h0l-.06,0,0,0h0l0,0v-.27l0-.25,0-.07v-.12l0,0,0,.08h0l0-.08v0l0-.09h0v-.06l0-.06,0,0v-.12h0v0h0v-.05l0,0h0v0h.05v0l0,.09v.14h0v.13h0Zm.53,4.81v0h0v0h0Zm0-.37h0v0h0v0h0v0h0Zm.72-1.55v0h0v0h0Zm0,0v0h0v0h0l0,0,0,0v0h0v0Zm0,.37v0h0v0h0Zm0-.48h0v0h0v0h0v0h0v0l0,0h0Zm0-.2h0l0,0v0h0v0Zm0-.29h0v0h0v.09h0v0Zm0,.14h0v0h0v0h0l0,0h0v0Zm0,0h0v0h0v0h0Zm0,0v0h0v0h0Zm0-.33h0l0,0v0h0l0,0V56h0l0,0h0v0Zm0,.17v0h0v0l0,0v0h0v-.06l0,0v0Zm0,.14h0v0h0v0h0v0h0v0h0v0h0Zm0,.28h0v0h0Zm0-.23h0v0h0v-.06h0Zm0,.59h0v0h0l0,0h0l0-.06v0h0Zm0-.62h0v0Zm0-.08h0v0h0v0l0,0v0h0v0h0v0h0l0,0h0Zm0-.08h0v0Zm0,.09h0v0h0v0h0Zm0-2.65h0v0h0Zm0,.37h0v0h0v0h0Zm0-.07v0h0v0h0Zm0,.11h0v0h0Zm0,.68h0v0h0Zm0-.48h0v0l0,0Zm0,.1v0h0l0,0h0l0,.08v0l0,0V54.4ZM74.1,56h0v0h0v0Zm0-.18v0h0v0h0v0h0v.09h0v0h0v-.06h0Zm-.08.68v-.1h0v-.15h0l0,0h0v0l0,.09h0v.06l0,0,0,.08v0Zm-.08.35v-.07l0-.07h0l0,0v0l0,0,0,0v0Zm-.11.38v0l0-.09v0l0-.07h0v0l0,.06v0h0v.1h0Zm0,.16v0h0v.11h0v0h0Zm-.05.19,0,0h0v0h0v.1h0Zm0,.14v0h0v0l0,0v0h0l0,.07h0v0h0l0,0Zm.17.81v0h0v0h0Zm.16-.83v0h0l0,0h0l0,0v0h0v0h0l0,.08h0l0,.12,0,0,0,0,0,.07-.09.2v0l0,0h0v0h0v0h0l0,0h0v0l0,.05v0h0v-.07l0,0v0l0-.09v-.09h0v-.09l0-.1,0-.06,0-.09v-.16l0-.09v-.09l0-.08v-.06l0-.07.06-.2V57l0-.09h0l0-.07v-.08l0-.09v-.16l0-.07,0-.11,0-.14,0-.07v-.05h0V56h0v-.07l0-.06v-.19l0-.1v0l0,0v-.4l0-.1v0h0v0h0V55h0l0,0h.08v.17h0v.1l0,0v.09h0V56h0v0h0V56h0v0h0v.18h0v.21h0v.07h0v.08l0,0,0,0h0v0l0,0h0v.18l0,0v0h0v0h0V57h0v0l0,0v0l0,.07v.14h0v0h0l0,0v.07h0l0,0h0v0l0,.12Zm0,0h0v0l0,0,0-.05h0l0,0v0h0v0h0v-.06h0v0h0v0h0v0h0v0h0l0,0v0h0v.11l0,.1,0,.08v0h0v0l0,.06h0v0Zm.07-.07h0v0h0Zm0,.06h0v0Zm0,0v0h0v0h0v0h0v0l0,0h0v-.07h0v-.06l0,0h0v.07Z"/><path class="cls-2" d="M29.51,36.35c0-.16.09-.32.14-.47C29.6,36,29.55,36.2,29.51,36.35Z"/><path class="cls-3" d="M47.21,81.89a35.73,35.73,0,0,1,0-71.46c8,0,15.44,1.22,21.4,5.69V4.78A48.16,48.16,0,0,0,46.67,0C19.78,0,0,20.29,0,46.16v.26c0,26.5,20.42,45.9,45.78,45.9,9.28,0,16.7-1.92,22.83-5.17v-11C62.65,80.67,55.24,81.89,47.21,81.89Z"/><path class="cls-4" d="M68.61,16.12s-27.79-17.7-51,8.58C9.59,33.8,2.79,48.28,2.55,62c0,0-4.9-11.39-1.07-28C4.18,22.38,12,14.85,20,10.31,31.12,4,43.52,5.47,48.87,6.57A43.75,43.75,0,0,1,68.61,16.12Z"/><path class="cls-4" d="M68.61,76.2S57.05,91.74,20.49,85a40,40,0,0,0,11.87,5.41,52.25,52.25,0,0,0,10.48,1.83,49.34,49.34,0,0,0,25.77-5Z"/></g></g></svg>