<svg width="270" height="53" viewBox="0 0 270 53" fill="none" xmlns="http://www.w3.org/2000/svg">
<path d="M115.187 14.9728C113.202 13.7889 110.939 13.1621 108.536 13.1621C106.865 13.1621 105.263 13.4755 103.766 14.0327C102.269 14.6246 100.945 15.4255 99.7615 16.4701V13.1273H95.2348V39.6608H99.7615V26.394C99.7615 24.7923 100.145 23.295 100.911 21.9718C101.711 20.6486 102.756 19.604 104.079 18.8031C105.402 18.0022 106.9 17.654 108.502 17.654C110.103 17.654 111.601 18.0371 112.889 18.8031C114.212 19.604 115.257 20.6486 116.058 21.937C116.824 23.2602 117.207 24.7226 117.242 26.3244V39.6259H121.768V26.3592C121.768 23.9218 121.176 21.6932 119.958 19.7084C118.774 17.7933 117.172 16.1567 115.187 14.9728Z" fill="#01151E"/>
<path d="M132.18 18.8728C133.503 18.0719 135 17.7237 136.602 17.7237C137.681 17.7237 138.726 17.8978 139.701 18.2808C140.676 18.6638 141.547 19.1862 142.313 19.8478L145.586 16.7487C144.402 15.6344 143.009 14.7639 141.512 14.172C139.98 13.5452 138.343 13.2318 136.602 13.2318C134.165 13.2318 131.936 13.8586 129.951 15.0425C127.932 16.2264 126.33 17.863 125.146 19.8478C123.927 21.8674 123.335 24.0959 123.335 26.4985C123.335 28.936 123.927 31.1645 125.146 33.1493C126.33 35.1689 127.932 36.7706 129.951 37.9894C131.936 39.1733 134.199 39.7652 136.602 39.7652C138.273 39.7652 139.875 39.4866 141.372 38.8947C142.835 38.3376 144.193 37.5019 145.377 36.4572L142.278 33.1841C141.512 33.8109 140.676 34.3332 139.701 34.7162C138.761 35.0644 137.716 35.2733 136.637 35.2733C135.035 35.2733 133.538 34.8555 132.215 34.0894C130.891 33.2886 129.847 32.2439 129.046 30.9207C128.245 29.5975 127.897 28.1003 127.897 26.4985C127.897 24.8968 128.28 23.3995 129.046 22.0763C129.777 20.7183 130.822 19.6388 132.18 18.8728Z" fill="#01151E"/>
<path d="M160.385 13.1621C158.713 13.1621 157.111 13.4755 155.614 14.0327C154.117 14.6246 152.794 15.4255 151.61 16.4701V13.1273H147.083V39.6608H151.61V26.394C151.61 24.7923 151.993 23.295 152.759 21.9718C153.56 20.6486 154.604 19.604 155.928 18.8031C157.251 18.0022 158.748 17.654 160.35 17.654V13.1621H160.385Z" fill="#01151E"/>
<path d="M93.7024 13.1622H80.4357V17.6889H89.2105V39.6957H93.7024" fill="#01151E"/>
<path d="M182.983 18.5594C181.729 16.888 180.232 15.5997 178.386 14.6247C176.541 13.6497 174.521 13.1622 172.363 13.1622C170.169 13.1622 168.184 13.6497 166.339 14.6247C164.493 15.5649 162.926 16.888 161.707 18.5594C160.489 20.196 159.688 22.0764 159.305 24.1656C159.2 24.9665 159.131 25.7325 159.131 26.429C159.165 27.2647 159.235 27.9959 159.305 28.6923C159.688 30.8164 160.489 32.6967 161.742 34.3333C162.996 35.9698 164.493 37.293 166.339 38.268C168.184 39.243 170.204 39.7305 172.363 39.7305C174.104 39.7305 175.74 39.4171 177.272 38.7903C178.804 38.1635 180.162 37.293 181.346 36.2136L178.561 32.6618C177.76 33.4627 176.82 34.0895 175.775 34.577C174.695 35.0296 173.546 35.2734 172.328 35.2734C170.273 35.2734 168.497 34.6466 166.965 33.4279C165.433 32.2092 164.389 30.6771 163.866 28.7271H185.42C185.525 27.9959 185.594 27.2646 185.594 26.4638C185.56 25.6629 185.49 24.8968 185.42 24.2004C185.037 22.0764 184.236 20.2308 182.983 18.5594ZM163.866 24.2004C164.389 22.2853 165.398 20.7183 166.965 19.4996C168.497 18.2809 170.308 17.6889 172.328 17.6889C174.347 17.6889 176.158 18.2809 177.69 19.4996C179.222 20.7183 180.267 22.2853 180.789 24.2004H163.866Z" fill="#01151E"/>
<path d="M207.079 14.9729C205.094 13.789 202.831 13.1622 200.428 13.1622C197.991 13.1622 195.762 13.789 193.777 14.9729C191.758 16.1568 190.156 17.7934 188.972 19.7782C187.753 21.7978 187.161 24.0263 187.161 26.429C187.161 28.8664 187.753 31.0949 188.972 33.0797C190.156 35.0993 191.758 36.7011 193.777 37.9198C195.762 39.1037 198.025 39.6957 200.428 39.6957C202.099 39.6957 203.701 39.4171 205.198 38.8251C206.661 38.268 208.019 37.4323 209.203 36.3877V39.7305H213.73V26.4638C213.695 23.9915 213.103 21.7629 211.884 19.7782C210.665 17.7586 209.064 16.1568 207.079 14.9729ZM207.984 30.8512C207.183 32.1744 206.139 33.219 204.815 34.0199C203.492 34.8207 201.995 35.2038 200.393 35.2038C198.791 35.2038 197.294 34.7859 195.971 34.0199C194.648 33.219 193.603 32.1744 192.802 30.8512C192.001 29.528 191.653 28.0307 191.653 26.429C191.653 24.8272 192.036 23.3299 192.802 22.0067C193.603 20.6835 194.648 19.6389 195.971 18.838C197.294 18.0371 198.791 17.6889 200.393 17.6889C201.995 17.6889 203.492 18.072 204.815 18.838C206.139 19.6389 207.183 20.6835 207.984 22.0067C208.785 23.3299 209.133 24.8272 209.133 26.429C209.168 28.0655 208.785 29.528 207.984 30.8512Z" fill="#01151E"/>
<path d="M215.227 17.6889H235.249L215.227 35.2038V39.6957H241.761V35.2038H221.669L241.761 17.6889V13.1622H215.227V17.6889Z" fill="#01151E"/>
<path d="M265.439 13.1622V26.5334C265.404 28.17 265.021 29.6325 264.22 30.9557C263.419 32.2789 262.374 33.3235 261.051 34.0896C259.728 34.8904 258.231 35.2734 256.629 35.2734C254.992 35.2734 253.53 34.8556 252.172 34.0896C250.849 33.2887 249.804 32.2441 249.003 30.9557C248.202 29.6325 247.854 28.1352 247.819 26.4986V13.1274H243.293V26.4638C243.293 28.9013 243.885 31.1298 245.103 33.1494C246.322 35.169 247.924 36.7707 249.943 37.9895C251.963 39.2082 254.191 39.8001 256.664 39.8001C258.335 39.8001 259.937 39.5216 261.399 38.9296C262.897 38.3377 264.22 37.5368 265.404 36.4922C265.23 37.9894 264.742 39.3126 263.941 40.4965C263.14 41.6456 262.096 42.6206 260.842 43.3171C259.589 44.0135 258.196 44.3268 256.664 44.3268V48.8535C259.101 48.8535 261.33 48.2268 263.349 47.0429C265.369 45.859 266.971 44.2224 268.155 42.2376C269.339 40.2528 269.965 38.0243 270 35.552V13.0926H265.439V13.1622Z" fill="#01151E"/>
<path d="M91.4391 4.1785C90.1856 4.1785 89.1758 5.1883 89.1758 6.44185C89.1758 7.69539 90.1856 8.7052 91.4391 8.7052C92.6926 8.7052 93.7024 7.69539 93.7024 6.44185C93.7024 5.1883 92.6926 4.1785 91.4391 4.1785Z" fill="#01151E"/>
<path d="M52.8927 15.739C52.8927 12.8837 52.1615 10.2721 50.7687 7.86948C49.3758 5.46685 47.4607 3.58651 45.0929 2.19368C42.7251 0.800852 40.1135 0.0696415 37.1886 0L15.7738 0.0348123C12.9185 0.0348123 10.2721 0.76604 7.8695 2.15887C5.46687 3.5517 3.58653 5.46686 2.1937 7.83467C0.800873 10.2025 0.0696415 12.814 0 15.739V37.1537C0 40.009 0.731249 42.6206 2.12408 45.0232C3.51691 47.4258 5.43205 49.3062 7.79986 50.699C10.1677 52.0918 12.7792 52.8231 15.7042 52.8927L37.1189 52.8579C39.9742 52.8579 42.6206 52.1267 45.0232 50.7338C47.4259 49.341 49.3062 47.4259 50.699 45.0581C52.0919 42.6903 52.8231 40.0787 52.8927 37.1537V15.739ZM39.7305 39.7305H35.2038V27.9959C30.4334 35.0645 22.3549 39.7305 13.1971 39.7305V35.2038C23.7826 35.2038 32.6619 27.6825 34.7511 17.6889H13.1971V13.1622H35.2038H39.7305V39.7305Z" fill="#01151E"/>
</svg>
