<svg width="16" height="11" viewBox="0 0 16 11" fill="none" xmlns="http://www.w3.org/2000/svg">
<path fill-rule="evenodd" clip-rule="evenodd" d="M13.8246 3.27175L8.21053 7.61016C8.10779 7.68919 7.98372 7.72871 7.85965 7.72871C7.73502 7.72871 7.61095 7.68919 7.50821 7.61016L1.89418 3.27175C1.65221 3.08498 1.61347 2.74393 1.80716 2.51061C2.0014 2.27783 2.35509 2.24047 2.59649 2.4267L7.85965 6.49389L13.1222 2.4267C13.3642 2.23993 13.7173 2.27729 13.9116 2.51061C14.1053 2.74393 14.0665 3.08498 13.8246 3.27175ZM14.5965 0.684082H1.12281C0.502456 0.684082 0 1.16859 0 1.76679V9.88709C0 10.4847 0.502456 10.9698 1.12281 10.9698H14.5965C15.2163 10.9698 15.7193 10.4847 15.7193 9.88709V1.76679C15.7193 1.16859 15.2163 0.684082 14.5965 0.684082Z" fill="#33EEAC"/>
</svg>
