<svg width="17" height="17" viewBox="0 0 17 17" fill="none" xmlns="http://www.w3.org/2000/svg">
<path fill-rule="evenodd" clip-rule="evenodd" d="M7.71217 9.35619C4.98114 6.62515 5.37121 6.23508 5.37121 6.23508L6.54197 5.06488C6.97286 4.63398 6.97286 3.93495 6.54197 3.5046L4.11438 1.07646C3.70334 0.665981 3.04348 0.639498 2.60872 1.0246C1.89314 1.65798 0.928172 2.7035 0.689827 3.89467C0.299758 5.84502 2.25065 8.57605 5.37121 11.6972C8.49231 14.8177 11.2233 16.7686 13.1737 16.3785C14.3649 16.1402 15.4104 15.1752 16.0438 14.4596C16.4289 14.0249 16.4024 13.365 15.9919 12.954L13.5638 10.5264C13.1334 10.0955 12.4344 10.0955 12.0035 10.5264L10.8333 11.6972C10.8333 11.6972 10.4432 12.0872 7.71217 9.35619Z" fill="#00B4DB"/>
</svg>
