<svg width="17" height="11" viewBox="0 0 17 11" fill="none" xmlns="http://www.w3.org/2000/svg">
<path fill-rule="evenodd" clip-rule="evenodd" d="M14.4649 3.0347L8.8509 7.37311C8.74816 7.45215 8.62409 7.49167 8.50002 7.49167C8.37539 7.49167 8.25132 7.45215 8.14858 7.37311L2.53455 3.0347C2.29258 2.84794 2.25385 2.50688 2.44753 2.27356C2.64178 2.04078 2.99546 2.00343 3.23687 2.18965L8.50002 6.25684L13.7626 2.18965C14.0046 2.00288 14.3577 2.04024 14.552 2.27356C14.7456 2.50688 14.7069 2.84794 14.4649 3.0347ZM15.2369 0.446777H1.76319C1.14284 0.446777 0.640381 0.931289 0.640381 1.52948V9.64979C0.640381 10.2474 1.14284 10.7325 1.76319 10.7325H15.2369C15.8567 10.7325 16.3597 10.2474 16.3597 9.64979V1.52948C16.3597 0.931289 15.8567 0.446777 15.2369 0.446777Z" fill="#00B4DB"/>
</svg>
