<svg width="16" height="17" viewBox="0 0 16 17" fill="none" xmlns="http://www.w3.org/2000/svg">
<path fill-rule="evenodd" clip-rule="evenodd" d="M7.07179 9.43163C4.34076 6.70059 4.73083 6.31052 4.73083 6.31052L5.90158 5.14032C6.33248 4.70942 6.33248 4.01039 5.90158 3.58004L3.474 1.1519C3.06296 0.74142 2.4031 0.714938 1.96834 1.10004C1.25276 1.73342 0.287791 2.77894 0.0494466 3.97011C-0.340622 5.92045 1.61027 8.65149 4.73083 11.7726C7.85193 14.8931 10.583 16.844 12.5333 16.454C13.7245 16.2156 14.77 15.2507 15.4034 14.5351C15.7885 14.1003 15.762 13.4405 15.3515 13.0294L12.9234 10.6018C12.493 10.1709 11.794 10.1709 11.3631 10.6018L10.1929 11.7726C10.1929 11.7726 9.80283 12.1627 7.07179 9.43163Z" fill="#33EEAC"/>
</svg>
